<svg xmlns="http://www.w3.org/2000/svg" xmlns:xlink="http://www.w3.org/1999/xlink" width="125.387" height="119.5" viewBox="0 0 125.387 119.5">
  <defs>
    <filter id="Rectangle_Copy_20" x="67" y="1.5" width="30" height="71" filterUnits="userSpaceOnUse">
      <feOffset input="SourceAlpha"/>
      <feGaussianBlur stdDeviation="1.5" result="blur"/>
      <feFlood flood-color="#56fffb"/>
      <feComposite operator="in" in2="blur"/>
      <feComposite in="SourceGraphic"/>
    </filter>
    <filter id="Rectangle_Copy_18" x="0" y="41.5" width="38" height="78" filterUnits="userSpaceOnUse">
      <feOffset input="SourceAlpha"/>
      <feGaussianBlur stdDeviation="1.5" result="blur-2"/>
      <feFlood flood-color="#e01ac7"/>
      <feComposite operator="in" in2="blur-2"/>
      <feComposite in="SourceGraphic"/>
    </filter>
  </defs>
  <g id="Grupo_413" data-name="Grupo 413" transform="translate(-764.5 -1060)">
    <g transform="matrix(1, 0, 0, 1, 764.5, 1060)" filter="url(#Rectangle_Copy_20)">
      <rect id="Rectangle_Copy_20-2" data-name="Rectangle Copy 20" width="21" height="62" transform="translate(71.5 6)" fill="#56fffb"/>
    </g>
    <g transform="matrix(1, 0, 0, 1, 764.5, 1060)" filter="url(#Rectangle_Copy_18)">
      <rect id="Rectangle_Copy_18-2" data-name="Rectangle Copy 18" width="29" height="69" transform="translate(33.5 115) rotate(180)" fill="#e01ac7"/>
    </g>
    <path id="duo-queue" d="M119.116,113.514h-3.625V48.4a5.733,5.733,0,0,0-5.726-5.727H96.4A5.733,5.733,0,0,0,90.671,48.4V65.314L84.232,50.6l5.346-5.844a10.425,10.425,0,0,0,1.781-11.418l-1.193-2.589-2.015-5.04A1.772,1.772,0,0,0,84.86,27.03l1.36,3.4-4.832,1.812-1.989.746-1.5.563L73.179,22.86l1.347-.538a1.772,1.772,0,1,0-1.312-3.292L54.057,26.668a3.795,3.795,0,0,1-3.967-.717L74.137,14.7q.145-.059.288-.127l.6-.289a4.179,4.179,0,0,1,5.563,2.071l1.7,4.259a1.772,1.772,0,0,0,3.291-1.316L83.866,15c-.007-.02-.017-.041-.025-.061a7.669,7.669,0,0,0-4.347-4.1,7.883,7.883,0,0,0-.8-.251,5.292,5.292,0,0,0-.3-3.818L76.6,3.021A5.311,5.311,0,0,0,69.518.526l-1.484.711a5.318,5.318,0,0,0-2.493,7.084l1.8,3.753a5.326,5.326,0,0,0,1,1.422L46.73,23.611a1.772,1.772,0,0,0-.895,2.263,7.321,7.321,0,0,0,9.538,4.085l14.51-5.786,4.962,11.239L63.4,47.03a5.4,5.4,0,0,0-.775,6.582l8.365,13.836a5.709,5.709,0,0,0-1.6,3.961V82.115a5.7,5.7,0,0,0-2.182-.433H53.846a5.733,5.733,0,0,0-5.727,5.727v5.255a5.7,5.7,0,0,0-2.182-.433h-7.2l1.314-10.638A6.061,6.061,0,0,0,37.417,75.8l-9.761-6.586-.195-12.493,10.8-6.564a10.357,10.357,0,0,0,4.588-11.548,1.771,1.771,0,0,0-2.555-1.087L24.449,46.131a5.324,5.324,0,0,0-.515-1.572l-1.9-3.7a5.311,5.311,0,0,0-7.15-2.306l-1.464.75a5.318,5.318,0,0,0-2.306,7.148l1.9,3.7a5.283,5.283,0,0,0,1.7,1.945,8.185,8.185,0,0,0-1.883,5.223V62.2a1.772,1.772,0,0,0,3.544,0v-4.88A4.647,4.647,0,0,1,18.8,53.231L39.645,41.908a6.8,6.8,0,0,1-3.225,5.221L24.813,54.185l-.042.025L21.09,56.448a1.772,1.772,0,1,0,1.84,3.028l1.021-.62.158,10.129-6.585,2.7-1.149.471V70.823a1.772,1.772,0,0,0-3.544,0V74.8a1.831,1.831,0,0,0,.052.425L16.073,88.11a1.63,1.63,0,0,1-.139,1.151l-6.991,13.3a5.733,5.733,0,0,0-3.373,5.218v5.737h-3.8a1.772,1.772,0,0,0,0,3.544H119.116a1.772,1.772,0,0,0,0-3.544ZM71.543,11.446a1.756,1.756,0,0,1-1.007-.9l-1.8-3.753a1.77,1.77,0,0,1,.829-2.357l1.484-.711a1.766,1.766,0,0,1,2.357.83l1.8,3.753a1.769,1.769,0,0,1-.829,2.356l-.848.407-.006,0-.785.367a1.756,1.756,0,0,1-1.2.008Zm-56.5,31.008L16.5,41.7a1.767,1.767,0,0,1,2.379.767l1.9,3.7a1.767,1.767,0,0,1-.581,2.265l-.531.29-1.119.573a1.767,1.767,0,0,1-2.379-.767l-1.9-3.7A1.768,1.768,0,0,1,15.041,42.453Zm71.921-.085-5.646,6.173a2.847,2.847,0,0,0-.482,3.138l6.131,14h-.736l-11-14.961-.023-.031-.073-.1c-.018-.024-.035-.047-.054-.07a1.08,1.08,0,0,1-.2-.978l3.535-12.4,2.5-.94,6.7-2.512.522,1.134a6.887,6.887,0,0,1-1.177,7.543ZM78.61,65.682l-3.8-9.553,7.022,9.553ZM65.925,49.516l7.424-7.534-1.878,6.59a4.619,4.619,0,0,0,.2,3.1l-.576.793a3.12,3.12,0,0,0-.373,3L74.8,65.682h-.73l-8.406-13.9a1.854,1.854,0,0,1,.266-2.261ZM36.538,81.159,35.169,92.231h-.9l-.909-9.252a3.582,3.582,0,0,0-2.146-2.944l-3.171-1.368-.22-5.066,7.614,5.138a2.531,2.531,0,0,1,1.1,2.42Zm-9.692,16.8v4.527a5.7,5.7,0,0,0-2.182-.433h-6.2l8.579-9.99a5.836,5.836,0,0,0,1.408-4.07l-.234-5.39,1.6.688a.038.038,0,0,1,.023.033l.906,9.213a5.737,5.737,0,0,0-3.891,5.423ZM19.07,90.909a5.17,5.17,0,0,0,.442-3.652l-2.822-11.4,2.011-.825,5.537-2.27.668,15.382a2.312,2.312,0,0,1-.556,1.608l-10.562,12.3h-.574ZM9.114,107.777a2.184,2.184,0,0,1,2.182-2.182H24.663a2.184,2.184,0,0,1,2.182,2.182v5.737H9.114Zm21.276,0v-9.82a2.184,2.184,0,0,1,2.182-2.182H45.938a2.184,2.184,0,0,1,2.182,2.182v15.556H30.389v-5.737Zm21.275-9.82V87.409a2.186,2.186,0,0,1,2.183-2.183H67.213A2.185,2.185,0,0,1,69.4,87.409v26.1H51.664Zm42.551,15.556V88.677a1.772,1.772,0,1,0-3.544,0v24.836H72.94V71.41a2.184,2.184,0,0,1,2.182-2.183H88.489a2.185,2.185,0,0,1,2.182,2.183v8.457a1.772,1.772,0,0,0,3.544,0V48.4A2.185,2.185,0,0,1,96.4,46.218h13.368a2.184,2.184,0,0,1,2.181,2.183v65.113H94.215Zm0,0" transform="translate(769 1059.999)"/>
  </g>
</svg>
