<svg xmlns="http://www.w3.org/2000/svg" xmlns:xlink="http://www.w3.org/1999/xlink" width="107.638" height="119.607" viewBox="0 0 107.638 119.607">
  <defs>
    <filter id="Rectangle_Copy_19" x="44.5" y="31.5" width="27" height="60" filterUnits="userSpaceOnUse">
      <feOffset dy="3" input="SourceAlpha"/>
      <feGaussianBlur stdDeviation="1.5" result="blur"/>
      <feFlood flood-color="#56fffb"/>
      <feComposite operator="in" in2="blur"/>
      <feComposite in="SourceGraphic"/>
    </filter>
  </defs>
  <g id="Grupo_414" data-name="Grupo 414" transform="translate(-1068 -1057)">
    <g transform="matrix(1, 0, 0, 1, 1068, 1057)" filter="url(#Rectangle_Copy_19)">
      <rect id="Rectangle_Copy_19-2" data-name="Rectangle Copy 19" width="18" height="51" transform="translate(49 33)" fill="#56fffb"/>
    </g>
    <path id="promotion-boosting" d="M106.779,16.079l-5.111-4.5,5.111-4.5a2.523,2.523,0,0,0-1.667-4.417H83.961V1.753a1.753,1.753,0,1,0-3.506,0V25.395l-14.4,7.818a5.546,5.546,0,0,0-.569-1.841l-2.029-3.96A5.546,5.546,0,0,0,56,25.005l-1.569.8a5.539,5.539,0,0,0-2.405,7.456l2.029,3.961a5.505,5.505,0,0,0,2,2.169,15.357,15.357,0,0,0-2.113,5.086l-.378,1.338a1.752,1.752,0,0,0,1.21,2.164,1.726,1.726,0,0,0,.477.067,1.754,1.754,0,0,0,1.686-1.277l.378-1.335c.768-2.709,1.24-4.16,2.742-4.976L62.751,39l.332-.17c.11-.057.214-.12.318-.183L82.594,28.223a7.419,7.419,0,0,1-3.539,5.957L66.575,41.763l-.043.026-3.885,2.36a1.753,1.753,0,0,0,1.675,3.075l-2.947,8.91-2.154.883-5.858,2.4L55.05,53.45a1.753,1.753,0,1,0-3.375-.955l-2.667,9.433a1.683,1.683,0,0,0-.063.381l-.7,12.823a5.867,5.867,0,0,1-.143,1.891L40.351,93.334H34.717a5.991,5.991,0,0,0-5.985,5.984v5.06a5.937,5.937,0,0,0-2.478-.539H11.946a5.991,5.991,0,0,0-5.984,5.984V116.1H1.753a1.753,1.753,0,0,0,0,3.506H105.11a1.753,1.753,0,1,0,0-3.506h-4.559V70.917a5.991,5.991,0,0,0-5.984-5.984H83.961V34.351a10.932,10.932,0,0,0,1.761-9.369A1.754,1.754,0,0,0,83.961,23.7V20.5h21.15a2.523,2.523,0,0,0,1.668-4.417ZM55.026,30.115a2.019,2.019,0,0,1,1.008-1.186l1.569-.8a2.034,2.034,0,0,1,2.737.882l2.029,3.961a2.037,2.037,0,0,1-.675,2.613l-.571.309-1.205.618a2.036,2.036,0,0,1-2.737-.883l-2.029-3.96a2.021,2.021,0,0,1-.125-1.551ZM51.5,93.873a5.95,5.95,0,0,0-1.925-.513L51.5,90.8Zm8.323-14.125a6.606,6.606,0,0,0,1.264-3.141c.047-.226.913-4.951.913-4.951s.819.51.9.547a.186.186,0,0,1,.108.153l.954,9.694H58.094Zm10.366-9.676-1.48,11.969H67.491L66.5,72.013a3.693,3.693,0,0,0-2.065-2.964l-1.763-1.118,1.174-6.509S68.8,67.3,68.914,67.449c1.024,1.331,1.374,1.864,1.279,2.624ZM51.258,78.556a9.5,9.5,0,0,0,.491-3.254l.637-11.7,8.108-3.323L59.02,68.448c0,.022-.009.045-.012.067l-1.219,6.75a6.678,6.678,0,0,1-.734,2.335L45.21,93.334h-.976ZM9.467,109.823a2.481,2.481,0,0,1,2.478-2.478H26.254a2.481,2.481,0,0,1,2.479,2.478V116.1H9.467Zm22.77,0v-10.5a2.482,2.482,0,0,1,2.479-2.478H49.025A2.481,2.481,0,0,1,51.5,99.318V116.1H32.239v-6.279Zm64.807-38.9V116.1H77.781V105.591a1.753,1.753,0,0,0-3.507,0V116.1H55.009V88.033a2.481,2.481,0,0,1,2.478-2.478H71.8a2.481,2.481,0,0,1,2.478,2.478v8.788a1.753,1.753,0,1,0,3.506,0v-25.9a2.482,2.482,0,0,1,2.479-2.478H94.566a2.482,2.482,0,0,1,2.479,2.478ZM80.259,64.933a5.991,5.991,0,0,0-5.984,5.984V82.589a5.934,5.934,0,0,0-2.032-.521L73.672,70.5c.281-2.254-.869-3.748-1.98-5.193-.118-.153-6.932-8.244-6.932-8.244l4.18-12.639,11.514-7v27.5Zm3.7-47.944V6.169h18.545L98.512,9.686a2.522,2.522,0,0,0,0,3.787l3.994,3.517H83.961Zm0,0" transform="translate(1068 1057)"/>
  </g>
</svg>
