<svg xmlns="http://www.w3.org/2000/svg" xmlns:xlink="http://www.w3.org/1999/xlink" width="100" height="129" viewBox="0 0 100 129">
  <defs>
    <filter id="Rectangle_Copy_19" x="42.5" y="0" width="54" height="70" filterUnits="userSpaceOnUse">
      <feOffset input="SourceAlpha"/>
      <feGaussianBlur stdDeviation="2.5" result="blur"/>
      <feFlood flood-color="#56fffb"/>
      <feComposite operator="in" in2="blur"/>
      <feComposite in="SourceGraphic"/>
    </filter>
    <filter id="Rectangle_Copy_22" x="6.5" y="58" width="48" height="71" filterUnits="userSpaceOnUse">
      <feOffset input="SourceAlpha"/>
      <feGaussianBlur stdDeviation="1.5" result="blur-2"/>
      <feFlood flood-color="#e01ac7"/>
      <feComposite operator="in" in2="blur-2"/>
      <feComposite in="SourceGraphic"/>
    </filter>
  </defs>
  <g id="Grupo_411" data-name="Grupo 411" transform="translate(-195 -1049.5)">
    <g transform="matrix(1, 0, 0, 1, 195, 1049.5)" filter="url(#Rectangle_Copy_19)">
      <rect id="Rectangle_Copy_19-2" data-name="Rectangle Copy 19" width="39" height="55" transform="translate(50 7.5)" fill="#56fffb"/>
    </g>
    <g transform="matrix(1, 0, 0, 1, 195, 1049.5)" filter="url(#Rectangle_Copy_22)">
      <rect id="Rectangle_Copy_22-2" data-name="Rectangle Copy 22" width="39" height="62" transform="translate(11 62.5)" fill="#e01ac7"/>
    </g>
    <g id="ranked" transform="translate(150.752 1057)">
      <g id="Grupo_341" data-name="Grupo 341" transform="translate(44.248)">
        <g id="Grupo_340" data-name="Grupo 340">
          <path id="Trazado_148" data-name="Trazado 148" d="M138.082,12.587H123.264v-.243h3.307a4.593,4.593,0,0,0,4.6-4.571v-3.2A4.593,4.593,0,0,0,126.571,0H98.245a1.758,1.758,0,1,0,0,3.516h28.326a1.073,1.073,0,0,1,1.063,1.055v3.2a1.073,1.073,0,0,1-1.063,1.055H61.925a1.073,1.073,0,0,1-1.063-1.055v-3.2a1.073,1.073,0,0,1,1.063-1.055H89.98A1.758,1.758,0,1,0,89.98,0H61.925a4.593,4.593,0,0,0-4.6,4.571v3.2a4.593,4.593,0,0,0,4.6,4.571h3.307v.243H50.415a6.151,6.151,0,0,0-6.167,6.121v27.3A25.163,25.163,0,0,0,69.476,71.05h7.516a29.073,29.073,0,0,0,6.8,3.725L80.046,92.044H66.356a4.593,4.593,0,0,0-4.6,4.571v18.815a4.593,4.593,0,0,0,4.6,4.571H122.14a4.593,4.593,0,0,0,4.6-4.571v-5.306a1.771,1.771,0,0,0-3.542,0v5.306a1.073,1.073,0,0,1-1.063,1.055H66.356a1.073,1.073,0,0,1-1.063-1.055V96.614a1.073,1.073,0,0,1,1.063-1.055h55.784a1.073,1.073,0,0,1,1.063,1.055v5.306a1.771,1.771,0,0,0,3.542,0V96.614a4.593,4.593,0,0,0-4.6-4.571H108.45l-3.742-17.269a29.056,29.056,0,0,0,6.8-3.725h7.515a25.163,25.163,0,0,0,25.228-25.041v-27.3A6.15,6.15,0,0,0,138.082,12.587ZM65.233,21.8V47.911a28.45,28.45,0,0,0,3.617,13.911A15.9,15.9,0,0,1,53.529,46.009V21.8Zm4.243,45.735A21.631,21.631,0,0,1,47.79,46.009v-27.3A2.618,2.618,0,0,1,50.415,16.1H65.232v2.18H51.758a1.764,1.764,0,0,0-1.771,1.758V46.009A19.439,19.439,0,0,0,69.476,65.354h1.682q.872,1.136,1.852,2.18H69.476Zm35.351,24.51H83.67l3.509-16.2a29.382,29.382,0,0,0,14.139,0ZM94.248,73.2A25.41,25.41,0,0,1,68.775,47.911V12.345h50.947V47.911A25.41,25.41,0,0,1,94.248,73.2Zm29.016-25.285V21.8h11.7v24.21a15.9,15.9,0,0,1-15.32,15.813A28.455,28.455,0,0,0,123.264,47.911ZM119.02,67.534h-3.534q.979-1.043,1.853-2.18h1.682A19.439,19.439,0,0,0,138.51,46.009V20.041a1.764,1.764,0,0,0-1.771-1.758H123.264V16.1h14.818a2.618,2.618,0,0,1,2.624,2.605v27.3h0A21.631,21.631,0,0,1,119.02,67.534Z" transform="translate(-44.248)"/>
        </g>
      </g>
      <g id="Grupo_343" data-name="Grupo 343" transform="translate(74.45 103.809)">
        <g id="Grupo_342" data-name="Grupo 342">
          <path id="Trazado_149" data-name="Trazado 149" d="M211.691,444.86h-35.98a1.809,1.809,0,1,0,0,3.617h35.979a1.809,1.809,0,0,0,0-3.617Z" transform="translate(-173.903 -444.86)"/>
        </g>
      </g>
      <g id="Grupo_345" data-name="Grupo 345" transform="translate(77.858 18.106)">
        <g id="Grupo_344" data-name="Grupo 344">
          <path id="Trazado_150" data-name="Trazado 150" d="M219.266,88.629,210.132,87.3l-4.085-8.277a1.81,1.81,0,0,0-3.244,0L198.718,87.3l-9.135,1.327a1.81,1.81,0,0,0-1,3.085l6.61,6.443-1.56,9.1a1.81,1.81,0,0,0,2.625,1.907l8.17-4.3,8.17,4.3a1.81,1.81,0,0,0,2.624-1.907l-1.56-9.1,6.61-6.443A1.81,1.81,0,0,0,219.266,88.629Zm-8.813,7.6a1.808,1.808,0,0,0-.52,1.6l1.1,6.423-5.768-3.033a1.81,1.81,0,0,0-1.683,0l-5.768,3.033,1.1-6.423a1.809,1.809,0,0,0-.52-1.6l-4.666-4.548,6.449-.937a1.808,1.808,0,0,0,1.362-.989l2.884-5.843,2.884,5.843a1.809,1.809,0,0,0,1.362.989l6.449.937Z" transform="translate(-188.034 -78.018)"/>
        </g>
      </g>
    </g>
  </g>
</svg>
