<svg xmlns="http://www.w3.org/2000/svg" width="121.868" height="119.607" viewBox="0 0 121.868 119.607">
  <g id="tft-boosting" transform="translate(0 -0.5)">
    <path id="Trazado_151" data-name="Trazado 151" d="M293.35,204.75a6.9,6.9,0,1,0,6.9,6.9A6.912,6.912,0,0,0,293.35,204.75Zm0,10.235a3.331,3.331,0,1,1,3.331-3.331A3.336,3.336,0,0,1,293.35,214.985Zm0,0" transform="translate(-218.265 -155.634)"/>
    <path id="Trazado_152" data-name="Trazado 152" d="M152.208,103.313a1.786,1.786,0,0,0-1.383,2.113,9.478,9.478,0,1,1-9.276-7.527,9.37,9.37,0,0,1,5.9,2.06,1.786,1.786,0,1,0,2.226-2.795,13.022,13.022,0,1,0,4.648,7.53,1.788,1.788,0,0,0-2.114-1.383Zm0,0" transform="translate(-97.914 -71.495)"/>
    <path id="Trazado_153" data-name="Trazado 153" d="M9.02,488H1.786a1.786,1.786,0,0,0,0,3.572H9.02a1.786,1.786,0,1,0,0-3.572Zm0,0" transform="translate(0 -371.461)"/>
    <path id="Trazado_154" data-name="Trazado 154" d="M86.355,488H79.123a1.786,1.786,0,1,0,0,3.572h7.233a1.786,1.786,0,1,0,0-3.572Zm0,0" transform="translate(-58.928 -371.461)"/>
    <path id="Trazado_155" data-name="Trazado 155" d="M116.043,140.582a1.786,1.786,0,0,0,1.356.622h4.343a1.786,1.786,0,0,0,1.582-2.617l-7.258-13.8a1.63,1.63,0,0,1-.14-1.152l3.2-12.939v0l0-.006c0-.008,0-.017,0-.024.009-.042.018-.083.025-.124,0-.013,0-.026,0-.039s0,0,0,0,0-.019,0-.028c0-.031.007-.062.009-.094,0-.012,0-.025,0-.037,0-.039,0-.077,0-.115v-3.363a1.786,1.786,0,1,0-3.572,0v.737l-7.764-3.182.158-10.164,1.018.619a1.786,1.786,0,0,0,1.855-3.053l-3.7-2.248-.043-.026L95.472,82.449a6.827,6.827,0,0,1-3.239-5.232l17.81,9.672c.1.058.192.116.292.168l.3.154,2.536,1.378a4.663,4.663,0,0,1,2.439,4.1v6.99a1.787,1.787,0,0,0,3.573,0v-6.99a8.231,8.231,0,0,0-1.89-5.247,5.317,5.317,0,0,0,1.7-1.953l1.905-3.721a5.342,5.342,0,0,0-2.32-7.19l-1.473-.755a5.349,5.349,0,0,0-7.191,2.32l-1.905,3.721a5.328,5.328,0,0,0-.517,1.575L93.37,73.769a2.741,2.741,0,0,0-.691-2.721L89.529,67.9a2.764,2.764,0,0,0-3.741-.141l-2.684,2.3c-.124-.055-.249-.108-.376-.159L82.51,66.33a2.758,2.758,0,0,0-2.748-2.585H75.306a2.763,2.763,0,0,0-2.391,1.4V59.823a3.2,3.2,0,0,0-2.938-3.172l-3.51-.268a21.484,21.484,0,0,0-1.282-3.158l2.369-2.677a3.186,3.186,0,0,0-.132-4.358l-4.543-4.544a3.2,3.2,0,0,0-4.321-.165l-2.672,2.292a21.425,21.425,0,0,0-3.14-1.33l-.218-3.565a3.185,3.185,0,0,0-3.175-2.988H42.928a3.2,3.2,0,0,0-3.171,2.939l-.268,3.509a21.443,21.443,0,0,0-3.462,1.435l-2.671-2.292a3.2,3.2,0,0,0-4.321.165l-4.543,4.543a3.186,3.186,0,0,0-.133,4.358l2.37,2.677a21.24,21.24,0,0,0-1.282,3.158l-3.511.268A3.2,3.2,0,0,0,19,59.822v6.424a3.187,3.187,0,0,0,2.987,3.176l3.566.217a21.367,21.367,0,0,0,1.33,3.14l-2.292,2.672a3.2,3.2,0,0,0,.165,4.321L29.3,84.315a3.185,3.185,0,0,0,4.358.132l2.677-2.369a21.441,21.441,0,0,0,3.158,1.282l.265,3.472-9.209.982a.606.606,0,0,1-.372-.082l-8.807-5.644a5.309,5.309,0,0,0,1.6-3.325l.393-4.163a5.342,5.342,0,0,0-4.817-5.82L16.9,68.624a5.344,5.344,0,0,0-5.821,4.817L10.683,77.6a5.3,5.3,0,0,0,1.006,3.646,6.577,6.577,0,0,0-.7.672l-.827.938a9.514,9.514,0,0,0-2.377,6.213l-.117,14.1L3.061,138.935a1.786,1.786,0,0,0,1.771,2.015H9.457a1.787,1.787,0,0,0,1.688-1.2l11.481-33.279,10.678,11.109a1.852,1.852,0,0,1,.267,2.263,1.8,1.8,0,0,0-.124.246L26.34,137.379H25.4l3.144-13.992a3.14,3.14,0,0,0-.434-2.857,1.9,1.9,0,0,0-.146-.176l-3.293-3.5a1.786,1.786,0,0,0-2.6,2.449l3.012,3.2-3.656,16.27a1.785,1.785,0,0,0,1.742,2.178h4.365a1.786,1.786,0,0,0,1.652-1.106l7.516-18.285a5.415,5.415,0,0,0-.841-6.475l-12.179-12.67.1-7.245L27.4,97.182a4.142,4.142,0,0,0,2.538.494l9.121-1.122a8.534,8.534,0,0,0,7.306-6.746h2.987a3.186,3.186,0,0,0,3.175-2.988l.217-3.565a21.416,21.416,0,0,0,2.837-1.178l2.583,2.286v.98a2.758,2.758,0,0,0,2.585,2.748l3.566.218c.052.126.105.251.16.376l-2.3,2.686a2.767,2.767,0,0,0,.145,3.736l3.155,3.158a2.76,2.76,0,0,0,3.767.109l2.675-2.367q.188.08.379.153l.269,3.52a2.761,2.761,0,0,0,2.745,2.549h4.456a2.758,2.758,0,0,0,2.748-2.585l.218-3.566.173-.072,2.673,2.366a2.764,2.764,0,0,0,3.774-.113L92.5,95.108a2.769,2.769,0,0,0,.144-3.74l-2.3-2.684c.055-.124.109-.249.16-.376l3.568-.218A2.747,2.747,0,0,0,96.087,87l8.381,5.092-.2,12.915L94.235,118.956a5.5,5.5,0,0,0-1.005,3.779L94.981,139.6a1.787,1.787,0,0,0,1.777,1.6h4.1a1.786,1.786,0,0,0,1.781-1.647l1.06-13.472a1.909,1.909,0,0,1,.088-.437A5.862,5.862,0,0,0,104.9,127.6Zm-4.958-57.736a1.76,1.76,0,0,1,.11-1.351l1.905-3.72a1.773,1.773,0,0,1,2.382-.769l1.473.754a1.77,1.77,0,0,1,.769,2.382l-1.905,3.721a1.771,1.771,0,0,1-2.383.769l-1.126-.576-.534-.29A1.757,1.757,0,0,1,111.085,82.846ZM72.438,67.917l-.145,1.9q-.3.114-.585.242l-.938-.805A3.193,3.193,0,0,0,72.438,67.917ZM14.24,77.938l.393-4.162a1.769,1.769,0,0,1,1.759-1.6c.056,0,.113,0,.169.008l1.648.155a1.771,1.771,0,0,1,1.6,1.928l-.393,4.163a1.772,1.772,0,0,1-1.682,1.6,6.367,6.367,0,0,0-2.375-.276,1.773,1.773,0,0,1-1.116-1.813Zm-6.056,59.44H6.864l4.167-32.319,8.341-.113Zm30.44-44.37L29.5,94.13a.6.6,0,0,1-.365-.071l-6.2-3.449-.059-.033-4.211-2.341a1.786,1.786,0,1,0-1.736,3.122l3.309,1.84-.109,8.163-8.868.12.1-12.381a5.936,5.936,0,0,1,1.484-3.88l.828-.938a2.853,2.853,0,0,1,1.519-.9c.1.016.2.034.308.045l1.5.141a2.854,2.854,0,0,1,.369.2l10.9,6.984.024.016a4.208,4.208,0,0,0,2.638.6l11.607-1.237a4.956,4.956,0,0,1-3.908,2.88Zm16.311-14.64a17.84,17.84,0,0,1-4.356,1.808,1.786,1.786,0,0,0-1.324,1.618l-.27,4.442H43.292l-.336-4.391a1.786,1.786,0,0,0-1.349-1.6,17.847,17.847,0,0,1-4.63-1.879,1.784,1.784,0,0,0-2.08.207l-3.335,2.953L27.536,77.5,30.4,74.159a1.786,1.786,0,0,0,.176-2.084,17.81,17.81,0,0,1-1.95-4.6,1.786,1.786,0,0,0-1.618-1.324l-4.442-.271V60.185l4.391-.336a1.786,1.786,0,0,0,1.6-1.349,17.8,17.8,0,0,1,1.879-4.63,1.786,1.786,0,0,0-.207-2.08l-2.953-3.335L31.3,44.429,34.648,47.3a1.784,1.784,0,0,0,2.084.176,17.833,17.833,0,0,1,4.876-2.02,1.785,1.785,0,0,0,1.349-1.6l.336-4.391h5.694l.27,4.442a1.786,1.786,0,0,0,1.324,1.618,17.848,17.848,0,0,1,4.6,1.95,1.786,1.786,0,0,0,2.084-.175l3.343-2.868,4.026,4.025L61.683,51.79a1.786,1.786,0,0,0-.208,2.08,17.808,17.808,0,0,1,1.879,4.63,1.787,1.787,0,0,0,1.6,1.35l4.392.335v5.693l-4.442.271a1.785,1.785,0,0,0-1.618,1.324,17.829,17.829,0,0,1-1.95,4.6,1.786,1.786,0,0,0,.175,2.084L64.378,77.5l-4.026,4.026-3.335-2.953a1.786,1.786,0,0,0-2.081-.207ZM89.1,84.815a1.788,1.788,0,0,0-1.6,1.259,10.547,10.547,0,0,1-.854,2.012,1.786,1.786,0,0,0,.206,2.03l2.576,3-2.068,2.07-2.981-2.639a1.785,1.785,0,0,0-2.027-.237,10.518,10.518,0,0,1-1.865.774,1.787,1.787,0,0,0-1.259,1.6l-.243,3.972H76.067l-.3-3.949a1.787,1.787,0,0,0-1.288-1.581,10.376,10.376,0,0,1-2.022-.816,1.788,1.788,0,0,0-2.026.238l-2.982,2.639-2.068-2.07,2.577-3a1.788,1.788,0,0,0,.206-2.03,10.5,10.5,0,0,1-.854-2.011,1.788,1.788,0,0,0-1.6-1.26l-3.434-.209a3.236,3.236,0,0,0,.34-.291s5.448-6.244,5.472-6.288a1.788,1.788,0,0,0-.243-2.017l-1.3-1.468-.014-.017-.028-.032-.031-.034-1.246-1.452,2.046-2.047,3,2.578a1.784,1.784,0,0,0,2.031.206,10.4,10.4,0,0,1,2.172-.9,1.788,1.788,0,0,0,1.286-1.581l.3-3.948h2.924l.243,3.974a1.786,1.786,0,0,0,1.259,1.6,10.552,10.552,0,0,1,2.012.854,1.784,1.784,0,0,0,2.029-.207l3.006-2.578L89.578,73a1.782,1.782,0,0,0-.447.566L86.967,76.01a1.785,1.785,0,0,0-.238,2.026,10.505,10.505,0,0,1,.82,2.028,1.788,1.788,0,0,0,1.579,1.283l.673.051a10.369,10.369,0,0,0,2.576,3.218Zm29.682,52.817h-.566L107.6,125.275a2.307,2.307,0,0,1-.557-1.61l.67-15.447,7.576,3.105-2.836,11.449a5.2,5.2,0,0,0,.445,3.674Zm-16.9-15.434a5.493,5.493,0,0,0-1.75,3.6L99.2,137.632h-.833l-1.584-15.262a1.931,1.931,0,0,1,.351-1.327L104,111.5l-.4,9.1Zm0,0" transform="translate(-2.321 -26.967)"/>
    <path id="Trazado_156" data-name="Trazado 156" d="M475.621,488h-7.234a1.786,1.786,0,1,0,0,3.572h7.234a1.786,1.786,0,1,0,0-3.572Zm0,0" transform="translate(-355.54 -371.461)"/>
    <path id="Trazado_157" data-name="Trazado 157" d="M386.223,488H378.99a1.786,1.786,0,0,0,0,3.572h7.234a1.786,1.786,0,1,0,0-3.572Zm0,0" transform="translate(-287.42 -371.461)"/>
    <path id="Trazado_158" data-name="Trazado 158" d="M322.407,121.345a20.707,20.707,0,0,1,16.258,7.811l-1.332-.324a1.787,1.787,0,0,0-.842,3.473l5.546,1.344a1.79,1.79,0,0,0,2.3-1.281l1.276-5.263a1.786,1.786,0,1,0-3.472-.841l-.285,1.173a24.259,24.259,0,0,0-19.447-9.665,1.786,1.786,0,1,0,0,3.572Zm0,0" transform="translate(-244.306 -89.359)"/>
    <path id="Trazado_159" data-name="Trazado 159" d="M31.242,22.656a1.928,1.928,0,0,0,2.424,1.43l5.887-2.151a1.786,1.786,0,1,0-1.225-3.356l-1.747.638A30.564,30.564,0,0,1,63.039,4.072a1.786,1.786,0,0,0,0-3.572A34.122,34.122,0,0,0,33.274,17.8l-.693-1.9a1.786,1.786,0,0,0-3.356,1.226Zm0,0" transform="translate(-22.186 0)"/>
  </g>
</svg>
