<svg xmlns="http://www.w3.org/2000/svg" width="30" height="30" viewBox="0 0 30 30">
    <g fill="none" fill-rule="evenodd">
        <ellipse cx="14.938" cy="15" fill="#454ADE" rx="14.938" ry="15"/>
        <path fill="#FFF" fill-rule="nonzero" d="M12.267 11.248c-2.4 0-4.345 1.92-4.345 4.286 0 2.367 1.946 4.286 4.345 4.286s4.344-1.92 4.344-4.286a4.26 4.26 0 0 0-.09-.857l-.024-.095h-4.23v1.428h2.896c-.23 1.352-1.462 2.381-2.896 2.381-1.6 0-2.897-1.278-2.897-2.857 0-1.578 1.296-2.857 2.897-2.857.724 0 1.384.264 1.892.698l1.038-1.003a4.357 4.357 0 0 0-2.93-1.124zM19.024 13.153v1.429h-1.448v.952h1.448v1.429h.966v-1.429h1.448v-.952H19.99v-1.429z"/>
    </g>
</svg>
