<svg xmlns="http://www.w3.org/2000/svg" xmlns:xlink="http://www.w3.org/1999/xlink" width="53" height="53" viewBox="0 0 53 53">
  <defs>
    <filter id="Elipse_107" x="0" y="0" width="53" height="53" filterUnits="userSpaceOnUse">
      <feOffset input="SourceAlpha"/>
      <feGaussianBlur stdDeviation="0.5" result="blur"/>
      <feFlood/>
      <feComposite operator="in" in2="blur"/>
      <feComposite in="SourceGraphic"/>
    </filter>
    <filter id="Trazado_105" x="9" y="9" width="36" height="35.554" filterUnits="userSpaceOnUse">
      <feOffset input="SourceAlpha"/>
      <feGaussianBlur stdDeviation="0.5" result="blur-2"/>
      <feFlood flood-color="#fff"/>
      <feComposite operator="in" in2="blur-2"/>
      <feComposite in="SourceGraphic"/>
    </filter>
  </defs>
  <g id="Grupo_443" data-name="Grupo 443" transform="translate(793.5 -3658.5)">
    <g transform="matrix(1, 0, 0, 1, -793.5, 3658.5)" filter="url(#Elipse_107)">
      <circle id="Elipse_107-2" data-name="Elipse 107" cx="25" cy="25" r="25" transform="translate(1.5 1.5)"/>
    </g>
    <g transform="matrix(1, 0, 0, 1, -793.5, 3658.5)" filter="url(#Trazado_105)">
      <path id="Trazado_105-2" data-name="Trazado 105" d="M20.5,7.866a4.273,4.273,0,1,1-4.331,4.273A4.3,4.3,0,0,1,20.5,7.866m0,18.311c6.126,0,12.581,2.971,12.581,4.273v2.238H7.919V30.45c0-1.3,6.456-4.273,12.581-4.273M20.5,4a8.139,8.139,0,1,0,8.25,8.138A8.193,8.193,0,0,0,20.5,4Zm0,18.311C14.993,22.311,4,25.038,4,30.45v6.1H37v-6.1C37,25.038,26.007,22.311,20.5,22.311Z" transform="translate(6.5 6.5)" fill="#fff"/>
    </g>
  </g>
</svg>
