<svg xmlns="http://www.w3.org/2000/svg" width="30" height="44" viewBox="0 0 30 44">
    <path fill="#FFF" fill-rule="evenodd" d="M16.726 0C24.045 0 30 5.955 30 13.274v17.452C30 38.046 24.045 44 16.726 44h-3.452C5.955 44 0 38.045 0 30.726V13.274C0 5.955 5.955 0 13.274 0zm0 3h-3.452C7.6 3 3 7.6 3 13.274v17.452C3 36.4 7.6 41 13.274 41h3.452C22.4 41 27 36.4 27 30.726V13.274C27 7.6 22.4 3 16.726 3zM15.5 8.5c1.035 0 1.5.84 1.5 1.875v6.25c0 1.035-.465 1.875-1.5 1.875s-1.5-.84-1.5-1.875v-6.25c0-1.035.465-1.875 1.5-1.875z"/>
</svg>
