<svg xmlns="http://www.w3.org/2000/svg" width="12.944" height="12.297" viewBox="0 0 12.944 12.297">
  <g id="star1.0" fill="none" stroke-miterlimit="10">
    <path d="M6.472,9.885l4,2.412L9.413,7.748l3.53-3.059-4.654-.4L6.472,0,4.654,4.289,0,4.688,3.53,7.748,2.472,12.3Z" stroke="none"/>
    <path d="M 9.716442108154297 11.25735378265381 L 8.926380157470703 7.860795974731445 L 8.858070373535156 7.567105770111084 L 9.085940361022949 7.369646072387695 L 11.72213745117188 5.085261344909668 L 8.24712085723877 4.78709602355957 L 7.947040557861328 4.761345863342285 L 7.829510688781738 4.484055995941162 L 6.471900463104248 1.281183242797852 L 5.114290237426758 4.484055995941162 L 4.996760368347168 4.761345863342285 L 4.696680545806885 4.78709602355957 L 1.22166383266449 5.085261344909668 L 3.857860565185547 7.369646072387695 L 4.08573055267334 7.567105770111084 L 4.017420291900635 7.860795974731445 L 3.227359056472778 11.25735378265381 L 6.213680267333984 9.456376075744629 L 6.471900463104248 9.30064582824707 L 6.730120658874512 9.456376075744629 L 9.716442108154297 11.25735378265381 M 10.47153091430664 12.29661560058594 L 6.471900463104248 9.884535789489746 L 2.472270488739014 12.29661560058594 L 3.530420541763306 7.747515678405762 L 4.631042429537047e-07 4.68824577331543 L 4.653940677642822 4.288926124572754 L 6.471900463104248 -4.10705570175196e-06 L 8.289860725402832 4.288926124572754 L 12.9438009262085 4.68824577331543 L 9.41338062286377 7.747515678405762 L 10.47153091430664 12.29661560058594 Z" stroke="none" fill="#cd9e00"/>
  </g>
</svg>
