<svg xmlns="http://www.w3.org/2000/svg" width="54" height="80" viewBox="0 0 54 80">
    <path fill="#56FFFB" fill-rule="evenodd" d="M0 51.177c0 12.156 11.291 27.06 11.77 27.689a2.504 2.504 0 0 0 3.5.466 2.5 2.5 0 0 0 .466-3.5c-.11-.14-10.746-14.17-10.746-24.655 0-4.82 2.569-7.968 4.694-9.765l1.604 10.154a2.5 2.5 0 0 0 2.854 2.076 2.499 2.499 0 0 0 2.076-2.855L10.3 13.304c-.363-2.392 3.074-2.984 3.483-.496l5.563 27.417c.246 1.21 1.354 2.106 2.581 1.996a2.5 2.5 0 0 0 2.349-2.269l2.98-32.882c.224-2.978 4.559-2.612 4.326.362l-2.629 32.09a2.492 2.492 0 0 0 2.003 2.652 2.49 2.49 0 0 0 2.861-1.69l8.786-27.626c.7-2.538 4.176-1.347 3.673.892-7.891 29.063-8.02 27.959-6.843 29.382.506.606.21.303 1.198.825.954.147 1.64.127 2.425-.658.063-.063.146-.107.203-.177.12-.146.436-.818.449-.868a2.306 2.306 0 0 1 2.199-1.667c1.284 0 2.329 1.082 2.329 2.412v.948c0 20.564-10.443 31.549-10.543 31.655a2.496 2.496 0 0 0 3.56 3.497c.492-.503 11.976-12.443 11.976-35.155v-.948c0-4.102-3.366-7.612-7.718-7.369l5.606-20.67c2.003-8.792-10.975-12.03-13.3-3.513l-2.1 6.597.835-10.203c.772-9.412-13.55-10.789-14.269-1.181l-1.44 15.869-2.153-10.623C17.263 3.28 4.006 5.063 5.366 14.066L8.81 35.873C5.915 37.69 0 42.457 0 51.177z"/>
</svg>
