<svg xmlns="http://www.w3.org/2000/svg" width="54" height="80" viewBox="0 0 54 80">
    <path fill="#56FFFB" fill-rule="evenodd" d="M0 51.177c0 12.156 11.291 27.06 11.77 27.689a2.504 2.504 0 0 0 3.5.466 2.5 2.5 0 0 0 .466-3.5c-.11-.14-10.746-14.17-10.746-24.655 0-4.82 2.569-7.968 4.694-9.765l1.604 10.154a2.5 2.5 0 0 0 2.854 2.076 2.499 2.499 0 0 0 2.076-2.855L10.3 13.304c-.363-2.392 3.074-2.984 3.483-.496l5.563 27.417a2.491 2.491 0 0 0 2.581 1.996 2.5 2.5 0 0 0 2.349-2.269l2.98-32.882c.224-2.978 4.559-2.615 4.326.362L29.376 34.36c0 .036-.01.073-.01.113l-.413 5.05a2.494 2.494 0 0 0 2.283 2.691c1.43.12 2.578-.905 2.691-2.282l.39-4.75c1.28-2.077 4.274-1.102 4.274 1.273V43a2.496 2.496 0 0 0 4.99 0c0-3.193 4.658-3.193 4.658 0v.952c0 20.56-10.443 31.545-10.543 31.651a2.496 2.496 0 0 0 .034 3.53 2.484 2.484 0 0 0 1.746.712c.646 0 1.291-.25 1.78-.748.49-.496 11.973-12.436 11.973-35.145v-.952c0-4.92-4.774-8.69-9.69-6.97-.24-4.178-3.98-7.754-8.74-6.76l1.756-21.428c.779-9.504-13.557-10.725-14.269-1.18l-1.44 15.868-2.156-10.626c-1.427-8.626-14.684-6.84-13.324 2.163L8.81 35.873C5.915 37.69 0 42.457 0 51.177z"/>
</svg>
