<svg xmlns="http://www.w3.org/2000/svg" width="79" height="80" viewBox="0 0 79 80">
    <g fill="none" fill-rule="evenodd">
        <path d="M1 0h80v80H1z"/>
        <path fill="#56FFFB" d="M77 65.806v5.162c-.006 4.986-4.024 9.026-8.983 9.032H51.333v-2.58h16.684c3.542-.005 6.412-2.891 6.416-6.452v-5.162H77zM48.767 77.42V80H46.2v-2.58h2.567zM57.75 0a19.162 19.162 0 0 1 13.105 5.16c7.78 7.26 8.233 19.488 1.012 27.31v37.207c0 2.85-2.299 5.162-5.134 5.162H10.267c-2.835 0-5.134-2.311-5.134-5.162V12.903c0-2.85 2.299-5.161 5.134-5.161h32.119A19.18 19.18 0 0 1 57.75 0zM38.565 20.645H7.7v49.032c0 1.426 1.15 2.581 2.567 2.581h56.466a2.574 2.574 0 0 0 2.567-2.58v-34.84h-.049a19.021 19.021 0 0 1-23.002 0H46.2v-.035a19.343 19.343 0 0 1-7.635-14.158zM23.1 37.42c4.253 0 7.7 3.467 7.7 7.742v2.581h2.567c.708 0 1.283.578 1.283 1.29v18.065c0 .712-.575 1.29-1.283 1.29H12.833a1.287 1.287 0 0 1-1.283-1.29V49.032c0-.712.575-1.29 1.283-1.29H15.4v-2.58c0-4.276 3.447-7.743 7.7-7.743zm37.217 28.387v2.581H38.5v-2.58h21.817zM32.083 50.323H14.117v15.483h17.966V50.323zm-8.983 2.58a3.842 3.842 0 0 1 3.63 2.58c.705 2.01-.346 4.216-2.347 4.925v2.818h-2.566v-2.818a3.86 3.86 0 0 1-2.565-3.65c.004-2.133 1.727-3.859 3.848-3.855zm42.35 7.742v2.58H38.5v-2.58h26.95zM23.1 55.484c-.709 0-1.283.578-1.283 1.29 0 .713.574 1.29 1.283 1.29s1.283-.577 1.283-1.29c0-.712-.574-1.29-1.283-1.29zm42.35 0v2.58H38.5v-2.58h26.95zm0-5.161v2.58H38.5v-2.58h26.95zM43.633 45.16v2.581h-2.566v-2.58h2.566zM23.1 40c-2.835 0-5.133 2.31-5.133 5.161v2.581h10.266v-2.58C28.233 42.31 25.935 40 23.1 40zm42.35 5.161v2.581H46.2v-2.58h19.25zM2.567 16.774V41.29H0V16.774h2.567zm59.033 2.58h-7.7c-2.835 0-5.133 2.312-5.133 5.162v8.955c.814.53 1.672.989 2.566 1.368v-9.033H53.9v9.855c2.53.624 5.17.624 7.7 0v-9.855h2.567v9.033c.894-.38 1.753-.84 2.566-1.372v-8.95c0-2.851-2.298-5.162-5.133-5.162zM34.65 29.678v2.581h-23.1v-2.58h23.1zM69.3 7.222C62.651.81 52.09 1.03 45.711 7.714c-6.379 6.685-6.16 17.303.489 23.717v-6.915c.005-3.818 2.777-7.063 6.53-7.642a6.414 6.414 0 0 1-1.397-3.97c0-3.564 2.873-6.452 6.417-6.452 3.544 0 6.417 2.888 6.417 6.451a6.414 6.414 0 0 1-1.398 3.97c3.754.58 6.526 3.825 6.531 7.643v6.915c.166-.16.33-.324.489-.491 6.379-6.685 6.16-17.304-.489-23.718zM14.117 24.516v2.58H11.55v-2.58h2.567zm20.533 0v2.58H16.683v-2.58H34.65zm6.088-14.193H10.267a2.574 2.574 0 0 0-2.567 2.58v5.162h30.865a19.276 19.276 0 0 1 2.173-7.742zm17.012-1.29c-2.126 0-3.85 1.732-3.85 3.87s1.724 3.871 3.85 3.871c2.126 0 3.85-1.733 3.85-3.87 0-2.139-1.724-3.872-3.85-3.872zm-44.917 3.87v2.58h-2.566v-2.58h2.566zm5.134 0v2.58H15.4v-2.58h2.567zm5.133 0v2.58h-2.567v-2.58H23.1zm-20.533-1.29v2.58H0v-2.58h2.567z"/>
        <path fill="#E01AC7" d="M79 65.806v5.162c-.006 4.986-4.024 9.026-8.983 9.032H53.333v-2.58h16.684c3.542-.005 6.412-2.891 6.416-6.452v-5.162H79zM50.767 77.42V80H48.2v-2.58h2.567zM59.75 0a19.162 19.162 0 0 1 13.105 5.16c7.78 7.26 8.233 19.488 1.012 27.31v37.207c0 2.85-2.299 5.162-5.134 5.162H12.267c-2.835 0-5.134-2.311-5.134-5.162V12.903c0-2.85 2.299-5.161 5.134-5.161h32.119A19.18 19.18 0 0 1 59.75 0zM40.565 20.645H9.7v49.032c0 1.426 1.15 2.581 2.567 2.581h56.466a2.574 2.574 0 0 0 2.567-2.58v-34.84h-.049a19.021 19.021 0 0 1-23.002 0H48.2v-.035a19.343 19.343 0 0 1-7.635-14.158zM25.1 37.42c4.253 0 7.7 3.467 7.7 7.742v2.581h2.567c.708 0 1.283.578 1.283 1.29v18.065c0 .712-.575 1.29-1.283 1.29H14.833a1.287 1.287 0 0 1-1.283-1.29V49.032c0-.712.575-1.29 1.283-1.29H17.4v-2.58c0-4.276 3.447-7.743 7.7-7.743zm37.217 28.387v2.581H40.5v-2.58h21.817zM34.083 50.323H16.117v15.483h17.966V50.323zm-8.983 2.58a3.842 3.842 0 0 1 3.63 2.58c.705 2.01-.346 4.216-2.347 4.925v2.818h-2.566v-2.818a3.86 3.86 0 0 1-2.565-3.65c.004-2.133 1.727-3.859 3.848-3.855zm42.35 7.742v2.58H40.5v-2.58h26.95zM25.1 55.484c-.709 0-1.283.578-1.283 1.29 0 .713.574 1.29 1.283 1.29s1.283-.577 1.283-1.29c0-.712-.574-1.29-1.283-1.29zm42.35 0v2.58H40.5v-2.58h26.95zm0-5.161v2.58H40.5v-2.58h26.95zM45.633 45.16v2.581h-2.566v-2.58h2.566zM25.1 40c-2.835 0-5.133 2.31-5.133 5.161v2.581h10.266v-2.58C30.233 42.31 27.935 40 25.1 40zm42.35 5.161v2.581H48.2v-2.58h19.25zM4.567 16.774V41.29H2V16.774h2.567zm59.033 2.58h-7.7c-2.835 0-5.133 2.312-5.133 5.162v8.955c.814.53 1.672.989 2.566 1.368v-9.033H55.9v9.855c2.53.624 5.17.624 7.7 0v-9.855h2.567v9.033c.894-.38 1.753-.84 2.566-1.372v-8.95c0-2.851-2.298-5.162-5.133-5.162zM36.65 29.678v2.581h-23.1v-2.58h23.1zM71.3 7.222C64.651.81 54.09 1.03 47.711 7.714c-6.379 6.685-6.16 17.303.489 23.717v-6.915c.005-3.818 2.777-7.063 6.53-7.642a6.414 6.414 0 0 1-1.397-3.97c0-3.564 2.873-6.452 6.417-6.452 3.544 0 6.417 2.888 6.417 6.451a6.414 6.414 0 0 1-1.398 3.97c3.754.58 6.526 3.825 6.531 7.643v6.915c.166-.16.33-.324.489-.491 6.379-6.685 6.16-17.304-.489-23.718zM16.117 24.516v2.58H13.55v-2.58h2.567zm20.533 0v2.58H18.683v-2.58H36.65zm6.088-14.193H12.267a2.574 2.574 0 0 0-2.567 2.58v5.162h30.865a19.276 19.276 0 0 1 2.173-7.742zm17.012-1.29c-2.126 0-3.85 1.732-3.85 3.87s1.724 3.871 3.85 3.871c2.126 0 3.85-1.733 3.85-3.87 0-2.139-1.724-3.872-3.85-3.872zm-44.917 3.87v2.58h-2.566v-2.58h2.566zm5.134 0v2.58H17.4v-2.58h2.567zm5.133 0v2.58h-2.567v-2.58H25.1zm-20.533-1.29v2.58H2v-2.58h2.567z"/>
        <path fill="#1B1F3B" d="M78 65.806v5.162c-.006 4.986-4.024 9.026-8.983 9.032H52.333v-2.58h16.684c3.542-.005 6.412-2.891 6.416-6.452v-5.162H78zM49.767 77.42V80H47.2v-2.58h2.567zM58.75 0a19.162 19.162 0 0 1 13.105 5.16c7.78 7.26 8.233 19.488 1.012 27.31v37.207c0 2.85-2.299 5.162-5.134 5.162H11.267c-2.835 0-5.134-2.311-5.134-5.162V12.903c0-2.85 2.299-5.161 5.134-5.161h32.119A19.18 19.18 0 0 1 58.75 0zM39.565 20.645H8.7v49.032c0 1.426 1.15 2.581 2.567 2.581h56.466a2.574 2.574 0 0 0 2.567-2.58v-34.84h-.049a19.021 19.021 0 0 1-23.002 0H47.2v-.035a19.343 19.343 0 0 1-7.635-14.158zM24.1 37.42c4.253 0 7.7 3.467 7.7 7.742v2.581h2.567c.708 0 1.283.578 1.283 1.29v18.065c0 .712-.575 1.29-1.283 1.29H13.833a1.287 1.287 0 0 1-1.283-1.29V49.032c0-.712.575-1.29 1.283-1.29H16.4v-2.58c0-4.276 3.447-7.743 7.7-7.743zm37.217 28.387v2.581H39.5v-2.58h21.817zM33.083 50.323H15.117v15.483h17.966V50.323zm-8.983 2.58a3.842 3.842 0 0 1 3.63 2.58c.705 2.01-.346 4.216-2.347 4.925v2.818h-2.566v-2.818a3.86 3.86 0 0 1-2.565-3.65c.004-2.133 1.727-3.859 3.848-3.855zm42.35 7.742v2.58H39.5v-2.58h26.95zM24.1 55.484c-.709 0-1.283.578-1.283 1.29 0 .713.574 1.29 1.283 1.29s1.283-.577 1.283-1.29c0-.712-.574-1.29-1.283-1.29zm42.35 0v2.58H39.5v-2.58h26.95zm0-5.161v2.58H39.5v-2.58h26.95zM44.633 45.16v2.581h-2.566v-2.58h2.566zM24.1 40c-2.835 0-5.133 2.31-5.133 5.161v2.581h10.266v-2.58C29.233 42.31 26.935 40 24.1 40zm42.35 5.161v2.581H47.2v-2.58h19.25zM3.567 16.774V41.29H1V16.774h2.567zm59.033 2.58h-7.7c-2.835 0-5.133 2.312-5.133 5.162v8.955c.814.53 1.672.989 2.566 1.368v-9.033H54.9v9.855c2.53.624 5.17.624 7.7 0v-9.855h2.567v9.033c.894-.38 1.753-.84 2.566-1.372v-8.95c0-2.851-2.298-5.162-5.133-5.162zM35.65 29.678v2.581h-23.1v-2.58h23.1zM70.3 7.222C63.651.81 53.09 1.03 46.711 7.714c-6.379 6.685-6.16 17.303.489 23.717v-6.915c.005-3.818 2.777-7.063 6.53-7.642a6.414 6.414 0 0 1-1.397-3.97c0-3.564 2.873-6.452 6.417-6.452 3.544 0 6.417 2.888 6.417 6.451a6.414 6.414 0 0 1-1.398 3.97c3.754.58 6.526 3.825 6.531 7.643v6.915c.166-.16.33-.324.489-.491 6.379-6.685 6.16-17.304-.489-23.718zM15.117 24.516v2.58H12.55v-2.58h2.567zm20.533 0v2.58H17.683v-2.58H35.65zm6.088-14.193H11.267a2.574 2.574 0 0 0-2.567 2.58v5.162h30.865a19.276 19.276 0 0 1 2.173-7.742zm17.012-1.29c-2.126 0-3.85 1.732-3.85 3.87s1.724 3.871 3.85 3.871c2.126 0 3.85-1.733 3.85-3.87 0-2.139-1.724-3.872-3.85-3.872zm-44.917 3.87v2.58h-2.566v-2.58h2.566zm5.134 0v2.58H16.4v-2.58h2.567zm5.133 0v2.58h-2.567v-2.58H24.1zm-20.533-1.29v2.58H1v-2.58h2.567z"/>
    </g>
</svg>
