<svg xmlns="http://www.w3.org/2000/svg" width="130" height="123" viewBox="0 0 130 123">
    <g fill="none" fill-rule="evenodd">
        <path d="M0-7h130v130H0z"/>
        <path fill="#56FFFB" d="M123.825 119.3h-3.768V51.327c0-3.297-2.67-5.98-5.952-5.98h-13.897c-3.282 0-5.952 2.683-5.952 5.98v17.655l-6.694-15.355 5.557-6.1a10.918 10.918 0 0 0 1.851-11.92l-1.24-2.703-2.095-5.262a1.838 1.838 0 0 0-2.394-1.03 1.851 1.851 0 0 0-1.026 2.404l1.414 3.55-5.023 1.892-2.068.779-1.558.587-4.908-11.16 1.4-.562a1.852 1.852 0 0 0 1.03-2.403 1.84 1.84 0 0 0-2.394-1.033l-19.914 7.973a3.893 3.893 0 0 1-3.016-.034 3.93 3.93 0 0 1-1.108-.714l24.998-11.75c.1-.042.2-.086.3-.133l.624-.302a4.295 4.295 0 0 1 3.351-.125 4.322 4.322 0 0 1 2.433 2.288l1.77 4.446a1.84 1.84 0 0 0 2.394 1.03 1.852 1.852 0 0 0 1.026-2.404l-1.784-4.48-.026-.064a7.987 7.987 0 0 0-5.347-4.542 5.546 5.546 0 0 0-.308-3.986l-1.868-3.917a5.49 5.49 0 0 0-3.146-2.834 5.464 5.464 0 0 0-4.22.23l-1.543.742c-2.744 1.322-3.906 4.639-2.592 7.395l1.869 3.918a5.56 5.56 0 0 0 1.04 1.485l-22.463 10.56a1.853 1.853 0 0 0-.93 2.362 7.596 7.596 0 0 0 4.08 4.197c.965.414 1.98.62 2.998.62.96 0 1.92-.184 2.837-.553l15.084-6.04 5.158 11.733-11.898 12.128a5.65 5.65 0 0 0-.805 6.872l8.696 14.444a5.973 5.973 0 0 0-1.659 4.135v11.176a5.899 5.899 0 0 0-2.268-.452H55.975c-3.282 0-5.953 2.682-5.953 5.978v5.486a5.9 5.9 0 0 0-2.268-.452h-7.482l1.366-11.105a6.337 6.337 0 0 0-2.742-6.048l-10.147-6.875-.202-13.042 11.225-6.852c4.071-2.484 6.032-7.442 4.77-12.056a1.838 1.838 0 0 0-2.656-1.135l-16.47 8.987a5.575 5.575 0 0 0-.535-1.64l-1.971-3.867a5.492 5.492 0 0 0-3.22-2.75 5.464 5.464 0 0 0-4.213.343l-1.521.783c-2.709 1.394-3.785 4.74-2.397 7.462l1.971 3.865a5.508 5.508 0 0 0 1.765 2.03 8.567 8.567 0 0 0-1.958 5.453v5.095c0 1.021.825 1.85 1.842 1.85a1.846 1.846 0 0 0 1.843-1.85v-5.095c0-1.78.967-3.416 2.525-4.266l21.665-11.82c-.189 2.201-1.401 4.259-3.352 5.45l-12.066 7.366-.044.026-3.826 2.336a1.855 1.855 0 0 0-.617 2.542 1.837 1.837 0 0 0 2.53.62l1.061-.648.164 10.574-6.846 2.82-1.194.491v-1.392c0-1.022-.825-1.85-1.843-1.85a1.846 1.846 0 0 0-1.842 1.85v4.15c0 .147.02.301.054.443l3.317 13.453c.1.405.05.832-.144 1.202l-7.268 13.882a5.986 5.986 0 0 0-3.506 5.447v5.989H1.842A1.846 1.846 0 0 0 0 121.15c0 1.022.825 1.85 1.842 1.85h121.983a1.846 1.846 0 0 0 1.842-1.85c0-1.022-.825-1.85-1.842-1.85zM74.37 12.747a1.829 1.829 0 0 1-1.047-.942l-1.869-3.918a1.851 1.851 0 0 1 .862-2.46l1.543-.743a1.82 1.82 0 0 1 1.404-.077c.463.164.835.499 1.047.943l1.868 3.918a1.85 1.85 0 0 1-.862 2.46l-.88.425c-.004 0-.006.002-.007.003l-.816.383c-.401.148-.836.152-1.243.008zm-58.736 32.37l1.522-.783a1.832 1.832 0 0 1 1.402-.114c.467.151.847.476 1.07.915l1.972 3.867a1.85 1.85 0 0 1-.604 2.364l-.552.303-1.163.597a1.812 1.812 0 0 1-1.402.114 1.824 1.824 0 0 1-1.071-.915L14.838 47.6a1.85 1.85 0 0 1 .797-2.481zM90.4 45.03l-5.87 6.444a2.982 2.982 0 0 0-.501 3.276l6.373 14.618h-.765L78.204 53.75l-.024-.033-.076-.103a1.354 1.354 0 0 0-.056-.073 1.132 1.132 0 0 1-.21-1.02l3.676-12.945 2.604-.982 6.962-2.622.543 1.183c1.21 2.64.73 5.73-1.223 7.875zm-8.682 24.338l-3.954-9.973 7.3 9.973h-3.346zM68.531 52.491l7.717-7.865-1.952 6.879a4.84 4.84 0 0 0 .211 3.235l-.598.828a3.269 3.269 0 0 0-.387 3.13l4.23 10.67h-.759l-8.738-14.516a1.942 1.942 0 0 1 .276-2.361zM37.982 85.523L36.56 97.082h-.936l-.946-9.66a3.738 3.738 0 0 0-2.23-3.072l-3.297-1.428-.228-5.29 7.915 5.365a2.647 2.647 0 0 1 1.145 2.526zM27.907 103.06v4.726a5.9 5.9 0 0 0-2.269-.453h-6.45l8.919-10.43a6.109 6.109 0 0 0 1.464-4.248l-.243-5.627 1.658.718c.014.006.022.018.024.035l.942 9.618a5.987 5.987 0 0 0-4.045 5.661zm-8.083-7.358a5.418 5.418 0 0 0 .46-3.813l-2.934-11.9 2.09-.862 5.756-2.37.694 16.059a2.42 2.42 0 0 1-.578 1.678l-10.98 12.839h-.596l6.088-11.63zm-10.35 17.61a2.275 2.275 0 0 1 2.269-2.279h13.895a2.275 2.275 0 0 1 2.269 2.278v5.989H9.474v-5.989zm22.117 0V103.06a2.275 2.275 0 0 1 2.269-2.278h13.893a2.275 2.275 0 0 1 2.27 2.278v16.24H31.59v-5.989h.001zm22.116-10.252V92.048a2.277 2.277 0 0 1 2.27-2.279H69.87a2.276 2.276 0 0 1 2.268 2.28v27.25H53.707V103.06zM97.94 119.3V93.372c0-1.022-.824-1.85-1.842-1.85a1.846 1.846 0 0 0-1.842 1.85V119.3H75.824V75.346a2.276 2.276 0 0 1 2.268-2.279h13.895a2.276 2.276 0 0 1 2.269 2.28v8.827c0 1.022.824 1.85 1.842 1.85a1.846 1.846 0 0 0 1.842-1.85V51.327a2.276 2.276 0 0 1 2.268-2.28h13.896a2.275 2.275 0 0 1 2.267 2.28V119.3h-18.43v-.001z"/>
        <path fill="#E01AC7" d="M128.158 119.3h-3.768V51.327c0-3.297-2.67-5.98-5.952-5.98h-13.897c-3.282 0-5.952 2.683-5.952 5.98v17.655l-6.694-15.355 5.557-6.1a10.918 10.918 0 0 0 1.851-11.92l-1.24-2.703-2.094-5.262a1.838 1.838 0 0 0-2.394-1.03 1.851 1.851 0 0 0-1.027 2.404l1.414 3.55-5.023 1.892-2.068.779-1.558.587-4.908-11.16 1.401-.562a1.852 1.852 0 0 0 1.03-2.403 1.84 1.84 0 0 0-2.394-1.033l-19.915 7.973a3.893 3.893 0 0 1-3.016-.034 3.93 3.93 0 0 1-1.107-.714L81.4 16.14c.101-.042.2-.086.3-.133l.625-.302a4.295 4.295 0 0 1 3.35-.125 4.322 4.322 0 0 1 2.433 2.288l1.77 4.446a1.84 1.84 0 0 0 2.395 1.03 1.852 1.852 0 0 0 1.026-2.404l-1.785-4.48c-.007-.022-.017-.043-.026-.064a7.987 7.987 0 0 0-5.347-4.542 5.546 5.546 0 0 0-.307-3.986l-1.869-3.917a5.49 5.49 0 0 0-3.146-2.834 5.464 5.464 0 0 0-4.22.23l-1.543.742c-2.744 1.322-3.906 4.639-2.591 7.395l1.868 3.918a5.56 5.56 0 0 0 1.04 1.485l-22.463 10.56a1.853 1.853 0 0 0-.93 2.362 7.596 7.596 0 0 0 4.08 4.197c.965.414 1.981.62 2.998.62.96 0 1.92-.184 2.837-.553l15.085-6.04 5.158 11.733L70.24 49.895a5.65 5.65 0 0 0-.805 6.872l8.696 14.444a5.973 5.973 0 0 0-1.659 4.135v11.176a5.899 5.899 0 0 0-2.268-.452H60.309c-3.282 0-5.953 2.682-5.953 5.978v5.486a5.9 5.9 0 0 0-2.269-.452h-7.482l1.366-11.105a6.337 6.337 0 0 0-2.742-6.048l-10.146-6.875-.203-13.042 11.226-6.852c4.07-2.484 6.031-7.442 4.768-12.056a1.838 1.838 0 0 0-2.656-1.135L29.75 48.956a5.575 5.575 0 0 0-.535-1.64l-1.971-3.867a5.492 5.492 0 0 0-3.22-2.75 5.464 5.464 0 0 0-4.212.343l-1.522.783c-2.708 1.394-3.784 4.74-2.397 7.462l1.971 3.865a5.508 5.508 0 0 0 1.765 2.03 8.567 8.567 0 0 0-1.957 5.453v5.095c0 1.021.824 1.85 1.841 1.85a1.846 1.846 0 0 0 1.843-1.85v-5.095c0-1.78.968-3.416 2.526-4.266l21.665-11.82c-.19 2.201-1.402 4.259-3.353 5.45l-12.066 7.366-.043.026-3.827 2.336a1.855 1.855 0 0 0-.617 2.542 1.837 1.837 0 0 0 2.53.62l1.061-.648.164 10.574-6.845 2.82-1.195.491v-1.392c0-1.022-.824-1.85-1.843-1.85a1.846 1.846 0 0 0-1.841 1.85v4.15c0 .147.019.301.053.443l3.318 13.453c.1.405.049.832-.145 1.202l-7.268 13.882a5.986 5.986 0 0 0-3.506 5.447v5.989H6.175a1.846 1.846 0 0 0-1.842 1.85c0 1.022.825 1.85 1.842 1.85h121.983a1.846 1.846 0 0 0 1.842-1.85c0-1.022-.825-1.85-1.842-1.85zM78.704 12.747a1.829 1.829 0 0 1-1.047-.942L75.79 7.887a1.851 1.851 0 0 1 .862-2.46l1.542-.743a1.82 1.82 0 0 1 1.404-.077c.463.164.835.499 1.047.943l1.869 3.918a1.85 1.85 0 0 1-.862 2.46l-.881.425c-.003 0-.005.002-.007.003l-.816.383c-.4.148-.836.152-1.243.008zM19.97 45.117l1.521-.783a1.832 1.832 0 0 1 1.402-.114c.467.151.848.476 1.071.915l1.971 3.867a1.85 1.85 0 0 1-.604 2.364l-.552.303-1.163.597a1.812 1.812 0 0 1-1.402.114 1.824 1.824 0 0 1-1.07-.915L19.17 47.6a1.85 1.85 0 0 1 .798-2.481zm74.764-.088l-5.87 6.444a2.982 2.982 0 0 0-.501 3.276l6.374 14.618h-.765L82.538 53.75c-.01-.011-.017-.022-.024-.033l-.076-.103a1.354 1.354 0 0 0-.057-.073 1.132 1.132 0 0 1-.209-1.02l3.675-12.945 2.604-.982 6.963-2.622.542 1.183c1.21 2.64.73 5.73-1.223 7.875zm-8.682 24.338l-3.954-9.973 7.3 9.973h-3.346zM72.865 52.491l7.717-7.865-1.952 6.879a4.84 4.84 0 0 0 .21 3.235l-.598.828a3.269 3.269 0 0 0-.387 3.13l4.23 10.67h-.758l-8.739-14.516a1.942 1.942 0 0 1 .277-2.361zm-30.55 33.032l-1.422 11.559h-.937l-.945-9.66a3.738 3.738 0 0 0-2.231-3.072l-3.297-1.428-.228-5.29 7.915 5.365a2.647 2.647 0 0 1 1.146 2.526zM32.24 103.06v4.726a5.9 5.9 0 0 0-2.268-.453h-6.45l8.918-10.43a6.109 6.109 0 0 0 1.464-4.248l-.243-5.627 1.659.718c.013.006.022.018.023.035l.942 9.618a5.987 5.987 0 0 0-4.045 5.661zm-8.082-7.358a5.418 5.418 0 0 0 .459-3.813l-2.934-11.9 2.09-.862 5.757-2.37.694 16.059a2.42 2.42 0 0 1-.578 1.678l-10.98 12.839h-.597l6.089-11.63zm-10.35 17.61a2.275 2.275 0 0 1 2.268-2.279h13.896a2.275 2.275 0 0 1 2.268 2.278v5.989H13.808v-5.989zm22.116 0V103.06a2.275 2.275 0 0 1 2.269-2.278H52.087a2.275 2.275 0 0 1 2.269 2.278v16.24H35.924v-5.989zM58.04 103.06V92.048a2.277 2.277 0 0 1 2.27-2.279h13.894a2.276 2.276 0 0 1 2.268 2.28v27.25H58.04V103.06zm44.234 16.24V93.372c0-1.022-.825-1.85-1.842-1.85a1.846 1.846 0 0 0-1.843 1.85V119.3H80.157V75.346a2.276 2.276 0 0 1 2.268-2.279h13.896a2.276 2.276 0 0 1 2.268 2.28v8.827c0 1.022.825 1.85 1.842 1.85a1.846 1.846 0 0 0 1.843-1.85V51.327a2.276 2.276 0 0 1 2.267-2.28h13.896a2.275 2.275 0 0 1 2.268 2.28V119.3h-18.431v-.001z"/>
        <path fill="#1B1F3B" d="M126.425 119.3h-3.768V51.327c0-3.297-2.67-5.98-5.952-5.98h-13.897c-3.282 0-5.952 2.683-5.952 5.98v17.655l-6.694-15.355 5.557-6.1a10.918 10.918 0 0 0 1.851-11.92l-1.24-2.703-2.095-5.262a1.838 1.838 0 0 0-2.394-1.03 1.851 1.851 0 0 0-1.026 2.404l1.414 3.55-5.023 1.892-2.068.779-1.558.587-4.908-11.16 1.4-.562a1.852 1.852 0 0 0 1.03-2.403 1.84 1.84 0 0 0-2.394-1.033l-19.914 7.973a3.893 3.893 0 0 1-3.016-.034 3.93 3.93 0 0 1-1.108-.714l24.998-11.75c.1-.042.2-.086.3-.133l.624-.302a4.295 4.295 0 0 1 3.351-.125 4.322 4.322 0 0 1 2.433 2.288l1.77 4.446a1.84 1.84 0 0 0 2.394 1.03 1.852 1.852 0 0 0 1.026-2.404l-1.784-4.48-.026-.064a7.987 7.987 0 0 0-5.347-4.542 5.546 5.546 0 0 0-.308-3.986l-1.868-3.917a5.49 5.49 0 0 0-3.146-2.834 5.464 5.464 0 0 0-4.22.23l-1.543.742c-2.744 1.322-3.906 4.639-2.592 7.395l1.869 3.918a5.56 5.56 0 0 0 1.04 1.485l-22.463 10.56a1.853 1.853 0 0 0-.93 2.362 7.596 7.596 0 0 0 4.08 4.197c.965.414 1.98.62 2.998.62.96 0 1.92-.184 2.837-.553l15.084-6.04 5.158 11.733-11.898 12.128a5.65 5.65 0 0 0-.805 6.872l8.696 14.444a5.973 5.973 0 0 0-1.659 4.135v11.176a5.899 5.899 0 0 0-2.268-.452H58.575c-3.282 0-5.953 2.682-5.953 5.978v5.486a5.9 5.9 0 0 0-2.268-.452h-7.482l1.366-11.105a6.337 6.337 0 0 0-2.742-6.048l-10.147-6.875-.202-13.042 11.225-6.852c4.071-2.484 6.032-7.442 4.77-12.056a1.838 1.838 0 0 0-2.656-1.135l-16.47 8.987a5.575 5.575 0 0 0-.535-1.64l-1.971-3.867a5.492 5.492 0 0 0-3.22-2.75 5.464 5.464 0 0 0-4.213.343l-1.521.783c-2.709 1.394-3.785 4.74-2.397 7.462l1.971 3.865a5.508 5.508 0 0 0 1.765 2.03 8.567 8.567 0 0 0-1.958 5.453v5.095c0 1.021.825 1.85 1.842 1.85a1.846 1.846 0 0 0 1.843-1.85v-5.095c0-1.78.967-3.416 2.525-4.266l21.665-11.82c-.189 2.201-1.401 4.259-3.352 5.45l-12.066 7.366-.044.026-3.826 2.336a1.855 1.855 0 0 0-.617 2.542 1.837 1.837 0 0 0 2.53.62l1.061-.648.164 10.574-6.846 2.82-1.194.491v-1.392c0-1.022-.825-1.85-1.843-1.85a1.846 1.846 0 0 0-1.842 1.85v4.15c0 .147.02.301.054.443l3.317 13.453c.1.405.05.832-.144 1.202l-7.268 13.882a5.986 5.986 0 0 0-3.506 5.447v5.989H4.442a1.846 1.846 0 0 0-1.842 1.85c0 1.022.825 1.85 1.842 1.85h121.983a1.846 1.846 0 0 0 1.842-1.85c0-1.022-.825-1.85-1.842-1.85zM76.97 12.747a1.829 1.829 0 0 1-1.047-.942l-1.869-3.918a1.851 1.851 0 0 1 .862-2.46l1.543-.743a1.82 1.82 0 0 1 1.404-.077c.463.164.835.499 1.047.943l1.868 3.918a1.85 1.85 0 0 1-.862 2.46l-.88.425c-.004 0-.006.002-.007.003l-.816.383c-.401.148-.836.152-1.243.008zm-58.736 32.37l1.522-.783a1.832 1.832 0 0 1 1.402-.114c.467.151.847.476 1.07.915l1.972 3.867a1.85 1.85 0 0 1-.604 2.364l-.552.303-1.163.597a1.812 1.812 0 0 1-1.402.114 1.824 1.824 0 0 1-1.071-.915L17.438 47.6a1.85 1.85 0 0 1 .797-2.481zM93 45.03l-5.87 6.444a2.982 2.982 0 0 0-.501 3.276l6.373 14.618h-.765L80.804 53.75l-.024-.033-.076-.103a1.354 1.354 0 0 0-.056-.073 1.132 1.132 0 0 1-.21-1.02l3.676-12.945 2.604-.982 6.962-2.622.543 1.183c1.21 2.64.73 5.73-1.223 7.875zm-8.682 24.338l-3.954-9.973 7.3 9.973h-3.346zM71.131 52.491l7.717-7.865-1.952 6.879a4.84 4.84 0 0 0 .211 3.235l-.598.828a3.269 3.269 0 0 0-.387 3.13l4.23 10.67h-.759l-8.738-14.516a1.942 1.942 0 0 1 .276-2.361zM40.582 85.523L39.16 97.082h-.936l-.946-9.66a3.738 3.738 0 0 0-2.23-3.072l-3.297-1.428-.228-5.29 7.915 5.365a2.647 2.647 0 0 1 1.145 2.526zM30.507 103.06v4.726a5.9 5.9 0 0 0-2.269-.453h-6.45l8.919-10.43a6.109 6.109 0 0 0 1.464-4.248l-.243-5.627 1.658.718c.014.006.022.018.024.035l.942 9.618a5.987 5.987 0 0 0-4.045 5.661zm-8.083-7.358a5.418 5.418 0 0 0 .46-3.813l-2.934-11.9 2.09-.862 5.756-2.37.694 16.059a2.42 2.42 0 0 1-.578 1.678l-10.98 12.839h-.596l6.088-11.63zm-10.35 17.61a2.275 2.275 0 0 1 2.269-2.279h13.895a2.275 2.275 0 0 1 2.269 2.278v5.989H12.074v-5.989zm22.117 0V103.06a2.275 2.275 0 0 1 2.269-2.278h13.893a2.275 2.275 0 0 1 2.27 2.278v16.24H34.19v-5.989h.001zm22.116-10.252V92.048a2.277 2.277 0 0 1 2.27-2.279H72.47a2.276 2.276 0 0 1 2.268 2.28v27.25H56.307V103.06zm44.233 16.24V93.372c0-1.022-.824-1.85-1.842-1.85a1.846 1.846 0 0 0-1.842 1.85V119.3H78.424V75.346a2.276 2.276 0 0 1 2.268-2.279h13.895a2.276 2.276 0 0 1 2.269 2.28v8.827c0 1.022.824 1.85 1.842 1.85a1.846 1.846 0 0 0 1.842-1.85V51.327a2.276 2.276 0 0 1 2.268-2.28h13.896a2.275 2.275 0 0 1 2.267 2.28V119.3h-18.43v-.001z"/>
    </g>
</svg>
