<svg xmlns="http://www.w3.org/2000/svg" width="110" height="126" viewBox="0 0 110 126">
    <g fill="none" fill-rule="evenodd">
        <path d="M-10-4h130v130H-10z"/>
        <path fill="#56FFFB" d="M47.961.333a1.842 1.842 0 1 1 0 3.682H18.784A1.12 1.12 0 0 0 17.68 5.12v3.355a1.12 1.12 0 0 0 1.105 1.104h67.232a1.12 1.12 0 0 0 1.105-1.104V5.119a1.12 1.12 0 0 0-1.105-1.104h-29.46a1.841 1.841 0 1 1 0-3.682h29.46c2.64 0 4.79 2.148 4.79 4.787v3.355a4.793 4.793 0 0 1-4.79 4.786h-3.44v.254h15.411a6.419 6.419 0 0 1 6.413 6.41v28.59c0 14.46-11.77 26.224-26.237 26.224h-7.816a30.156 30.156 0 0 1-7.069 3.9l3.892 18.085h14.238a4.793 4.793 0 0 1 4.789 4.786v5.556a1.841 1.841 0 0 1-3.684 0v-5.556a1.12 1.12 0 0 0-1.105-1.104H23.393a1.12 1.12 0 0 0-1.106 1.104v19.704a1.12 1.12 0 0 0 1.106 1.104h58.015a1.12 1.12 0 0 0 1.105-1.104v-5.556a1.841 1.841 0 0 1 3.684 0v5.556a4.793 4.793 0 0 1-4.79 4.786H23.393a4.793 4.793 0 0 1-4.789-4.786V101.51a4.793 4.793 0 0 1 4.79-4.786H37.63l3.892-18.085a30.174 30.174 0 0 1-7.069-3.9h-7.816C12.17 74.738.4 62.974.4 48.514v-28.59c0-3.534 2.877-6.41 6.413-6.41h15.41v-.254h-3.439a4.793 4.793 0 0 1-4.788-4.786V5.12A4.793 4.793 0 0 1 18.784.333zM70.72 109.521a1.841 1.841 0 1 1 0 3.682H34.081a1.841 1.841 0 1 1 0-3.682zM59.753 79.764c-2.296.575-4.82.904-7.353.904a30.56 30.56 0 0 1-7.352-.904l-3.65 16.96h22.004zm19.14-66.503H25.908v37.246c0 14.615 11.902 26.479 26.492 26.479 14.573 0 26.493-11.846 26.493-26.48V13.262zm-56.67 3.936H6.814a2.732 2.732 0 0 0-2.73 2.728v28.59c0 12.43 10.118 22.542 22.554 22.542h3.676a30.32 30.32 0 0 1-1.927-2.284h-1.749c-11.176 0-20.269-9.087-20.269-20.258V21.321c0-1.016.825-1.84 1.842-1.84h14.014v-2.284zm75.764 0h-15.41v2.283H96.59c1.018 0 1.842.825 1.842 1.841v27.194c0 11.17-9.092 20.258-20.269 20.258h-1.749a30.293 30.293 0 0 1-1.926 2.284h3.675c12.436 0 22.554-10.112 22.554-22.542v-28.59a2.732 2.732 0 0 0-2.73-2.728zm-75.763 5.965H10.052v25.353c0 8.922 7.09 16.216 15.934 16.56a29.956 29.956 0 0 1-3.762-14.568V23.162zm72.525 0H82.577v27.345a29.96 29.96 0 0 1-3.762 14.568c8.844-.344 15.934-7.638 15.934-16.56V23.162zm-44-2.655c.674-1.367 2.629-1.365 3.303 0l4.16 8.424 9.302 1.351c1.508.219 2.111 2.077 1.02 3.14l-6.73 6.558 1.589 9.259c.258 1.502-1.325 2.648-2.673 1.94l-8.32-4.371-8.32 4.372c-1.349.708-2.929-.44-2.672-1.941l1.59-9.26-6.731-6.557c-1.092-1.063-.487-2.921 1.02-3.14l9.302-1.35zM52.4 25.48l-2.937 5.947c-.268.544-.787.92-1.387 1.007l-6.567.954 4.752 4.63a1.84 1.84 0 0 1 .53 1.629l-1.122 6.537 5.873-3.087a1.844 1.844 0 0 1 1.714 0l5.874 3.087-1.122-6.537a1.84 1.84 0 0 1 .53-1.63l4.752-4.629-6.567-.954a1.842 1.842 0 0 1-1.386-1.007L52.4 25.481z"/>
        <path fill="#E01AC7" d="M53.161.333a1.842 1.842 0 1 1 0 3.682H23.984A1.12 1.12 0 0 0 22.88 5.12v3.355a1.12 1.12 0 0 0 1.105 1.104h67.232a1.12 1.12 0 0 0 1.105-1.104V5.119a1.12 1.12 0 0 0-1.105-1.104h-29.46a1.841 1.841 0 1 1 0-3.682h29.46c2.64 0 4.79 2.148 4.79 4.787v3.355a4.793 4.793 0 0 1-4.79 4.786h-3.44v.254h15.411a6.419 6.419 0 0 1 6.413 6.41v28.59c0 14.46-11.77 26.224-26.237 26.224h-7.816a30.156 30.156 0 0 1-7.069 3.9l3.892 18.085h14.238a4.793 4.793 0 0 1 4.789 4.786v5.556a1.841 1.841 0 0 1-3.684 0v-5.556a1.12 1.12 0 0 0-1.105-1.104H28.593a1.12 1.12 0 0 0-1.106 1.104v19.704a1.12 1.12 0 0 0 1.106 1.104h58.015a1.12 1.12 0 0 0 1.105-1.104v-5.556a1.841 1.841 0 0 1 3.684 0v5.556a4.793 4.793 0 0 1-4.79 4.786H28.593a4.793 4.793 0 0 1-4.789-4.786V101.51a4.793 4.793 0 0 1 4.79-4.786H42.83l3.892-18.085a30.174 30.174 0 0 1-7.069-3.9h-7.816C17.37 74.738 5.6 62.974 5.6 48.514v-28.59c0-3.534 2.877-6.41 6.413-6.41h15.41v-.254h-3.439a4.793 4.793 0 0 1-4.788-4.786V5.12A4.793 4.793 0 0 1 23.984.333zM75.92 109.521a1.841 1.841 0 1 1 0 3.682H39.281a1.841 1.841 0 1 1 0-3.682zM64.953 79.764c-2.296.575-4.82.904-7.353.904a30.56 30.56 0 0 1-7.352-.904l-3.65 16.96h22.004zm19.14-66.503H31.108v37.246c0 14.615 11.902 26.479 26.492 26.479 14.573 0 26.493-11.846 26.493-26.48V13.262zm-56.67 3.936h-15.41a2.732 2.732 0 0 0-2.73 2.728v28.59c0 12.43 10.118 22.542 22.554 22.542h3.676a30.32 30.32 0 0 1-1.927-2.284h-1.749c-11.176 0-20.269-9.087-20.269-20.258V21.321c0-1.016.825-1.84 1.842-1.84h14.014v-2.284zm75.764 0h-15.41v2.283h14.013c1.018 0 1.842.825 1.842 1.841v27.194c0 11.17-9.092 20.258-20.269 20.258h-1.749a30.293 30.293 0 0 1-1.926 2.284h3.675c12.436 0 22.554-10.112 22.554-22.542v-28.59a2.732 2.732 0 0 0-2.73-2.728zm-75.763 5.965H15.252v25.353c0 8.922 7.09 16.216 15.934 16.56a29.956 29.956 0 0 1-3.762-14.568V23.162zm72.525 0H87.777v27.345a29.96 29.96 0 0 1-3.762 14.568c8.844-.344 15.934-7.638 15.934-16.56V23.162zm-44-2.655c.674-1.367 2.629-1.365 3.303 0l4.16 8.424 9.302 1.351c1.508.219 2.111 2.077 1.02 3.14l-6.73 6.558 1.589 9.259c.258 1.502-1.325 2.648-2.673 1.94l-8.32-4.371-8.32 4.372c-1.349.708-2.929-.44-2.672-1.941l1.59-9.26-6.731-6.557c-1.092-1.063-.487-2.921 1.02-3.14l9.302-1.35zM57.6 25.48l-2.937 5.947c-.268.544-.787.92-1.387 1.007l-6.567.954 4.752 4.63a1.84 1.84 0 0 1 .53 1.629l-1.122 6.537 5.873-3.087a1.844 1.844 0 0 1 1.714 0l5.874 3.087-1.122-6.537a1.84 1.84 0 0 1 .53-1.63l4.752-4.629-6.567-.954a1.842 1.842 0 0 1-1.386-1.007L57.6 25.481z"/>
        <path fill="#1B1F3B" d="M50.561.333a1.842 1.842 0 1 1 0 3.682H21.384A1.12 1.12 0 0 0 20.28 5.12v3.355a1.12 1.12 0 0 0 1.105 1.104h67.232a1.12 1.12 0 0 0 1.105-1.104V5.119a1.12 1.12 0 0 0-1.105-1.104h-29.46a1.841 1.841 0 1 1 0-3.682h29.46c2.64 0 4.79 2.148 4.79 4.787v3.355a4.793 4.793 0 0 1-4.79 4.786h-3.44v.254h15.411a6.419 6.419 0 0 1 6.413 6.41v28.59c0 14.46-11.77 26.224-26.237 26.224h-7.816a30.156 30.156 0 0 1-7.069 3.9l3.892 18.085h14.238a4.793 4.793 0 0 1 4.789 4.786v5.556a1.841 1.841 0 0 1-3.684 0v-5.556a1.12 1.12 0 0 0-1.105-1.104H25.993a1.12 1.12 0 0 0-1.106 1.104v19.704a1.12 1.12 0 0 0 1.106 1.104h58.015a1.12 1.12 0 0 0 1.105-1.104v-5.556a1.841 1.841 0 0 1 3.684 0v5.556a4.793 4.793 0 0 1-4.79 4.786H25.993a4.793 4.793 0 0 1-4.789-4.786V101.51a4.793 4.793 0 0 1 4.79-4.786H40.23l3.892-18.085a30.174 30.174 0 0 1-7.069-3.9h-7.816C14.77 74.738 3 62.974 3 48.514v-28.59c0-3.534 2.877-6.41 6.413-6.41h15.41v-.254h-3.439a4.793 4.793 0 0 1-4.788-4.786V5.12A4.793 4.793 0 0 1 21.384.333zM73.32 109.521a1.841 1.841 0 1 1 0 3.682H36.681a1.841 1.841 0 1 1 0-3.682zM62.353 79.764c-2.296.575-4.82.904-7.353.904a30.56 30.56 0 0 1-7.352-.904l-3.65 16.96h22.004zm19.14-66.503H28.508v37.246c0 14.615 11.902 26.479 26.492 26.479 14.573 0 26.493-11.846 26.493-26.48V13.262zm-56.67 3.936H9.414a2.732 2.732 0 0 0-2.73 2.728v28.59c0 12.43 10.118 22.542 22.554 22.542h3.676a30.32 30.32 0 0 1-1.927-2.284h-1.749c-11.176 0-20.269-9.087-20.269-20.258V21.321c0-1.016.825-1.84 1.842-1.84h14.014v-2.284zm75.764 0h-15.41v2.283H99.19c1.018 0 1.842.825 1.842 1.841v27.194c0 11.17-9.092 20.258-20.269 20.258h-1.749a30.293 30.293 0 0 1-1.926 2.284h3.675c12.436 0 22.554-10.112 22.554-22.542v-28.59a2.732 2.732 0 0 0-2.73-2.728zm-75.763 5.965H12.652v25.353c0 8.922 7.09 16.216 15.934 16.56a29.956 29.956 0 0 1-3.762-14.568V23.162zm72.525 0H85.177v27.345a29.96 29.96 0 0 1-3.762 14.568c8.844-.344 15.934-7.638 15.934-16.56V23.162zm-44-2.655c.674-1.367 2.629-1.365 3.303 0l4.16 8.424 9.302 1.351c1.508.219 2.111 2.077 1.02 3.14l-6.73 6.558 1.589 9.259c.258 1.502-1.325 2.648-2.673 1.94L55 46.809l-8.32 4.372c-1.349.708-2.929-.44-2.672-1.941l1.59-9.26-6.731-6.557c-1.092-1.063-.487-2.921 1.02-3.14l9.302-1.35zM55 25.48l-2.937 5.947c-.268.544-.787.92-1.387 1.007l-6.567.954 4.752 4.63a1.84 1.84 0 0 1 .53 1.629l-1.122 6.537 5.873-3.087a1.844 1.844 0 0 1 1.714 0l5.874 3.087-1.122-6.537a1.84 1.84 0 0 1 .53-1.63l4.752-4.629-6.567-.954a1.842 1.842 0 0 1-1.386-1.007L55 25.481z"/>
    </g>
</svg>
