<svg xmlns="http://www.w3.org/2000/svg" width="130" height="124" viewBox="0 0 130 124">
    <g fill="none" fill-rule="evenodd">
        <path d="M0-6h130v130H0z"/>
        <path fill="#56FFFB" d="M9.237 120.324c1.01 0 1.829.823 1.829 1.838A1.833 1.833 0 0 1 9.236 124H1.83C.82 124 0 123.177 0 122.162c0-1.015.819-1.838 1.83-1.838zm18.85 0c1.01 0 1.83.823 1.83 1.838a1.833 1.833 0 0 1-1.83 1.838h-7.406c-1.01 0-1.83-.823-1.83-1.838 0-1.015.82-1.838 1.83-1.838zm94.884 0c1.01 0 1.829.823 1.829 1.838a1.833 1.833 0 0 1-1.83 1.838h-7.407c-1.01 0-1.829-.823-1.829-1.838 0-1.015.819-1.838 1.83-1.838zm-21.79 0c1.01 0 1.828.823 1.828 1.838A1.833 1.833 0 0 1 101.18 124h-7.408c-1.01 0-1.829-.823-1.829-1.838 0-1.015.82-1.838 1.83-1.838zM48.162 9.601c1.72 0 3.148 1.35 3.252 3.074l.223 3.668c1.106.37 2.182.828 3.215 1.368l2.737-2.358a3.261 3.261 0 0 1 4.424.17l4.653 4.675a3.29 3.29 0 0 1 .135 4.484l-2.426 2.754c.523 1.05.962 2.135 1.313 3.25l3.594.275c1.687.13 3.009 1.563 3.009 3.264v5.473a2.827 2.827 0 0 1 2.449-1.437h4.562a2.83 2.83 0 0 1 2.815 2.66l.223 3.67c.13.053.258.108.385.164l2.748-2.368a2.82 2.82 0 0 1 3.832.145l3.226 3.243c.75.75.99 1.832.707 2.8l14.468 7.895a5.5 5.5 0 0 1 .53-1.62l1.95-3.83c1.376-2.697 4.68-3.768 7.364-2.386l1.508.777a5.45 5.45 0 0 1 2.713 3.204 5.478 5.478 0 0 1-.337 4.193l-1.95 3.829a5.463 5.463 0 0 1-1.745 2.009 8.493 8.493 0 0 1 1.936 5.399v7.192a1.833 1.833 0 0 1-1.83 1.838c-1.01 0-1.83-.823-1.83-1.838v-7.192a4.802 4.802 0 0 0-2.497-4.22l-2.598-1.418-.309-.159c-.103-.054-.2-.114-.299-.173l-18.238-9.952c.19 2.175 1.389 4.206 3.317 5.383l11.947 7.294.043.026 3.789 2.314a1.842 1.842 0 0 1 .613 2.524 1.824 1.824 0 0 1-2.513.617l-1.042-.637-.162 10.458 7.95 3.274v-.759c0-1.015.82-1.837 1.83-1.837 1.01 0 1.829.822 1.829 1.837v3.52l-.003.06-.001.038-.01.096c0 .01-.003.02-.004.029v.005l-.005.04a3.35 3.35 0 0 1-.026.127l-.005.025-.003.009-3.282 13.313c-.098.4-.047.82.144 1.185l7.433 14.203c.298.569.278 1.254-.054 1.805a1.828 1.828 0 0 1-1.566.888h-4.448c-.534 0-1.04-.234-1.388-.64l-11.416-13.355a6.039 6.039 0 0 1-1.14-2.011 1.972 1.972 0 0 0-.09.45l-1.086 13.861a1.833 1.833 0 0 1-1.823 1.695h-4.194a1.833 1.833 0 0 1-1.82-1.649l-1.793-17.355a5.68 5.68 0 0 1 1.03-3.888l10.272-14.349.206-13.288-8.583-5.24a2.81 2.81 0 0 1-2.07 1.12l-3.654.224c-.052.13-.108.259-.164.386l2.359 2.762a2.859 2.859 0 0 1-.148 3.848l-3.224 3.242a2.82 2.82 0 0 1-3.865.117l-2.737-2.435-.177.074-.223 3.669a2.83 2.83 0 0 1-2.815 2.66h-4.562a2.833 2.833 0 0 1-2.81-2.624l-.276-3.622c-.13-.05-.26-.103-.389-.158l-2.739 2.436a2.816 2.816 0 0 1-3.858-.112l-3.23-3.249a2.857 2.857 0 0 1-.15-3.844l2.361-2.764c-.056-.128-.11-.257-.164-.386l-3.651-.224a2.833 2.833 0 0 1-2.647-2.828v-1.008l-2.645-2.353c-.94.475-1.911.88-2.905 1.212l-.222 3.668a3.27 3.27 0 0 1-3.252 3.075h-3.059c-.74 3.619-3.708 6.475-7.482 6.94l-9.34 1.155a4.224 4.224 0 0 1-2.6-.508l-3.706-2.07-.099 7.454 12.473 13.037a5.592 5.592 0 0 1 .86 6.662l-7.697 18.814a1.83 1.83 0 0 1-1.692 1.138h-4.47c-.555 0-1.08-.253-1.428-.688a1.847 1.847 0 0 1-.356-1.552l3.743-16.74-3.085-3.293a1.844 1.844 0 0 1 .08-2.598 1.823 1.823 0 0 1 2.585.078l3.372 3.6c.053.057.103.118.15.181.617.857.78 1.945.444 2.94l-3.219 14.397h.959l7.279-17.793a1.85 1.85 0 0 1 .127-.254 1.912 1.912 0 0 0-.274-2.328l-10.935-11.43L9.037 116.46a1.83 1.83 0 0 1-1.73 1.237H2.573a1.826 1.826 0 0 1-1.373-.623 1.843 1.843 0 0 1-.441-1.45L5.48 78.826 5.6 64.32a9.816 9.816 0 0 1 2.433-6.392l.848-.965c.222-.253.462-.48.712-.692a5.475 5.475 0 0 1-1.03-3.751l.402-4.282a5.468 5.468 0 0 1 1.96-3.719 5.412 5.412 0 0 1 4.002-1.238l1.687.16a5.43 5.43 0 0 1 3.701 1.969 5.482 5.482 0 0 1 1.232 4.02l-.403 4.284a5.473 5.473 0 0 1-1.64 3.42l9.019 5.808a.618.618 0 0 0 .38.084l9.43-1.01-.27-3.573a21.899 21.899 0 0 1-3.235-1.319l-2.742 2.438a3.25 3.25 0 0 1-4.462-.136l-4.652-4.674a3.298 3.298 0 0 1-.169-4.446l2.347-2.75a22.042 22.042 0 0 1-1.362-3.23l-3.651-.223a3.272 3.272 0 0 1-3.06-3.268v-6.61c0-1.7 1.322-3.134 3.01-3.264l3.595-.275c.35-1.115.788-2.202 1.313-3.25l-2.427-2.754a3.29 3.29 0 0 1 .136-4.484l4.652-4.674a3.26 3.26 0 0 1 4.425-.17l2.735 2.358a21.901 21.901 0 0 1 3.546-1.476l.274-3.61c.129-1.696 1.556-3.024 3.248-3.024zm59.77 74.418l-.687 15.894a2.38 2.38 0 0 0 .57 1.657l10.87 12.714h.58l-6.023-11.51a5.373 5.373 0 0 1-.456-3.78l2.904-11.78-7.758-3.195zm-3.809 3.378l-7.029 9.818c-.281.393-.41.878-.36 1.365l1.623 15.704h.853l.953-12.174a5.662 5.662 0 0 1 1.792-3.707l1.763-1.64.405-9.366zm-86.663-6.744l-8.541.116-4.268 33.254h1.352l11.457-33.37zm-4.28-22.19a2.919 2.919 0 0 0-1.555.93l-.848.965a6.124 6.124 0 0 0-1.52 3.992l-.105 12.739 9.082-.124.111-8.4-3.389-1.892a1.844 1.844 0 0 1-.71-2.5 1.824 1.824 0 0 1 2.488-.713l4.312 2.41.06.033 6.354 3.549a.609.609 0 0 0 .374.072l9.342-1.154a5.078 5.078 0 0 0 4.002-2.963l-11.887 1.272c-.94.1-1.899-.12-2.701-.617l-.025-.016-11.16-7.185a2.92 2.92 0 0 0-.378-.207l-1.531-.146c-.107-.01-.21-.03-.315-.045zm65.333-16.527H75.52l-.31 4.062a1.837 1.837 0 0 1-1.317 1.626c-.783.227-1.532.538-2.224.925a1.82 1.82 0 0 1-2.08-.213l-3.075-2.653-2.094 2.107 1.275 1.494.032.036.028.032.015.017 1.33 1.511c.504.572.603 1.399.25 2.075-.025.045-5.604 6.47-5.604 6.47-.11.11-.228.208-.349.3l3.517.215c.76.047 1.414.563 1.637 1.296.22.718.514 1.415.874 2.07.37.672.287 1.504-.21 2.088l-2.64 3.089 2.117 2.13 3.054-2.716a1.824 1.824 0 0 1 2.075-.245c.648.349 1.345.63 2.07.84.735.213 1.261.861 1.32 1.627l.309 4.063h2.994l.249-4.087c.046-.766.56-1.421 1.289-1.646a10.743 10.743 0 0 0 1.91-.796 1.82 1.82 0 0 1 2.076.244l3.052 2.715 2.118-2.13-2.639-3.088a1.845 1.845 0 0 1-.211-2.089c.36-.654.655-1.35.874-2.07a1.833 1.833 0 0 1 1.638-1.295l3.353-.205a10.66 10.66 0 0 1-2.638-3.311l-.69-.053a1.833 1.833 0 0 1-1.616-1.32 10.84 10.84 0 0 0-.84-2.086 1.843 1.843 0 0 1 .244-2.085l2.215-2.514c.112-.225.269-.422.458-.583l-2.088-2.1-3.078 2.653a1.82 1.82 0 0 1-2.078.214 10.777 10.777 0 0 0-2.06-.88 1.836 1.836 0 0 1-1.29-1.645l-.248-4.089zm-1.622 9.02c3.898 0 7.07 3.186 7.07 7.103s-3.172 7.104-7.07 7.104c-3.9 0-7.071-3.187-7.071-7.104 0-3.917 3.172-7.103 7.07-7.103zm0 3.675c-1.882 0-3.413 1.538-3.413 3.428a3.424 3.424 0 0 0 3.413 3.428c1.88 0 3.411-1.538 3.411-3.428s-1.53-3.428-3.411-3.428zM47.787 13.277h-5.83l-.344 4.519a1.834 1.834 0 0 1-1.382 1.643c-1.76.441-3.439 1.14-4.993 2.079a1.82 1.82 0 0 1-2.134-.18l-3.424-2.952-4.122 4.142 3.024 3.432c.522.593.607 1.455.212 2.14a18.36 18.36 0 0 0-1.924 4.764 1.831 1.831 0 0 1-1.636 1.388l-4.497.346v5.857l4.548.279a1.831 1.831 0 0 1 1.657 1.362 18.372 18.372 0 0 0 1.997 4.735 1.845 1.845 0 0 1-.18 2.144l-2.938 3.44 4.123 4.143 3.415-3.039a1.82 1.82 0 0 1 2.13-.213 18.227 18.227 0 0 0 4.742 1.934 1.835 1.835 0 0 1 1.382 1.643l.343 4.518h5.831l.277-4.57c.047-.79.594-1.46 1.355-1.664a18.22 18.22 0 0 0 4.461-1.86 1.822 1.822 0 0 1 2.131.212l3.415 3.039 4.123-4.143-2.937-3.44a1.844 1.844 0 0 1-.18-2.144 18.391 18.391 0 0 0 1.998-4.735 1.83 1.83 0 0 1 1.656-1.362l4.549-.279v-5.857l-4.498-.345a1.832 1.832 0 0 1-1.636-1.389 18.373 18.373 0 0 0-1.924-4.764 1.844 1.844 0 0 1 .213-2.14l3.023-3.432-4.123-4.141-3.423 2.951a1.822 1.822 0 0 1-2.134.18 18.232 18.232 0 0 0-4.714-2.006 1.836 1.836 0 0 1-1.355-1.665l-.277-4.57zm68.096 38.629a1.811 1.811 0 0 0-2.44.79l-1.95 3.828a1.819 1.819 0 0 0 .595 2.337l.546.298 1.153.593c.432.222.922.261 1.384.112.46-.15.836-.47 1.057-.903l1.95-3.829c.222-.432.26-.926.112-1.389a1.806 1.806 0 0 0-.899-1.062zM14.41 46.932a1.816 1.816 0 0 0-1.801 1.65l-.403 4.282a1.825 1.825 0 0 0 1.142 1.866 6.491 6.491 0 0 1 2.432.284 1.818 1.818 0 0 0 1.722-1.647l.403-4.283A1.817 1.817 0 0 0 16.27 47.1l-1.687-.16a1.766 1.766 0 0 0-.173-.008zm30.275-23.02c3.014 0 5.97 1.038 8.321 2.92.79.633.92 1.79.291 2.583-.629.794-1.78.924-2.57.293a9.567 9.567 0 0 0-6.042-2.12c-5.352 0-9.705 4.375-9.705 9.751 0 5.377 4.353 9.752 9.705 9.752 5.351 0 9.706-4.375 9.706-9.752 0-.676-.07-1.351-.206-2.007a1.838 1.838 0 0 1 1.416-2.174c.989-.206 1.958.43 2.165 1.422.187.902.283 1.83.283 2.76 0 7.403-5.995 13.426-13.364 13.426-7.368 0-13.363-6.023-13.363-13.427 0-7.403 5.995-13.427 13.363-13.427zm35.295 5.742c7.95 0 15.247 3.723 19.916 9.945l.291-1.207a1.83 1.83 0 0 1 2.209-1.354 1.839 1.839 0 0 1 1.346 2.22l-1.306 5.414c-.28 1.164-1.438 1.606-2.354 1.318l-5.68-1.383a1.839 1.839 0 0 1 .863-3.573l1.365.333a21.168 21.168 0 0 0-16.65-8.037c-1.01 0-1.829-.823-1.829-1.838 0-1.015.82-1.838 1.83-1.838zm-8.177 12.9a3.273 3.273 0 0 1-1.708 1.373l.961.828c.197-.087.397-.17.599-.248zM41.836.933c1.01 0 1.83.822 1.83 1.837a1.833 1.833 0 0 1-1.83 1.838c-11.297 0-21.511 5.994-27.095 15.583l1.79-.656a1.828 1.828 0 0 1 2.345 1.096 1.84 1.84 0 0 1-1.09 2.356l-6.03 2.213c-.999.367-2.33-.396-2.482-1.471l-2.065-5.682a1.84 1.84 0 0 1 1.09-2.357 1.828 1.828 0 0 1 2.346 1.095l.71 1.952C17.533 7.796 29.064.933 41.835.933z"/>
        <path fill="#E01AC7" d="M14.437 120.324c1.01 0 1.829.823 1.829 1.838a1.833 1.833 0 0 1-1.83 1.838H7.03c-1.01 0-1.829-.823-1.829-1.838 0-1.015.819-1.838 1.83-1.838zm18.85 0c1.01 0 1.83.823 1.83 1.838a1.833 1.833 0 0 1-1.83 1.838h-7.406c-1.01 0-1.83-.823-1.83-1.838 0-1.015.82-1.838 1.83-1.838zm94.884 0c1.01 0 1.829.823 1.829 1.838a1.833 1.833 0 0 1-1.83 1.838h-7.407c-1.01 0-1.829-.823-1.829-1.838 0-1.015.819-1.838 1.83-1.838zm-21.79 0c1.01 0 1.828.823 1.828 1.838A1.833 1.833 0 0 1 106.38 124h-7.408c-1.01 0-1.829-.823-1.829-1.838 0-1.015.82-1.838 1.83-1.838zM53.362 9.601c1.72 0 3.148 1.35 3.252 3.074l.223 3.668c1.106.37 2.182.828 3.215 1.368l2.737-2.358a3.261 3.261 0 0 1 4.424.17l4.653 4.675a3.29 3.29 0 0 1 .135 4.484l-2.426 2.754c.523 1.05.962 2.135 1.313 3.25l3.594.275c1.687.13 3.009 1.563 3.009 3.264v5.473a2.827 2.827 0 0 1 2.449-1.437h4.562a2.83 2.83 0 0 1 2.815 2.66l.223 3.67c.13.053.258.108.385.164l2.748-2.368a2.82 2.82 0 0 1 3.832.145l3.226 3.243c.75.75.99 1.832.707 2.8l14.468 7.895a5.5 5.5 0 0 1 .53-1.62l1.95-3.83c1.376-2.697 4.68-3.768 7.364-2.386l1.508.777a5.45 5.45 0 0 1 2.713 3.204 5.478 5.478 0 0 1-.337 4.193l-1.95 3.829a5.463 5.463 0 0 1-1.745 2.009 8.493 8.493 0 0 1 1.936 5.399v7.192a1.833 1.833 0 0 1-1.83 1.838c-1.01 0-1.83-.823-1.83-1.838v-7.192a4.802 4.802 0 0 0-2.497-4.22l-2.598-1.418-.309-.159c-.103-.054-.2-.114-.299-.173l-18.238-9.952c.19 2.175 1.389 4.206 3.317 5.383l11.947 7.294.043.026 3.789 2.314a1.842 1.842 0 0 1 .613 2.524 1.824 1.824 0 0 1-2.513.617l-1.042-.637-.162 10.458 7.95 3.274v-.759c0-1.015.82-1.837 1.83-1.837 1.01 0 1.829.822 1.829 1.837v3.52l-.003.06-.001.038-.01.096c0 .01-.003.02-.004.029v.005l-.005.04a3.35 3.35 0 0 1-.026.127l-.005.025-.003.009-3.282 13.313c-.098.4-.047.82.144 1.185l7.433 14.203c.298.569.278 1.254-.054 1.805a1.828 1.828 0 0 1-1.566.888h-4.448c-.534 0-1.04-.234-1.388-.64l-11.416-13.355a6.039 6.039 0 0 1-1.14-2.011 1.972 1.972 0 0 0-.09.45l-1.086 13.861a1.833 1.833 0 0 1-1.823 1.695h-4.194a1.833 1.833 0 0 1-1.82-1.649l-1.793-17.355a5.68 5.68 0 0 1 1.03-3.888l10.272-14.349.206-13.288-8.583-5.24a2.81 2.81 0 0 1-2.07 1.12l-3.654.224c-.052.13-.108.259-.164.386l2.359 2.762a2.859 2.859 0 0 1-.148 3.848l-3.224 3.242a2.82 2.82 0 0 1-3.865.117l-2.737-2.435-.177.074-.223 3.669a2.83 2.83 0 0 1-2.815 2.66h-4.562a2.833 2.833 0 0 1-2.81-2.624l-.276-3.622c-.13-.05-.26-.103-.389-.158l-2.739 2.436a2.816 2.816 0 0 1-3.858-.112l-3.23-3.249a2.857 2.857 0 0 1-.15-3.844l2.361-2.764c-.056-.128-.11-.257-.164-.386l-3.651-.224a2.833 2.833 0 0 1-2.647-2.828v-1.008l-2.645-2.353c-.94.475-1.911.88-2.905 1.212l-.222 3.668a3.27 3.27 0 0 1-3.252 3.075h-3.059c-.74 3.619-3.708 6.475-7.482 6.94l-9.34 1.155a4.224 4.224 0 0 1-2.6-.508l-3.706-2.07-.099 7.454 12.473 13.037a5.592 5.592 0 0 1 .86 6.662l-7.697 18.814a1.83 1.83 0 0 1-1.692 1.138h-4.47c-.555 0-1.08-.253-1.428-.688a1.847 1.847 0 0 1-.356-1.552l3.743-16.74-3.085-3.293a1.844 1.844 0 0 1 .08-2.598 1.823 1.823 0 0 1 2.585.078l3.372 3.6c.053.057.103.118.15.181.617.857.78 1.945.444 2.94l-3.219 14.397h.959l7.279-17.793a1.85 1.85 0 0 1 .127-.254 1.912 1.912 0 0 0-.274-2.328l-10.935-11.43-11.757 34.242a1.83 1.83 0 0 1-1.73 1.237H7.773a1.826 1.826 0 0 1-1.373-.623 1.843 1.843 0 0 1-.441-1.45l4.722-36.799.12-14.507a9.816 9.816 0 0 1 2.433-6.392l.848-.965c.222-.253.462-.48.712-.692a5.475 5.475 0 0 1-1.03-3.751l.402-4.282a5.468 5.468 0 0 1 1.96-3.719 5.412 5.412 0 0 1 4.002-1.238l1.687.16a5.43 5.43 0 0 1 3.701 1.969 5.482 5.482 0 0 1 1.232 4.02l-.403 4.284a5.473 5.473 0 0 1-1.64 3.42l9.019 5.808a.618.618 0 0 0 .38.084l9.43-1.01-.27-3.573a21.899 21.899 0 0 1-3.235-1.319l-2.742 2.438a3.25 3.25 0 0 1-4.462-.136l-4.652-4.674a3.298 3.298 0 0 1-.169-4.446l2.347-2.75a22.042 22.042 0 0 1-1.362-3.23l-3.651-.223a3.272 3.272 0 0 1-3.06-3.268v-6.61c0-1.7 1.322-3.134 3.01-3.264l3.595-.275c.35-1.115.788-2.202 1.313-3.25l-2.427-2.754a3.29 3.29 0 0 1 .136-4.484l4.652-4.674a3.26 3.26 0 0 1 4.425-.17l2.735 2.358a21.901 21.901 0 0 1 3.546-1.476l.274-3.61c.129-1.696 1.556-3.024 3.248-3.024zm59.77 74.418l-.687 15.894a2.38 2.38 0 0 0 .57 1.657l10.87 12.714h.58l-6.023-11.51a5.373 5.373 0 0 1-.456-3.78l2.904-11.78-7.758-3.195zm-3.809 3.378l-7.029 9.818c-.281.393-.41.878-.36 1.365l1.623 15.704h.853l.953-12.174a5.662 5.662 0 0 1 1.792-3.707l1.763-1.64.405-9.366zm-86.663-6.744l-8.541.116-4.268 33.254h1.352l11.457-33.37zm-4.28-22.19a2.919 2.919 0 0 0-1.555.93l-.848.965a6.124 6.124 0 0 0-1.52 3.992l-.105 12.739 9.082-.124.111-8.4-3.389-1.892a1.844 1.844 0 0 1-.71-2.5 1.824 1.824 0 0 1 2.488-.713l4.312 2.41.06.033 6.354 3.549a.609.609 0 0 0 .374.072l9.342-1.154a5.078 5.078 0 0 0 4.002-2.963l-11.887 1.272c-.94.1-1.899-.12-2.701-.617l-.025-.016-11.16-7.185a2.92 2.92 0 0 0-.378-.207l-1.531-.146c-.107-.01-.21-.03-.315-.045zm65.333-16.527H80.72l-.31 4.062a1.837 1.837 0 0 1-1.317 1.626c-.783.227-1.532.538-2.224.925a1.82 1.82 0 0 1-2.08-.213l-3.075-2.653-2.094 2.107 1.275 1.494.032.036.028.032.015.017 1.33 1.511c.504.572.603 1.399.25 2.075-.025.045-5.604 6.47-5.604 6.47-.11.11-.228.208-.349.3l3.517.215c.76.047 1.414.563 1.637 1.296.22.718.514 1.415.874 2.07.37.672.287 1.504-.21 2.088l-2.64 3.089 2.117 2.13 3.054-2.716a1.824 1.824 0 0 1 2.075-.245c.648.349 1.345.63 2.07.84.735.213 1.261.861 1.32 1.627l.309 4.063h2.994l.249-4.087c.046-.766.56-1.421 1.289-1.646a10.743 10.743 0 0 0 1.91-.796 1.82 1.82 0 0 1 2.076.244l3.052 2.715 2.118-2.13-2.639-3.088a1.845 1.845 0 0 1-.211-2.089c.36-.654.655-1.35.874-2.07a1.833 1.833 0 0 1 1.638-1.295l3.353-.205a10.66 10.66 0 0 1-2.638-3.311l-.69-.053a1.833 1.833 0 0 1-1.616-1.32 10.84 10.84 0 0 0-.84-2.086 1.843 1.843 0 0 1 .244-2.085l2.215-2.514c.112-.225.269-.422.458-.583l-2.088-2.1-3.078 2.653a1.82 1.82 0 0 1-2.078.214 10.777 10.777 0 0 0-2.06-.88 1.836 1.836 0 0 1-1.29-1.645l-.248-4.089zm-1.622 9.02c3.898 0 7.07 3.186 7.07 7.103s-3.172 7.104-7.07 7.104c-3.9 0-7.071-3.187-7.071-7.104 0-3.917 3.172-7.103 7.07-7.103zm0 3.675c-1.882 0-3.413 1.538-3.413 3.428a3.424 3.424 0 0 0 3.413 3.428c1.88 0 3.411-1.538 3.411-3.428s-1.53-3.428-3.411-3.428zM52.987 13.277h-5.83l-.344 4.519a1.834 1.834 0 0 1-1.382 1.643c-1.76.441-3.439 1.14-4.993 2.079a1.82 1.82 0 0 1-2.134-.18l-3.424-2.952-4.122 4.142 3.024 3.432c.522.593.607 1.455.212 2.14a18.36 18.36 0 0 0-1.924 4.764 1.831 1.831 0 0 1-1.636 1.388l-4.497.346v5.857l4.548.279a1.831 1.831 0 0 1 1.657 1.362 18.372 18.372 0 0 0 1.997 4.735 1.845 1.845 0 0 1-.18 2.144l-2.938 3.44 4.123 4.143 3.415-3.039a1.82 1.82 0 0 1 2.13-.213 18.227 18.227 0 0 0 4.742 1.934 1.835 1.835 0 0 1 1.382 1.643l.343 4.518h5.831l.277-4.57c.047-.79.594-1.46 1.355-1.664a18.22 18.22 0 0 0 4.461-1.86 1.822 1.822 0 0 1 2.131.212l3.415 3.039 4.123-4.143-2.937-3.44a1.844 1.844 0 0 1-.18-2.144 18.391 18.391 0 0 0 1.998-4.735 1.83 1.83 0 0 1 1.656-1.362l4.549-.279v-5.857l-4.498-.345a1.832 1.832 0 0 1-1.636-1.389 18.373 18.373 0 0 0-1.924-4.764 1.844 1.844 0 0 1 .213-2.14l3.023-3.432-4.123-4.141-3.423 2.951a1.822 1.822 0 0 1-2.134.18 18.232 18.232 0 0 0-4.714-2.006 1.836 1.836 0 0 1-1.355-1.665l-.277-4.57zm68.096 38.629a1.811 1.811 0 0 0-2.44.79l-1.95 3.828a1.819 1.819 0 0 0 .595 2.337l.546.298 1.153.593c.432.222.922.261 1.384.112.46-.15.836-.47 1.057-.903l1.95-3.829c.222-.432.26-.926.112-1.389a1.806 1.806 0 0 0-.899-1.062zM19.61 46.932a1.816 1.816 0 0 0-1.801 1.65l-.403 4.282a1.825 1.825 0 0 0 1.142 1.866 6.491 6.491 0 0 1 2.432.284 1.818 1.818 0 0 0 1.722-1.647l.403-4.283A1.817 1.817 0 0 0 21.47 47.1l-1.687-.16a1.766 1.766 0 0 0-.173-.008zm30.275-23.02c3.014 0 5.97 1.038 8.321 2.92.79.633.92 1.79.291 2.583-.629.794-1.78.924-2.57.293a9.567 9.567 0 0 0-6.042-2.12c-5.352 0-9.705 4.375-9.705 9.751 0 5.377 4.353 9.752 9.705 9.752 5.351 0 9.706-4.375 9.706-9.752 0-.676-.07-1.351-.206-2.007a1.838 1.838 0 0 1 1.416-2.174c.989-.206 1.958.43 2.165 1.422.187.902.283 1.83.283 2.76 0 7.403-5.995 13.426-13.364 13.426-7.368 0-13.363-6.023-13.363-13.427 0-7.403 5.995-13.427 13.363-13.427zm35.295 5.742c7.95 0 15.247 3.723 19.916 9.945l.291-1.207a1.83 1.83 0 0 1 2.209-1.354 1.839 1.839 0 0 1 1.346 2.22l-1.306 5.414c-.28 1.164-1.438 1.606-2.354 1.318l-5.68-1.383a1.839 1.839 0 0 1 .863-3.573l1.365.333a21.168 21.168 0 0 0-16.65-8.037c-1.01 0-1.829-.823-1.829-1.838 0-1.015.82-1.838 1.83-1.838zm-8.177 12.9a3.273 3.273 0 0 1-1.708 1.373l.961.828c.197-.087.397-.17.599-.248zM47.036.933c1.01 0 1.83.822 1.83 1.837a1.833 1.833 0 0 1-1.83 1.838c-11.297 0-21.511 5.994-27.095 15.583l1.79-.656a1.828 1.828 0 0 1 2.345 1.096 1.84 1.84 0 0 1-1.09 2.356l-6.03 2.213c-.999.367-2.33-.396-2.482-1.471l-2.065-5.682a1.84 1.84 0 0 1 1.09-2.357 1.828 1.828 0 0 1 2.346 1.095l.71 1.952C22.733 7.796 34.264.933 47.035.933z"/>
        <path fill="#1B1F3B" d="M11.837 120.324c1.01 0 1.829.823 1.829 1.838a1.833 1.833 0 0 1-1.83 1.838H4.43c-1.01 0-1.829-.823-1.829-1.838 0-1.015.819-1.838 1.83-1.838zm18.85 0c1.01 0 1.83.823 1.83 1.838a1.833 1.833 0 0 1-1.83 1.838h-7.406c-1.01 0-1.83-.823-1.83-1.838 0-1.015.82-1.838 1.83-1.838zm94.884 0c1.01 0 1.829.823 1.829 1.838a1.833 1.833 0 0 1-1.83 1.838h-7.407c-1.01 0-1.829-.823-1.829-1.838 0-1.015.819-1.838 1.83-1.838zm-21.79 0c1.01 0 1.828.823 1.828 1.838A1.833 1.833 0 0 1 103.78 124h-7.408c-1.01 0-1.829-.823-1.829-1.838 0-1.015.82-1.838 1.83-1.838zM50.762 9.601c1.72 0 3.148 1.35 3.252 3.074l.223 3.668c1.106.37 2.182.828 3.215 1.368l2.737-2.358a3.261 3.261 0 0 1 4.424.17l4.653 4.675a3.29 3.29 0 0 1 .135 4.484l-2.426 2.754c.523 1.05.962 2.135 1.313 3.25l3.594.275c1.687.13 3.009 1.563 3.009 3.264v5.473a2.827 2.827 0 0 1 2.449-1.437h4.562a2.83 2.83 0 0 1 2.815 2.66l.223 3.67c.13.053.258.108.385.164l2.748-2.368a2.82 2.82 0 0 1 3.832.145l3.226 3.243c.75.75.99 1.832.707 2.8l14.468 7.895a5.5 5.5 0 0 1 .53-1.62l1.95-3.83c1.376-2.697 4.68-3.768 7.364-2.386l1.508.777a5.45 5.45 0 0 1 2.713 3.204 5.478 5.478 0 0 1-.337 4.193l-1.95 3.829a5.463 5.463 0 0 1-1.745 2.009 8.493 8.493 0 0 1 1.936 5.399v7.192a1.833 1.833 0 0 1-1.83 1.838c-1.01 0-1.83-.823-1.83-1.838v-7.192a4.802 4.802 0 0 0-2.497-4.22l-2.598-1.418-.309-.159c-.103-.054-.2-.114-.299-.173l-18.238-9.952c.19 2.175 1.389 4.206 3.317 5.383l11.947 7.294.043.026 3.789 2.314a1.842 1.842 0 0 1 .613 2.524 1.824 1.824 0 0 1-2.513.617l-1.042-.637-.162 10.458 7.95 3.274v-.759c0-1.015.82-1.837 1.83-1.837 1.01 0 1.829.822 1.829 1.837v3.52l-.003.06-.001.038-.01.096c0 .01-.003.02-.004.029v.005l-.005.04a3.35 3.35 0 0 1-.026.127l-.005.025-.003.009-3.282 13.313c-.098.4-.047.82.144 1.185l7.433 14.203c.298.569.278 1.254-.054 1.805a1.828 1.828 0 0 1-1.566.888h-4.448c-.534 0-1.04-.234-1.388-.64l-11.416-13.355a6.039 6.039 0 0 1-1.14-2.011 1.972 1.972 0 0 0-.09.45l-1.086 13.861a1.833 1.833 0 0 1-1.823 1.695h-4.194a1.833 1.833 0 0 1-1.82-1.649l-1.793-17.355a5.68 5.68 0 0 1 1.03-3.888l10.272-14.349.206-13.288-8.583-5.24a2.81 2.81 0 0 1-2.07 1.12l-3.654.224c-.052.13-.108.259-.164.386l2.359 2.762a2.859 2.859 0 0 1-.148 3.848l-3.224 3.242a2.82 2.82 0 0 1-3.865.117l-2.737-2.435-.177.074-.223 3.669a2.83 2.83 0 0 1-2.815 2.66h-4.562a2.833 2.833 0 0 1-2.81-2.624l-.276-3.622c-.13-.05-.26-.103-.389-.158l-2.739 2.436a2.816 2.816 0 0 1-3.858-.112l-3.23-3.249a2.857 2.857 0 0 1-.15-3.844l2.361-2.764c-.056-.128-.11-.257-.164-.386l-3.651-.224a2.833 2.833 0 0 1-2.647-2.828v-1.008l-2.645-2.353c-.94.475-1.911.88-2.905 1.212l-.222 3.668a3.27 3.27 0 0 1-3.252 3.075h-3.059c-.74 3.619-3.708 6.475-7.482 6.94l-9.34 1.155a4.224 4.224 0 0 1-2.6-.508l-3.706-2.07-.099 7.454 12.473 13.037a5.592 5.592 0 0 1 .86 6.662l-7.697 18.814a1.83 1.83 0 0 1-1.692 1.138h-4.47c-.555 0-1.08-.253-1.428-.688a1.847 1.847 0 0 1-.356-1.552l3.743-16.74-3.085-3.293a1.844 1.844 0 0 1 .08-2.598 1.823 1.823 0 0 1 2.585.078l3.372 3.6c.053.057.103.118.15.181.617.857.78 1.945.444 2.94l-3.219 14.397h.959l7.279-17.793a1.85 1.85 0 0 1 .127-.254 1.912 1.912 0 0 0-.274-2.328l-10.935-11.43-11.757 34.242a1.83 1.83 0 0 1-1.73 1.237H5.173a1.826 1.826 0 0 1-1.373-.623 1.843 1.843 0 0 1-.441-1.45L8.08 78.826 8.2 64.32a9.816 9.816 0 0 1 2.433-6.392l.848-.965c.222-.253.462-.48.712-.692a5.475 5.475 0 0 1-1.03-3.751l.402-4.282a5.468 5.468 0 0 1 1.96-3.719 5.412 5.412 0 0 1 4.002-1.238l1.687.16a5.43 5.43 0 0 1 3.701 1.969 5.482 5.482 0 0 1 1.232 4.02l-.403 4.284a5.473 5.473 0 0 1-1.64 3.42l9.019 5.808a.618.618 0 0 0 .38.084l9.43-1.01-.27-3.573a21.899 21.899 0 0 1-3.235-1.319l-2.742 2.438a3.25 3.25 0 0 1-4.462-.136l-4.652-4.674a3.298 3.298 0 0 1-.169-4.446l2.347-2.75a22.042 22.042 0 0 1-1.362-3.23l-3.651-.223a3.272 3.272 0 0 1-3.06-3.268v-6.61c0-1.7 1.322-3.134 3.01-3.264l3.595-.275c.35-1.115.788-2.202 1.313-3.25l-2.427-2.754a3.29 3.29 0 0 1 .136-4.484l4.652-4.674a3.26 3.26 0 0 1 4.425-.17l2.735 2.358a21.901 21.901 0 0 1 3.546-1.476l.274-3.61c.129-1.696 1.556-3.024 3.248-3.024zm59.77 74.418l-.687 15.894a2.38 2.38 0 0 0 .57 1.657l10.87 12.714h.58l-6.023-11.51a5.373 5.373 0 0 1-.456-3.78l2.904-11.78-7.758-3.195zm-3.809 3.378l-7.029 9.818c-.281.393-.41.878-.36 1.365l1.623 15.704h.853l.953-12.174a5.662 5.662 0 0 1 1.792-3.707l1.763-1.64.405-9.366zm-86.663-6.744l-8.541.116-4.268 33.254h1.352l11.457-33.37zm-4.28-22.19a2.919 2.919 0 0 0-1.555.93l-.848.965a6.124 6.124 0 0 0-1.52 3.992l-.105 12.739 9.082-.124.111-8.4-3.389-1.892a1.844 1.844 0 0 1-.71-2.5 1.824 1.824 0 0 1 2.488-.713l4.312 2.41.06.033 6.354 3.549a.609.609 0 0 0 .374.072l9.342-1.154a5.078 5.078 0 0 0 4.002-2.963l-11.887 1.272c-.94.1-1.899-.12-2.701-.617l-.025-.016-11.16-7.185a2.92 2.92 0 0 0-.378-.207l-1.531-.146c-.107-.01-.21-.03-.315-.045zm65.333-16.527H78.12l-.31 4.062a1.837 1.837 0 0 1-1.317 1.626c-.783.227-1.532.538-2.224.925a1.82 1.82 0 0 1-2.08-.213l-3.075-2.653-2.094 2.107 1.275 1.494.032.036.028.032.015.017 1.33 1.511c.504.572.603 1.399.25 2.075-.025.045-5.604 6.47-5.604 6.47-.11.11-.228.208-.349.3l3.517.215c.76.047 1.414.563 1.637 1.296.22.718.514 1.415.874 2.07.37.672.287 1.504-.21 2.088l-2.64 3.089 2.117 2.13 3.054-2.716a1.824 1.824 0 0 1 2.075-.245c.648.349 1.345.63 2.07.84.735.213 1.261.861 1.32 1.627l.309 4.063h2.994l.249-4.087c.046-.766.56-1.421 1.289-1.646a10.743 10.743 0 0 0 1.91-.796 1.82 1.82 0 0 1 2.076.244l3.052 2.715 2.118-2.13-2.639-3.088a1.845 1.845 0 0 1-.211-2.089c.36-.654.655-1.35.874-2.07a1.833 1.833 0 0 1 1.638-1.295l3.353-.205a10.66 10.66 0 0 1-2.638-3.311l-.69-.053a1.833 1.833 0 0 1-1.616-1.32 10.84 10.84 0 0 0-.84-2.086 1.843 1.843 0 0 1 .244-2.085l2.215-2.514c.112-.225.269-.422.458-.583l-2.088-2.1-3.078 2.653a1.82 1.82 0 0 1-2.078.214 10.777 10.777 0 0 0-2.06-.88 1.836 1.836 0 0 1-1.29-1.645l-.248-4.089zm-1.622 9.02c3.898 0 7.07 3.186 7.07 7.103s-3.172 7.104-7.07 7.104c-3.9 0-7.071-3.187-7.071-7.104 0-3.917 3.172-7.103 7.07-7.103zm0 3.675c-1.882 0-3.413 1.538-3.413 3.428a3.424 3.424 0 0 0 3.413 3.428c1.88 0 3.411-1.538 3.411-3.428s-1.53-3.428-3.411-3.428zM50.387 13.277h-5.83l-.344 4.519a1.834 1.834 0 0 1-1.382 1.643c-1.76.441-3.439 1.14-4.993 2.079a1.82 1.82 0 0 1-2.134-.18l-3.424-2.952-4.122 4.142 3.024 3.432c.522.593.607 1.455.212 2.14a18.36 18.36 0 0 0-1.924 4.764 1.831 1.831 0 0 1-1.636 1.388l-4.497.346v5.857l4.548.279a1.831 1.831 0 0 1 1.657 1.362 18.372 18.372 0 0 0 1.997 4.735 1.845 1.845 0 0 1-.18 2.144l-2.938 3.44 4.123 4.143 3.415-3.039a1.82 1.82 0 0 1 2.13-.213 18.227 18.227 0 0 0 4.742 1.934 1.835 1.835 0 0 1 1.382 1.643l.343 4.518h5.831l.277-4.57c.047-.79.594-1.46 1.355-1.664a18.22 18.22 0 0 0 4.461-1.86 1.822 1.822 0 0 1 2.131.212l3.415 3.039 4.123-4.143-2.937-3.44a1.844 1.844 0 0 1-.18-2.144 18.391 18.391 0 0 0 1.998-4.735 1.83 1.83 0 0 1 1.656-1.362l4.549-.279v-5.857l-4.498-.345a1.832 1.832 0 0 1-1.636-1.389 18.373 18.373 0 0 0-1.924-4.764 1.844 1.844 0 0 1 .213-2.14l3.023-3.432-4.123-4.141-3.423 2.951a1.822 1.822 0 0 1-2.134.18 18.232 18.232 0 0 0-4.714-2.006 1.836 1.836 0 0 1-1.355-1.665l-.277-4.57zm68.096 38.629a1.811 1.811 0 0 0-2.44.79l-1.95 3.828a1.819 1.819 0 0 0 .595 2.337l.546.298 1.153.593c.432.222.922.261 1.384.112.46-.15.836-.47 1.057-.903l1.95-3.829c.222-.432.26-.926.112-1.389a1.806 1.806 0 0 0-.899-1.062zM17.01 46.932a1.816 1.816 0 0 0-1.801 1.65l-.403 4.282a1.825 1.825 0 0 0 1.142 1.866 6.491 6.491 0 0 1 2.432.284 1.818 1.818 0 0 0 1.722-1.647l.403-4.283A1.817 1.817 0 0 0 18.87 47.1l-1.687-.16a1.766 1.766 0 0 0-.173-.008zm30.275-23.02c3.014 0 5.97 1.038 8.321 2.92.79.633.92 1.79.291 2.583-.629.794-1.78.924-2.57.293a9.567 9.567 0 0 0-6.042-2.12c-5.352 0-9.705 4.375-9.705 9.751 0 5.377 4.353 9.752 9.705 9.752 5.351 0 9.706-4.375 9.706-9.752 0-.676-.07-1.351-.206-2.007a1.838 1.838 0 0 1 1.416-2.174c.989-.206 1.958.43 2.165 1.422.187.902.283 1.83.283 2.76 0 7.403-5.995 13.426-13.364 13.426-7.368 0-13.363-6.023-13.363-13.427 0-7.403 5.995-13.427 13.363-13.427zm35.295 5.742c7.95 0 15.247 3.723 19.916 9.945l.291-1.207a1.83 1.83 0 0 1 2.209-1.354 1.839 1.839 0 0 1 1.346 2.22l-1.306 5.414c-.28 1.164-1.438 1.606-2.354 1.318l-5.68-1.383a1.839 1.839 0 0 1 .863-3.573l1.365.333a21.168 21.168 0 0 0-16.65-8.037c-1.01 0-1.829-.823-1.829-1.838 0-1.015.82-1.838 1.83-1.838zm-8.177 12.9a3.273 3.273 0 0 1-1.708 1.373l.961.828c.197-.087.397-.17.599-.248zM44.436.933c1.01 0 1.83.822 1.83 1.837a1.833 1.833 0 0 1-1.83 1.838c-11.297 0-21.511 5.994-27.095 15.583l1.79-.656a1.828 1.828 0 0 1 2.345 1.096 1.84 1.84 0 0 1-1.09 2.356l-6.03 2.213c-.999.367-2.33-.396-2.482-1.471l-2.065-5.682a1.84 1.84 0 0 1 1.09-2.357 1.828 1.828 0 0 1 2.346 1.095l.71 1.952C20.133 7.796 31.664.933 44.435.933z"/>
    </g>
</svg>
