<svg xmlns="http://www.w3.org/2000/svg" width="30" height="30" viewBox="0 0 30 30">
    <g fill="none" fill-rule="evenodd">
        <ellipse cx="14.938" cy="15" fill="#454ADE" rx="14.938" ry="15"/>
        <path fill="#FFF" fill-rule="nonzero" d="M11.839 10.863c-.59 0-1.02.38-1.02.903 0 .524.44.92 1.02.92.59 0 1.019-.387 1.019-.931-.028-.525-.448-.892-1.02-.892zM10.988 13.054c-.093 0-.17.082-.17.183v5.3c0 .1.077.183.17.183h1.701c.094 0 .17-.082.17-.183v-5.3c0-.1-.076-.183-.17-.183h-1.7zM13.54 13.054c-.094 0-.17.082-.17.183v5.3c0 .1.076.183.17.183h1.53c.094 0 .17-.082.17-.183V15.704c0-.433.31-.786.705-.819.02-.003.04-.003.061-.003.02 0 .04 0 .061.003.395.033.705.386.705.82v2.832c0 .101.076.183.17.183h1.53c.094 0 .17-.082.17-.183V15.43c0-1.182-.59-2.376-1.906-2.376-.599 0-1.051.249-1.325.455v-.272c0-.1-.077-.183-.17-.183H13.54z"/>
    </g>
</svg>
