<svg xmlns="http://www.w3.org/2000/svg" width="24" height="24" viewBox="0 0 24 24">
    <path fill="#FFF" fill-rule="evenodd" d="M12 0c6.627 0 12 5.373 12 12s-5.373 12-12 12S0 18.627 0 12 5.373 0 12 0zm1.746 9.657c-.777 0-1.407.647-1.407 1.443 0 .113.012.224.037.329a3.963 3.963 0 0 1-2.9-1.509c-.121.214-.19.462-.19.727 0 .5.248.942.626 1.2a1.368 1.368 0 0 1-.638-.18v.018c0 .7.485 1.282 1.128 1.415a1.362 1.362 0 0 1-.635.025c.18.572.698.99 1.314 1.001a2.771 2.771 0 0 1-2.082.598 3.91 3.91 0 0 0 2.156.648c2.588 0 4.003-2.199 4.003-4.104 0-.064-.001-.126-.004-.188.275-.202.514-.456.702-.746a2.771 2.771 0 0 1-.808.227c.29-.179.514-.461.618-.798a2.775 2.775 0 0 1-.893.35 1.388 1.388 0 0 0-1.027-.456z"/>
</svg>
