<svg xmlns="http://www.w3.org/2000/svg" width="97" height="94" viewBox="0 0 97 94">
    <g fill="none" fill-rule="evenodd">
        <path d="M-2-6H98V94H-2z"/>
        <path fill="#FFF" d="M95.25 91.154h-2.898V38.867c0-2.536-2.054-4.6-4.579-4.6h-10.69c-2.525 0-4.579 2.064-4.579 4.6v13.58l-5.149-11.81 4.275-4.694a8.398 8.398 0 0 0 1.424-9.169l-.954-2.079-1.611-4.047a1.414 1.414 0 0 0-1.842-.793 1.424 1.424 0 0 0-.79 1.85l1.088 2.73-3.864 1.456-1.59.599-1.199.452-3.775-8.586 1.077-.431a1.425 1.425 0 0 0 .792-1.849 1.415 1.415 0 0 0-1.841-.795l-15.319 6.133a2.995 2.995 0 0 1-2.32-.025 3.022 3.022 0 0 1-.852-.55l19.23-9.039c.077-.031.153-.066.23-.102l.48-.232a3.304 3.304 0 0 1 2.578-.096c.838.316 1.502.94 1.87 1.76l1.362 3.42a1.416 1.416 0 0 0 1.842.793 1.425 1.425 0 0 0 .79-1.85l-1.373-3.447-.02-.049a6.144 6.144 0 0 0-4.113-3.493 4.266 4.266 0 0 0-.237-3.066l-1.437-3.013a4.223 4.223 0 0 0-2.42-2.18A4.203 4.203 0 0 0 55.59.42l-1.187.571c-2.11 1.017-3.005 3.569-1.993 5.69l1.437 3.013c.205.43.478.81.8 1.142l-17.28 8.122a1.426 1.426 0 0 0-.715 1.818 5.843 5.843 0 0 0 3.139 3.228 5.836 5.836 0 0 0 2.306.478 5.84 5.84 0 0 0 2.182-.426l11.603-4.646 3.968 9.025-9.152 9.33a4.346 4.346 0 0 0-.62 5.285l6.69 11.111a4.595 4.595 0 0 0-1.276 3.181v8.597a4.538 4.538 0 0 0-1.745-.348h-10.69c-2.524 0-4.578 2.063-4.578 4.599v4.22a4.538 4.538 0 0 0-1.745-.348h-5.756l1.051-8.542a4.875 4.875 0 0 0-2.109-4.652l-7.805-5.29-.156-10.031 8.635-5.271c3.132-1.911 4.64-5.724 3.668-9.274a1.414 1.414 0 0 0-2.043-.873l-12.668 6.913a4.288 4.288 0 0 0-.412-1.262l-1.516-2.974a4.225 4.225 0 0 0-2.477-2.115 4.203 4.203 0 0 0-3.24.263l-1.17.602c-2.084 1.073-2.912 3.647-1.845 5.74l1.517 2.974c.323.635.79 1.167 1.357 1.562a6.59 6.59 0 0 0-1.506 4.194v3.919a1.42 1.42 0 0 0 1.417 1.423 1.42 1.42 0 0 0 1.418-1.423v-3.919c0-1.37.744-2.628 1.942-3.282l16.666-9.092a5.463 5.463 0 0 1-2.58 4.192l-9.28 5.666-.034.02-2.943 1.798a1.427 1.427 0 0 0-.475 1.955 1.413 1.413 0 0 0 1.946.476l.816-.497.126 8.133-5.265 2.169-.92.378v-1.07a1.42 1.42 0 0 0-1.417-1.424 1.42 1.42 0 0 0-1.417 1.423v3.192c0 .114.015.232.042.342l2.552 10.348c.076.312.037.64-.112.924l-5.59 10.679a4.605 4.605 0 0 0-2.697 4.19v4.607H1.417A1.42 1.42 0 0 0 0 92.577 1.42 1.42 0 0 0 1.417 94H95.25a1.42 1.42 0 0 0 1.417-1.423 1.42 1.42 0 0 0-1.417-1.423zM57.209 9.19a1.407 1.407 0 0 1-.806-.725l-1.437-3.013a1.424 1.424 0 0 1 .663-1.893l1.186-.571a1.4 1.4 0 0 1 1.08-.06c.356.126.642.384.805.726l1.438 3.014c.336.705.039 1.554-.663 1.892l-.678.327-.005.002-.628.295a1.399 1.399 0 0 1-.955.006zm-45.182 24.9l1.17-.602a1.41 1.41 0 0 1 1.903.616l1.516 2.974a1.422 1.422 0 0 1-.465 1.82l-.424.232-.895.46c-.336.173-.719.204-1.078.087a1.403 1.403 0 0 1-.824-.704L11.414 36a1.423 1.423 0 0 1 .613-1.909zm57.511-.068l-4.515 4.957a2.294 2.294 0 0 0-.386 2.52l4.903 11.245h-.588L60.157 40.73l-.018-.025-.059-.08a1.042 1.042 0 0 0-.043-.056.87.87 0 0 1-.16-.785l2.826-9.957 2.003-.755 5.356-2.018.417.91a5.548 5.548 0 0 1-.94 6.058zM62.86 52.744l-3.041-7.672 5.615 7.672H62.86zM52.716 39.762l5.937-6.05-1.502 5.292a3.723 3.723 0 0 0 .162 2.488l-.46.637c-.505.7-.617 1.6-.298 2.407l3.255 8.208h-.584l-6.722-11.166a1.494 1.494 0 0 1 .212-1.816zm-23.499 25.41l-1.094 8.891h-.72l-.728-7.43a2.876 2.876 0 0 0-1.716-2.364l-2.536-1.098-.175-4.069 6.088 4.126c.638.431.975 1.176.881 1.944zm-7.75 13.49v3.635a4.538 4.538 0 0 0-1.745-.349H14.76l6.86-8.022a4.7 4.7 0 0 0 1.127-3.268l-.187-4.329 1.276.553c.01.004.016.013.018.026l.724 7.399a4.605 4.605 0 0 0-3.111 4.355zm-6.218-5.66a4.167 4.167 0 0 0 .354-2.933l-2.257-9.154 1.608-.663 4.428-1.823.534 12.352c.02.473-.138.931-.445 1.291l-8.446 9.876h-.459l4.683-8.946zM7.29 86.547a1.75 1.75 0 0 1 1.744-1.752h10.689a1.75 1.75 0 0 1 1.745 1.752v4.607H7.288v-4.607zm17.012 0v-7.885a1.75 1.75 0 0 1 1.745-1.753h10.688a1.75 1.75 0 0 1 1.745 1.753v12.492H24.3v-4.607zm17.012-7.885V70.19c0-.967.783-1.753 1.746-1.753h10.688a1.75 1.75 0 0 1 1.745 1.753v20.963H41.313V78.662zm34.026 12.492V71.209a1.42 1.42 0 0 0-1.417-1.423 1.42 1.42 0 0 0-1.418 1.423v19.945H58.326v-33.81a1.75 1.75 0 0 1 1.745-1.754h10.688a1.75 1.75 0 0 1 1.745 1.753v6.791a1.42 1.42 0 0 0 1.417 1.423 1.42 1.42 0 0 0 1.418-1.423V38.867a1.75 1.75 0 0 1 1.744-1.753h10.69a1.75 1.75 0 0 1 1.744 1.753v52.287H75.339z"/>
    </g>
</svg>
