<svg xmlns="http://www.w3.org/2000/svg" width="91" height="100" viewBox="0 0 91 100">
    <g fill="none" fill-rule="evenodd">
        <path d="M-5 0H95v100H-5z"/>
        <path fill="#FFF" d="M89.608 13.443L85.335 9.68l4.273-3.762c.664-.586.892-1.5.58-2.328a2.094 2.094 0 0 0-1.974-1.365H70.531v-.76a1.466 1.466 0 1 0-2.932 0v19.767l-12.036 6.536a4.637 4.637 0 0 0-.477-1.54l-1.696-3.31a4.637 4.637 0 0 0-6.233-2.012l-1.311.671a4.602 4.602 0 0 0-2.297 2.701 4.598 4.598 0 0 0 .286 3.533l1.696 3.312a4.603 4.603 0 0 0 1.669 1.814c-.9 1.212-1.328 2.703-1.767 4.252l-.316 1.118a1.465 1.465 0 1 0 2.82.797l.317-1.116c.642-2.265 1.036-3.478 2.292-4.16l2.252-1.223.277-.142c.093-.047.179-.1.267-.153l16.046-8.714a6.203 6.203 0 0 1-2.959 4.98l-10.435 6.34a.555.555 0 0 0-.036.022l-3.247 1.973a1.467 1.467 0 0 0 1.4 2.571l-2.464 7.45-1.801.738-4.898 2.007 1.411-4.99a1.467 1.467 0 0 0-2.821-.797l-2.23 7.886a1.407 1.407 0 0 0-.053.319l-.584 10.72c-.017.41.07 1.183-.12 1.582L34.07 78.033h-4.71a5.01 5.01 0 0 0-5.005 5.004v4.23a4.964 4.964 0 0 0-2.072-.45H10.321a5.009 5.009 0 0 0-5.003 5.003v5.249h-3.52a1.466 1.466 0 1 0 0 2.931h86.415a1.466 1.466 0 1 0 0-2.931H84.4V59.292a5.01 5.01 0 0 0-5.003-5.004H70.53V28.72c1.625-2.203 2.227-5.09 1.472-7.833a1.463 1.463 0 0 0-1.472-1.076v-2.675h17.682c.887 0 1.661-.536 1.974-1.365a2.095 2.095 0 0 0-.58-2.328zm-43.27 11.736c.14-.433.44-.786.844-.992l1.311-.672a1.702 1.702 0 0 1 2.288.738l1.697 3.312c.396.774.14 1.711-.565 2.185l-.477.259-1.008.516a1.702 1.702 0 0 1-2.288-.738l-1.697-3.311a1.69 1.69 0 0 1-.104-1.297zm-2.944 53.305a4.975 4.975 0 0 0-1.61-.428l1.61-2.137v2.565zm6.958-11.81c.705-.844.9-1.83 1.057-2.625.04-.19.763-4.14.763-4.14s.684.427.756.457c.05.022.085.071.09.128l.797 8.105h-4.911l1.448-1.924zm8.667-8.089l-1.237 10.007H56.76l-.824-8.385a3.088 3.088 0 0 0-1.727-2.478l-1.474-.934.982-5.442s4.137 4.914 4.233 5.039c.856 1.113 1.149 1.559 1.07 2.193zm-15.83 7.093a7.945 7.945 0 0 0 .41-2.72l.532-9.778 6.78-2.778-1.233 6.825a.71.71 0 0 0-.01.056l-1.02 5.643c-.132.585-.248 1.471-.613 1.953l-9.903 13.154h-.817l5.873-12.355zM8.248 91.82c0-1.142.93-2.071 2.072-2.071h11.962c1.143 0 2.073.929 2.073 2.071v5.25H8.249v-5.25zm19.037 0v-8.782c0-1.143.93-2.072 2.073-2.072h11.962c1.143 0 2.073.929 2.073 2.072v14.032H27.287v-5.25zM81.47 59.292v37.777H65.363V88.28a1.466 1.466 0 1 0-2.932 0v8.788H46.325V73.602c0-1.143.93-2.072 2.072-2.072h11.962c1.143 0 2.072.93 2.072 2.072v7.347a1.466 1.466 0 1 0 2.931 0V59.292c0-1.143.93-2.072 2.073-2.072h11.962c1.143 0 2.073.93 2.073 2.072zm-14.035-5.004a5.01 5.01 0 0 0-5.003 5.004v9.758a4.961 4.961 0 0 0-1.699-.436l1.195-9.668c.235-1.884-.726-3.133-1.655-4.342-.099-.128-5.795-6.892-5.795-6.892l3.495-10.567 9.626-5.848v22.991h-.164zm3.096-40.084V5.157h15.505l-3.34 2.94a2.11 2.11 0 0 0 0 3.167l3.34 2.94H70.53z"/>
    </g>
</svg>
