<svg xmlns="http://www.w3.org/2000/svg" width="80" height="97" viewBox="0 0 80 97">
    <g fill="none" fill-rule="evenodd">
        <path d="M-10-3H90V97H-10z"/>
        <path fill="#FFF" d="M36.586.333a1.417 1.417 0 1 1 0 2.833H14.142c-.46 0-.85.389-.85.85v2.58c0 .46.39.85.85.85h51.717c.46 0 .85-.39.85-.85V4.015c0-.46-.39-.85-.85-.85H43.198a1.416 1.416 0 1 1 0-2.832h22.66a3.687 3.687 0 0 1 3.684 3.682v2.58a3.687 3.687 0 0 1-3.683 3.683h-2.646v.195h11.854A4.937 4.937 0 0 1 80 15.403v21.993c0 11.123-9.054 20.172-20.182 20.172h-6.013a23.197 23.197 0 0 1-5.437 3l2.994 13.912h10.952a3.687 3.687 0 0 1 3.684 3.682v4.274a1.416 1.416 0 0 1-2.834 0v-4.274c0-.46-.39-.85-.85-.85H17.687c-.461 0-.85.39-.85.85v15.156c0 .46.389.85.85.85h44.627c.46 0 .85-.39.85-.85v-4.274a1.416 1.416 0 0 1 2.834 0v4.274A3.687 3.687 0 0 1 62.314 97H17.686a3.687 3.687 0 0 1-3.683-3.682V78.162a3.687 3.687 0 0 1 3.683-3.682H28.64l2.993-13.912a23.21 23.21 0 0 1-5.437-3h-6.013C9.054 57.568 0 48.519 0 37.396V15.404a4.938 4.938 0 0 1 4.933-4.93h11.855v-.196h-2.646a3.687 3.687 0 0 1-3.684-3.682v-2.58A3.687 3.687 0 0 1 14.142.332zm17.506 83.991a1.416 1.416 0 1 1 0 2.832H25.909a1.416 1.416 0 1 1 0-2.832zm-8.436-22.89a23.54 23.54 0 0 1-5.656.695c-1.964 0-3.9-.256-5.655-.695L31.537 74.48h16.926zM60.38 10.278H19.621v28.65c0 11.243 9.156 20.369 20.38 20.369 11.21 0 20.378-9.112 20.378-20.369v-28.65zm-43.591 3.027H4.933c-1.157 0-2.1.942-2.1 2.099v21.992c0 9.561 7.783 17.34 17.35 17.34h2.827a23.323 23.323 0 0 1-1.482-1.756h-1.345c-8.598 0-15.592-6.991-15.592-15.584V16.478c0-.782.634-1.416 1.417-1.416h10.78v-1.757zm58.28 0H63.212v1.757h10.78c.782 0 1.416.634 1.416 1.416v20.918c0 8.593-6.994 15.583-15.591 15.583h-1.345c-.466.61-.96 1.196-1.483 1.757h2.828c9.566 0 17.349-7.779 17.349-17.34V15.404a2.102 2.102 0 0 0-2.1-2.099zm-58.28 4.589H7.425v19.502c0 6.863 5.453 12.474 12.256 12.739a23.043 23.043 0 0 1-2.893-11.206V17.894zm55.788 0h-9.363v21.034c0 4.062-1.05 7.883-2.893 11.207 6.802-.265 12.256-5.876 12.256-12.739V17.894zM38.73 15.851c.519-1.05 2.022-1.05 2.54 0l3.2 6.48 7.156 1.04c1.16.168 1.624 1.598.785 2.415l-5.177 5.044 1.222 7.123c.198 1.155-1.02 2.037-2.056 1.493L40 36.083l-6.4 3.363c-1.038.545-2.253-.339-2.055-1.493l1.222-7.123-5.177-5.044c-.84-.818-.375-2.247.785-2.415l7.155-1.04zM40 19.678l-2.258 4.575a1.416 1.416 0 0 1-1.067.774l-5.052.734 3.656 3.56c.333.326.486.795.407 1.254l-.863 5.029 4.518-2.374a1.418 1.418 0 0 1 1.319 0l4.518 2.374-.863-5.029c-.079-.459.073-.928.407-1.253l3.656-3.561-5.052-.734a1.417 1.417 0 0 1-1.066-.774L40 19.678z"/>
    </g>
</svg>
