<svg xmlns="http://www.w3.org/2000/svg" width="96" height="95" viewBox="0 0 96 95">
    <g fill="none" fill-rule="evenodd">
        <path d="M-2-5H98V95H-2z"/>
        <path fill="#56FFFB" d="M7.105 92.173a1.41 1.41 0 0 1 1.407 1.413c0 .781-.63 1.414-1.407 1.414H1.407A1.41 1.41 0 0 1 0 93.586c0-.78.63-1.413 1.407-1.413zm14.5 0a1.41 1.41 0 0 1 1.408 1.413c0 .781-.63 1.414-1.407 1.414h-5.698a1.41 1.41 0 0 1-1.408-1.414c0-.78.631-1.413 1.408-1.413zm72.988 0A1.41 1.41 0 0 1 96 93.586c0 .781-.63 1.414-1.407 1.414h-5.698a1.41 1.41 0 0 1-1.407-1.414c0-.78.63-1.413 1.407-1.413zm-16.762 0a1.41 1.41 0 0 1 1.407 1.413c0 .781-.63 1.414-1.407 1.414h-5.698a1.41 1.41 0 0 1-1.407-1.414c0-.78.63-1.413 1.407-1.413zM37.049 7a2.514 2.514 0 0 1 2.501 2.365l.171 2.821c.852.284 1.68.637 2.474 1.053l2.105-1.814a2.509 2.509 0 0 1 3.403.13l3.579 3.596c.935.94.98 2.455.104 3.45L49.52 20.72c.403.807.74 1.642 1.01 2.5l2.765.212a2.525 2.525 0 0 1 2.314 2.51v4.21a2.175 2.175 0 0 1 1.884-1.105h3.51c1.143 0 2.094.898 2.165 2.045l.171 2.825c.1.04.199.082.296.126l2.115-1.822a2.17 2.17 0 0 1 2.947.111l2.481 2.495c.578.576.762 1.41.544 2.153l11.13 6.074c.07-.43.204-.849.407-1.247l1.5-2.945a4.204 4.204 0 0 1 5.665-1.836l1.16.597c1 .515 1.742 1.39 2.087 2.466a4.214 4.214 0 0 1-.26 3.225l-1.5 2.945a4.202 4.202 0 0 1-1.342 1.546 6.533 6.533 0 0 1 1.49 4.152v5.533c0 .78-.63 1.413-1.408 1.413a1.41 1.41 0 0 1-1.408-1.413v-5.533c0-1.355-.736-2.599-1.92-3.246l-1.999-1.09-.238-.122c-.079-.042-.154-.088-.23-.134l-14.03-7.655a5.406 5.406 0 0 0 2.552 4.14l9.19 5.611.034.02 2.914 1.78c.664.406.875 1.275.472 1.942-.404.668-1.27.88-1.933.475l-.802-.49-.125 8.045 6.116 2.518v-.584c0-.78.63-1.413 1.407-1.413a1.41 1.41 0 0 1 1.407 1.413v2.662c0 .03 0 .06-.002.091v.03l-.008.074-.003.022-.004.035a2.576 2.576 0 0 1-.02.098l-.004.019-.002.006-2.525 10.241c-.075.308-.036.631.11.912l5.718 10.925c.23.438.214.965-.04 1.389a1.406 1.406 0 0 1-1.206.683h-3.42c-.412 0-.801-.18-1.069-.493L80.802 79.59a4.645 4.645 0 0 1-.877-1.548c-.036.111-.06.227-.07.346L79.02 89.05a1.41 1.41 0 0 1-1.402 1.304H74.39a1.41 1.41 0 0 1-1.4-1.268l-1.378-13.35a4.369 4.369 0 0 1 .791-2.991l7.902-11.038.159-10.221-6.602-4.03c-.37.49-.94.82-1.593.86l-2.81.172c-.041.1-.084.2-.127.298l1.814 2.124a2.2 2.2 0 0 1-.113 2.96l-2.48 2.494a2.17 2.17 0 0 1-2.973.09l-2.106-1.873-.136.056-.171 2.823a2.177 2.177 0 0 1-2.165 2.045h-3.51a2.18 2.18 0 0 1-2.162-2.017l-.212-2.787c-.1-.039-.2-.079-.299-.12l-2.107 1.873a2.166 2.166 0 0 1-2.968-.086l-2.485-2.5a2.198 2.198 0 0 1-.114-2.956l1.816-2.126a15.044 15.044 0 0 1-.126-.298l-2.81-.172a2.179 2.179 0 0 1-2.035-2.175v-.776l-2.035-1.81c-.724.366-1.47.677-2.235.933l-.17 2.821a2.515 2.515 0 0 1-2.501 2.366h-2.354c-.569 2.783-2.852 4.98-5.755 5.339l-7.185.888a3.25 3.25 0 0 1-2-.391l-2.85-1.593-.076 5.735 9.594 10.028a4.301 4.301 0 0 1 .662 5.124l-5.921 14.473c-.217.53-.731.875-1.302.875h-3.438c-.427 0-.832-.195-1.1-.53a1.421 1.421 0 0 1-.273-1.193l2.88-12.878-2.373-2.532a1.419 1.419 0 0 1 .06-1.999 1.402 1.402 0 0 1 1.99.06l2.593 2.77c.041.043.08.09.115.14.475.658.6 1.495.342 2.26l-2.476 11.075h.738L24.52 73.64c.027-.067.06-.132.097-.195a1.47 1.47 0 0 0-.21-1.791l-8.412-8.793L6.951 89.2c-.195.57-.73.953-1.33.953H1.978c-.404 0-.79-.176-1.056-.48a1.418 1.418 0 0 1-.339-1.115L4.215 60.25l.092-11.16a7.55 7.55 0 0 1 1.872-4.917l.652-.742c.171-.194.356-.37.548-.532a4.212 4.212 0 0 1-.792-2.886l.31-3.293a4.206 4.206 0 0 1 1.507-2.86 4.163 4.163 0 0 1 3.078-.953l1.298.123c1.12.106 2.13.644 2.847 1.514a4.217 4.217 0 0 1 .948 3.093l-.31 3.295a4.21 4.21 0 0 1-1.262 2.631l6.937 4.467a.475.475 0 0 0 .293.065l7.254-.777-.208-2.748c-.854-.27-1.686-.61-2.488-1.015l-2.11 1.875a2.5 2.5 0 0 1-3.432-.104L17.67 41.73a2.537 2.537 0 0 1-.13-3.42l1.806-2.114c-.414-.8-.764-1.63-1.047-2.486l-2.809-.171a2.517 2.517 0 0 1-2.353-2.514v-5.084a2.525 2.525 0 0 1 2.314-2.511l2.766-.212c.269-.857.606-1.693 1.01-2.5l-1.867-2.118a2.53 2.53 0 0 1 .105-3.45l3.578-3.595a2.508 2.508 0 0 1 3.404-.13l2.104 1.814a16.847 16.847 0 0 1 2.728-1.136l.21-2.777A2.522 2.522 0 0 1 31.989 7zm45.976 57.244l-.528 12.227c-.02.467.136.92.439 1.274l8.361 9.78h.446l-4.633-8.853a4.133 4.133 0 0 1-.351-2.908l2.234-9.062-5.968-2.458zm-2.93 2.599l-5.406 7.552a1.534 1.534 0 0 0-.277 1.05l1.248 12.08h.656l.733-9.364a4.355 4.355 0 0 1 1.379-2.852l1.356-1.261.311-7.205zm-66.663-5.188l-6.57.09-3.283 25.58h1.04l8.813-25.67zm-3.292-17.07c-.45.102-.87.343-1.197.716l-.652.742a4.71 4.71 0 0 0-1.169 3.071l-.081 9.8 6.986-.095.085-6.462-2.606-1.456a1.418 1.418 0 0 1-.547-1.923 1.403 1.403 0 0 1 1.914-.548l3.317 1.853.046.026 4.888 2.73c.088.05.188.068.288.056l7.185-.888a3.906 3.906 0 0 0 3.079-2.28l-9.144.98a3.302 3.302 0 0 1-2.078-.475l-.019-.013-8.584-5.527a2.247 2.247 0 0 0-.291-.16l-1.178-.111c-.082-.008-.162-.023-.242-.035zm50.256-12.712h-2.304l-.238 3.125a1.413 1.413 0 0 1-1.013 1.25 8.172 8.172 0 0 0-1.71.711 1.4 1.4 0 0 1-1.6-.163l-2.366-2.04-1.612 1.62.982 1.15.024.027.022.025.011.013 1.024 1.162a1.42 1.42 0 0 1 .191 1.596c-.018.035-4.31 4.977-4.31 4.977-.084.085-.175.16-.268.23l2.705.166a1.41 1.41 0 0 1 1.26.997c.168.553.394 1.088.672 1.592a1.42 1.42 0 0 1-.163 1.606l-2.03 2.376 1.629 1.638 2.349-2.088a1.403 1.403 0 0 1 1.596-.188 8.151 8.151 0 0 0 1.593.646c.564.163.97.662 1.014 1.25l.238 3.126h2.304l.19-3.144a1.413 1.413 0 0 1 .992-1.265 8.264 8.264 0 0 0 1.47-.613 1.4 1.4 0 0 1 1.596.188l2.348 2.088 1.63-1.638-2.03-2.376a1.419 1.419 0 0 1-.163-1.606 8.37 8.37 0 0 0 .673-1.593 1.41 1.41 0 0 1 1.26-.996l2.579-.158a8.2 8.2 0 0 1-2.03-2.547l-.53-.04a1.41 1.41 0 0 1-1.244-1.016 8.338 8.338 0 0 0-.646-1.605 1.418 1.418 0 0 1 .188-1.603l1.704-1.934c.086-.173.207-.325.353-.448l-1.607-1.616-2.368 2.041a1.4 1.4 0 0 1-1.598.164 8.29 8.29 0 0 0-1.585-.676 1.412 1.412 0 0 1-.991-1.266l-.191-3.145zm-1.249 6.938c2.999 0 5.439 2.451 5.439 5.464 0 3.014-2.44 5.465-5.439 5.465s-5.439-2.451-5.439-5.465c0-3.013 2.44-5.464 5.44-5.464zm0 2.827a2.634 2.634 0 0 0-2.625 2.637 2.634 2.634 0 0 0 2.625 2.637 2.634 2.634 0 0 0 2.625-2.637 2.634 2.634 0 0 0-2.625-2.637zM36.76 9.83h-4.486l-.264 3.475a1.41 1.41 0 0 1-1.063 1.265c-1.353.339-2.645.877-3.84 1.599a1.4 1.4 0 0 1-1.642-.14l-2.634-2.27-3.171 3.187 2.326 2.64c.402.456.467 1.119.163 1.646a14.123 14.123 0 0 0-1.48 3.664 1.409 1.409 0 0 1-1.258 1.068l-3.46.266v4.506l3.5.214c.604.037 1.118.46 1.274 1.048.339 1.281.856 2.507 1.535 3.643a1.419 1.419 0 0 1-.138 1.649l-2.26 2.646 3.172 3.186 2.627-2.337a1.4 1.4 0 0 1 1.639-.164 14.02 14.02 0 0 0 3.647 1.487 1.412 1.412 0 0 1 1.063 1.265l.264 3.475h4.486l.212-3.515a1.412 1.412 0 0 1 1.043-1.28c1.196-.32 2.35-.802 3.431-1.432a1.401 1.401 0 0 1 1.64.164l2.627 2.337 3.171-3.186-2.26-2.646a1.419 1.419 0 0 1-.137-1.65 14.147 14.147 0 0 0 1.536-3.642 1.408 1.408 0 0 1 1.274-1.048l3.499-.214v-4.506l-3.46-.265a1.41 1.41 0 0 1-1.258-1.069 14.133 14.133 0 0 0-1.48-3.664 1.419 1.419 0 0 1 .163-1.647l2.326-2.64-3.171-3.185-2.634 2.27a1.402 1.402 0 0 1-1.64.139 14.025 14.025 0 0 0-3.627-1.544 1.412 1.412 0 0 1-1.043-1.28l-.212-3.515zm52.38 29.714a1.393 1.393 0 0 0-1.876.608l-1.5 2.945a1.399 1.399 0 0 0 .457 1.797l.42.23.888.456c.332.17.709.2 1.064.086.355-.115.643-.362.813-.695l1.5-2.945c.17-.333.2-.712.086-1.069a1.39 1.39 0 0 0-.691-.816zm-78.056-3.826a1.397 1.397 0 0 0-1.386 1.27l-.31 3.293c-.058.635.316 1.212.88 1.435a4.993 4.993 0 0 1 1.87.219 1.398 1.398 0 0 0 1.325-1.267l.31-3.294a1.398 1.398 0 0 0-1.257-1.527l-1.298-.123a1.358 1.358 0 0 0-.134-.006zm23.29-17.707c2.317 0 4.59.797 6.4 2.246.608.486.708 1.376.224 1.986-.484.611-1.37.711-1.977.226a7.36 7.36 0 0 0-4.648-1.631c-4.117 0-7.465 3.365-7.465 7.5 0 4.137 3.348 7.502 7.465 7.502s7.466-3.365 7.466-7.501c0-.52-.054-1.04-.158-1.544a1.414 1.414 0 0 1 1.089-1.673 1.409 1.409 0 0 1 1.665 1.095c.145.694.218 1.407.218 2.122 0 5.695-4.611 10.328-10.28 10.328-5.668 0-10.28-4.633-10.28-10.328 0-5.695 4.612-10.328 10.28-10.328zm27.15 4.416a19.08 19.08 0 0 1 15.319 7.65l.224-.929a1.407 1.407 0 0 1 1.7-1.04 1.415 1.415 0 0 1 1.035 1.706l-1.005 4.166c-.216.895-1.106 1.235-1.81 1.014l-4.37-1.064a1.415 1.415 0 0 1 .664-2.749l1.05.256a16.283 16.283 0 0 0-12.808-6.182 1.41 1.41 0 0 1-1.407-1.414c0-.78.63-1.414 1.407-1.414zm-6.29 9.923a2.518 2.518 0 0 1-1.315 1.056l.74.638c.151-.067.305-.131.46-.192zM32.181.333a1.41 1.41 0 0 1 1.407 1.414c0 .78-.63 1.414-1.407 1.414-8.69 0-16.548 4.61-20.843 11.987l1.377-.505c.73-.268 1.537.11 1.804.843a1.415 1.415 0 0 1-.84 1.813L9.044 19c-.768.282-1.793-.305-1.91-1.132l-1.588-4.37a1.416 1.416 0 0 1 .84-1.814 1.406 1.406 0 0 1 1.803.843l.546 1.501C13.488 5.612 22.358.333 32.182.333z"/>
    </g>
</svg>
