<svg xmlns="http://www.w3.org/2000/svg" width="51.234" height="108.313" viewBox="0 0 51.234 108.313">
  <g id="forefinger-pointing-up-extended-of-hand-filled-silhouette" transform="translate(1.503 1.5)">
    <path id="Trazado_183" data-name="Trazado 183" d="M181.612,61.134V37.448c.027-.831-.144-3.073-3.486-3.454-2.4-.273-4.356,2.6-4.9,4.461V34.508c0-2.731-2.216-3.361-4.946-3.361-2.687,0-4.8,5.236-4.936,7.309V33.207c0-2.731-2.3-3.337-5.035-3.337s-4.895,5.854-4.895,8.585l.038-6.493-.038-27.019a4.945,4.945,0,0,0-9.89,0l-.063,43.81a1.188,1.188,0,0,1-.944,1.152c-.048.041-.077.034-.1.02a1.075,1.075,0,0,1-.162.033h0l-.913-.447a5.052,5.052,0,0,0-3.271-.705c-2.543.133-4.815,1.386-4.682,3.93l.589,12.133s9.307,21.313,12.614,22.142V98.963a5.314,5.314,0,0,0,.04.611c-.01.04-.022.079-.032.119a6.434,6.434,0,0,0,6.38,5.62h15.373c3.555,0,5.7-2.882,5.7-6.437V86.641C181.01,81.431,181.612,61.579,181.612,61.134Z" transform="translate(-133.384)" fill="none" stroke="#56fffb" stroke-width="3"/>
  </g>
</svg>
