<svg xmlns="http://www.w3.org/2000/svg" width="49.436" height="108.313" viewBox="0 0 49.436 108.313">
  <g id="counting-to-two-with-hand-fingers" transform="translate(1.501 1.5)">
    <g id="Grupo_375" data-name="Grupo 375" transform="translate(0)">
      <path id="Trazado_186" data-name="Trazado 186" d="M132.4,52.639a6.062,6.062,0,0,1,3.269.693,2.039,2.039,0,0,0,.925.451,1.1,1.1,0,0,0,1.219-1.219L131.807,8.173a4.366,4.366,0,0,1,8.721-.456s5.237,30.508,5.264,30.623a1.436,1.436,0,0,0,1.422,1.113,1.472,1.472,0,0,0,1.469-1.47l2.629-33.615a4.367,4.367,0,0,1,8.734,0L157.1,43.175c.127-1.961,2.725-8.157,5.265-8.072a4.651,4.651,0,0,1,4.678,3.592v4.481c.512-1.759,2.451-5.648,4.643-5.377a3.266,3.266,0,0,1,2.751,3.572V63.793c0,.421.956,18.912-5.626,23.845V99.22c0,3.365-2.032,6.093-5.4,6.093,0,0-16.594-.013-16.8-.035-3.072-.1-6.043-2.6-6.043-5.677V88.288c-3.131-.785-11.511-16.776-11.94-20.959l-.558-11.486C127.948,53.433,129.992,52.765,132.4,52.639Z" transform="translate(-128.069 0)" fill="none" stroke="#56fffb" stroke-width="3"/>
    </g>
  </g>
</svg>
