<svg xmlns="http://www.w3.org/2000/svg" width="51.492" height="108.313" viewBox="0 0 51.492 108.313">
  <g id="counting-to-three-with-fingers" transform="translate(1.518 1.5)">
    <path id="Trazado_192" data-name="Trazado 192" d="M183.3,6.454a4.341,4.341,0,0,0-5.353,3.007l-10,27.526a.975.975,0,0,1-1.928-.29l.538-32.422a4.277,4.277,0,0,0-8.554,0l-.817,33.219a1.441,1.441,0,0,1-1.44,1.438,1.4,1.4,0,0,1-1.392-1.088c-.029-.112-6.991-29.334-6.991-29.334-.467-2.556-2.136-4.172-4.495-4.048a4.278,4.278,0,0,0-4.049,4.495l7.835,42.232c.187,1.094-.845,1.376-1.387,1.338-.905-.063-6.869,1.942-7.048,6.892,0,0-.422,6.866-.06,9.013.982,5.825,8.013,19.433,11.082,20.2V99.72c0,3.01,2.908,5.459,5.918,5.56.2.023,17.464.034,17.464.034,3.3,0,5.288-2.672,5.288-5.971V88c5.71-4.2,4.852-20.241,4.852-20.654l.09-15.4c-.146-3.254.21-8-3.284-8.94-.7-.188-3.536-.285-3.644-.391-.026-.027,10.385-30.81,10.385-30.81A4.34,4.34,0,0,0,183.3,6.454Z" transform="translate(-138.011)" fill="none" stroke="#56fffb" stroke-width="3"/>
  </g>
</svg>
