<svg xmlns="http://www.w3.org/2000/svg" width="55.765" height="108.313" viewBox="0 0 55.765 108.313">
  <g id="counting-with-four-fingers-of-hand-silhouette" transform="translate(1.545 1.5)">
    <path id="Trazado_189" data-name="Trazado 189" d="M134.543,54.764c1.488-6.866,8.509-6.748,8.509-6.748l-1.482-38.68a4.341,4.341,0,0,1,8.671-.454s1.419,33.251,1.448,33.366a1.427,1.427,0,0,0,1.413,1.1,1.463,1.463,0,0,0,1.462-1.461l.033-37.55a4.342,4.342,0,0,1,8.684,0V42.6a1.286,1.286,0,1,0,2.572,0L166.98,9a4.342,4.342,0,0,1,8.679.309L174.5,43.183a1.6,1.6,0,0,0,3.194.128l1.9-18.968c.168-2.392,1.517-4.537,4.07-4.189,2.343.319,3.013,2.23,2.847,4.624l-2.456,35.072c-.081,10.473-2.008,22.636-7.071,29.117v10.7a5.653,5.653,0,0,1-5.654,5.653H152.113a5.652,5.652,0,0,1-5.652-5.653V92.574l-.025-3.461c-3.939-.68-12.323-13.545-12.61-17.52C133.826,71.593,133.885,57.8,134.543,54.764Z" transform="translate(-133.826)" fill="none" stroke="#56fffb" stroke-width="3"/>
  </g>
</svg>
