<svg xmlns="http://www.w3.org/2000/svg" width="54" height="80" viewBox="0 0 54 80">
    <path fill="#56FFFB" fill-rule="evenodd" d="M9.648 7.399v28.009C7.306 36.702 0 41.516 0 51.2c0 12.143 11.291 27.037 11.77 27.666a2.498 2.498 0 0 0 3.497.466 2.494 2.494 0 0 0 .469-3.497C15.626 75.692 4.99 61.646 4.99 51.2c0-4.79 2.539-7.921 4.658-9.724v10.017a2.496 2.496 0 0 0 4.99 0V7.399c0-3.227 4.654-3.137 4.654 0v32.36a2.498 2.498 0 0 0 2.356 2.492 2.506 2.506 0 0 0 2.618-2.213l1.015-9.019c.223-2.977 4.564-2.601 4.321.36l-.652 8.18a2.501 2.501 0 0 0 2.289 2.688c1.344.06 2.572-.911 2.688-2.288l.376-4.724c1.264-2.086 4.285-1.122 4.285 1.257v6.537a2.496 2.496 0 0 0 4.99 0c0-3.183 4.658-3.187 4.658 0-.107.333.612 21.053-10.54 32.573a2.496 2.496 0 0 0 .027 3.53 2.505 2.505 0 0 0 3.53-.033C54.015 66.17 53.12 43.359 53.229 43.023c0-4.88-4.737-8.697-9.69-6.963-.26-4.522-4.529-7.985-9.213-6.684-1.194-4.631-6.094-6.634-10.04-4.684V7.399c0-9.675-14.638-9.824-14.638 0z"/>
</svg>
