<svg xmlns="http://www.w3.org/2000/svg" id="prefix___24px_10_" width="48" height="48" data-name="24px (10)" viewBox="0 0 48 48">
    <path id="prefix__Trazado_107" d="M0 0h48v48H0z" data-name="Trazado 107" style="fill:none"/>
    <path id="prefix__Trazado_108" d="M35 2H7a4 4 0 00-4 4v28a4 4 0 004 4h8l6 6 6-6h8a4.012 4.012 0 004-4V6a4.012 4.012 0 00-4-4zM23 34h-4v-4h4zm4.14-15.5l-1.8 1.84A6.809 6.809 0 0023 26h-4v-1a8.05 8.05 0 012.34-5.66l2.48-2.52A3.911 3.911 0 0025 14a4 4 0 10-8 0h-4a8 8 0 1116 0 6.364 6.364 0 01-1.86 4.5z" data-name="Trazado 108" transform="translate(3 2)" style="fill:#fff"/>
</svg>
