<svg xmlns="http://www.w3.org/2000/svg" xmlns:xlink="http://www.w3.org/1999/xlink" width="31.499" height="29.5" viewBox="0 0 31.499 29.5">
  <defs>
    <filter id="Elipse_94" x="0" y="0" width="26" height="26" filterUnits="userSpaceOnUse">
      <feOffset input="SourceAlpha"/>
      <feGaussianBlur stdDeviation="3" result="blur"/>
      <feFlood flood-color="#56fffb"/>
      <feComposite operator="in" in2="blur"/>
      <feComposite in="SourceGraphic"/>
    </filter>
    <filter id="Trazado_109" x="0.5" y="1.5" width="30.999" height="28" filterUnits="userSpaceOnUse">
      <feOffset input="SourceAlpha"/>
      <feGaussianBlur stdDeviation="1.5" result="blur-2"/>
      <feFlood flood-color="#56fffb"/>
      <feComposite operator="in" in2="blur-2"/>
      <feComposite in="SourceGraphic"/>
    </filter>
  </defs>
  <g id="Grupo_401" data-name="Grupo 401" transform="translate(-497 -413)">
    <g transform="matrix(1, 0, 0, 1, 497, 413)" filter="url(#Elipse_94)">
      <circle id="Elipse_94-2" data-name="Elipse 94" cx="4" cy="4" r="4" transform="translate(9 9)" fill="#56fffb"/>
    </g>
    <g transform="matrix(1, 0, 0, 1, 497, 413)" filter="url(#Trazado_109)">
      <path id="Trazado_109-2" data-name="Trazado 109" d="M9,15c-2.67,0-8,1.34-8,4v2H17V19C17,16.34,11.67,15,9,15Zm7.76-9.64L15.08,7.05a3.317,3.317,0,0,1,0,3.89l1.68,1.69a5.117,5.117,0,0,0,0-7.27ZM20.07,2,18.44,3.63a7.978,7.978,0,0,1,0,10.74L20.07,16A9.829,9.829,0,0,0,20.07,2Z" transform="translate(4 4)" fill="#56fffb"/>
    </g>
  </g>
</svg>
