<svg xmlns="http://www.w3.org/2000/svg" id="prefix___24px_9_" width="57" height="57" data-name="24px (9)" viewBox="0 0 57 57">
    <path id="prefix__Trazado_105" d="M23 8.512a4.988 4.988 0 11-4.988 4.988A4.987 4.987 0 0123 8.512m0 21.375c7.054 0 14.487 3.468 14.487 4.987v2.612H8.512v-2.611c0-1.52 7.434-4.987 14.488-4.987M23 4a9.5 9.5 0 109.5 9.5A9.5 9.5 0 0023 4zm0 21.375c-6.341 0-19 3.182-19 9.5V42h38v-7.125c0-6.318-12.659-9.5-19-9.5z" data-name="Trazado 105" transform="translate(5.5 5.5)" style="fill:#fff"/>
    <path id="prefix__Trazado_106" d="M0 0h57v57H0z" data-name="Trazado 106" style="fill:none"/>
</svg>
