<svg xmlns="http://www.w3.org/2000/svg" width="82" height="75" viewBox="0 0 82 75">
    <g fill="none" fill-rule="evenodd">
        <path d="M1-3h80v80H1z"/>
        <path fill="#56FFFB" d="M80 46.667v18.666a9.344 9.344 0 0 1-9.333 9.334h-4V72h4a6.675 6.675 0 0 0 6.666-6.667V46.667H80zM69.333 0a5.333 5.333 0 0 1 5.334 5.333V64a5.333 5.333 0 0 1-5.334 5.333H10.667A5.333 5.333 0 0 1 5.333 64V5.333A5.333 5.333 0 0 1 10.667 0zM26.352 13.333H8V64a2.667 2.667 0 0 0 2.667 2.667h58.666A2.667 2.667 0 0 0 72 64V13.333H53.648l2.948 1.474c.452.225.738.688.737 1.193v11.983c.026 9.136-6.584 16.94-15.6 18.417l-1.51.252a1.309 1.309 0 0 1-.44 0l-1.516-.252c-9.016-1.477-15.626-9.281-15.6-18.417V16c0-.505.285-.968.737-1.193l2.948-1.474zm32.315 36c.736 0 1.333.597 1.333 1.334v10.666c0 .737-.597 1.334-1.333 1.334H21.333A1.333 1.333 0 0 1 20 61.333V50.667c0-.737.597-1.334 1.333-1.334zM57.333 52H22.667v8h34.666v-8zM28 54.667v2.666h-2.667v-2.666H28zm5.333 0v2.666h-2.666v-2.666h2.666zm5.334 0v2.666H36v-2.666h2.667zm5.333 0v2.666h-2.667v-2.666H44zm5.333 0v2.666h-2.666v-2.666h2.666zm5.334 0v2.666H52v-2.666h2.667zM80 41.333V44h-2.667v-2.667H80zM40 9.491l-14.667 7.333v11.159a15.95 15.95 0 0 0 13.37 15.782l1.297.216 1.297-.216a15.95 15.95 0 0 0 13.37-15.782V16.824L40 9.491zm-.596 3.982a1.333 1.333 0 0 1 1.192 0l10.667 5.334c.452.226.737.688.737 1.193v7.917a13.53 13.53 0 0 1-11.835 13.406c-.11.014-.22.014-.33 0A13.53 13.53 0 0 1 28 27.917V20c0-.505.285-.968.737-1.193zM2.667 37.333V40H0v-2.667h2.667zm36-8H30.77a10.857 10.857 0 0 0 7.896 9.038v-9.038zm10.562 0h-7.896v9.038a10.857 10.857 0 0 0 7.896-9.038zM2.667 8v26.667H0V8h2.667zm36 8.824l-8 4v5.843h8v-9.843zm2.666 0v9.843h8v-5.843l-8-4zm28-14.157H10.667A2.667 2.667 0 0 0 8 5.333v5.334h23.685l7.719-3.86a1.333 1.333 0 0 1 1.192 0l7.719 3.86H72V5.333a2.667 2.667 0 0 0-2.667-2.666zm-56 2.666V8h-2.666V5.333h2.666zm5.334 0V8H16V5.333h2.667zm5.333 0V8h-2.667V5.333H24z"/>
        <path fill="#E01AC7" d="M82 46.667v18.666a9.344 9.344 0 0 1-9.333 9.334h-4V72h4a6.675 6.675 0 0 0 6.666-6.667V46.667H82zM71.333 0a5.333 5.333 0 0 1 5.334 5.333V64a5.333 5.333 0 0 1-5.334 5.333H12.667A5.333 5.333 0 0 1 7.333 64V5.333A5.333 5.333 0 0 1 12.667 0zM28.352 13.333H10V64a2.667 2.667 0 0 0 2.667 2.667h58.666A2.667 2.667 0 0 0 74 64V13.333H55.648l2.948 1.474c.452.225.738.688.737 1.193v11.983c.026 9.136-6.584 16.94-15.6 18.417l-1.51.252a1.309 1.309 0 0 1-.44 0l-1.516-.252c-9.016-1.477-15.626-9.281-15.6-18.417V16c0-.505.285-.968.737-1.193l2.948-1.474zm32.315 36c.736 0 1.333.597 1.333 1.334v10.666c0 .737-.597 1.334-1.333 1.334H23.333A1.333 1.333 0 0 1 22 61.333V50.667c0-.737.597-1.334 1.333-1.334zM59.333 52H24.667v8h34.666v-8zM30 54.667v2.666h-2.667v-2.666H30zm5.333 0v2.666h-2.666v-2.666h2.666zm5.334 0v2.666H38v-2.666h2.667zm5.333 0v2.666h-2.667v-2.666H46zm5.333 0v2.666h-2.666v-2.666h2.666zm5.334 0v2.666H54v-2.666h2.667zM82 41.333V44h-2.667v-2.667H82zM42 9.491l-14.667 7.333v11.159a15.95 15.95 0 0 0 13.37 15.782l1.297.216 1.297-.216a15.95 15.95 0 0 0 13.37-15.782V16.824L42 9.491zm-.596 3.982a1.333 1.333 0 0 1 1.192 0l10.667 5.334c.452.226.737.688.737 1.193v7.917a13.53 13.53 0 0 1-11.835 13.406c-.11.014-.22.014-.33 0A13.53 13.53 0 0 1 30 27.917V20c0-.505.285-.968.737-1.193zM4.667 37.333V40H2v-2.667h2.667zm36-8H32.77a10.857 10.857 0 0 0 7.896 9.038v-9.038zm10.562 0h-7.896v9.038a10.857 10.857 0 0 0 7.896-9.038zM4.667 8v26.667H2V8h2.667zm36 8.824l-8 4v5.843h8v-9.843zm2.666 0v9.843h8v-5.843l-8-4zm28-14.157H12.667A2.667 2.667 0 0 0 10 5.333v5.334h23.685l7.719-3.86a1.333 1.333 0 0 1 1.192 0l7.719 3.86H74V5.333a2.667 2.667 0 0 0-2.667-2.666zm-56 2.666V8h-2.666V5.333h2.666zm5.334 0V8H18V5.333h2.667zm5.333 0V8h-2.667V5.333H26z"/>
        <path fill="#1B1F3B" d="M81 46.667v18.666a9.344 9.344 0 0 1-9.333 9.334h-4V72h4a6.675 6.675 0 0 0 6.666-6.667V46.667H81zM70.333 0a5.333 5.333 0 0 1 5.334 5.333V64a5.333 5.333 0 0 1-5.334 5.333H11.667A5.333 5.333 0 0 1 6.333 64V5.333A5.333 5.333 0 0 1 11.667 0zM27.352 13.333H9V64a2.667 2.667 0 0 0 2.667 2.667h58.666A2.667 2.667 0 0 0 73 64V13.333H54.648l2.948 1.474c.452.225.738.688.737 1.193v11.983c.026 9.136-6.584 16.94-15.6 18.417l-1.51.252a1.309 1.309 0 0 1-.44 0l-1.516-.252c-9.016-1.477-15.626-9.281-15.6-18.417V16c0-.505.285-.968.737-1.193l2.948-1.474zm32.315 36c.736 0 1.333.597 1.333 1.334v10.666c0 .737-.597 1.334-1.333 1.334H22.333A1.333 1.333 0 0 1 21 61.333V50.667c0-.737.597-1.334 1.333-1.334zM58.333 52H23.667v8h34.666v-8zM29 54.667v2.666h-2.667v-2.666H29zm5.333 0v2.666h-2.666v-2.666h2.666zm5.334 0v2.666H37v-2.666h2.667zm5.333 0v2.666h-2.667v-2.666H45zm5.333 0v2.666h-2.666v-2.666h2.666zm5.334 0v2.666H53v-2.666h2.667zM81 41.333V44h-2.667v-2.667H81zM41 9.491l-14.667 7.333v11.159a15.95 15.95 0 0 0 13.37 15.782l1.297.216 1.297-.216a15.95 15.95 0 0 0 13.37-15.782V16.824L41 9.491zm-.596 3.982a1.333 1.333 0 0 1 1.192 0l10.667 5.334c.452.226.737.688.737 1.193v7.917a13.53 13.53 0 0 1-11.835 13.406c-.11.014-.22.014-.33 0A13.53 13.53 0 0 1 29 27.917V20c0-.505.285-.968.737-1.193zM3.667 37.333V40H1v-2.667h2.667zm36-8H31.77a10.857 10.857 0 0 0 7.896 9.038v-9.038zm10.562 0h-7.896v9.038a10.857 10.857 0 0 0 7.896-9.038zM3.667 8v26.667H1V8h2.667zm36 8.824l-8 4v5.843h8v-9.843zm2.666 0v9.843h8v-5.843l-8-4zm28-14.157H11.667A2.667 2.667 0 0 0 9 5.333v5.334h23.685l7.719-3.86a1.333 1.333 0 0 1 1.192 0l7.719 3.86H73V5.333a2.667 2.667 0 0 0-2.667-2.666zm-56 2.666V8h-2.666V5.333h2.666zm5.334 0V8H17V5.333h2.667zm5.333 0V8h-2.667V5.333H25z"/>
    </g>
</svg>
