<svg xmlns="http://www.w3.org/2000/svg" width="123" height="130" viewBox="0 0 123 130">
    <g fill="none" fill-rule="evenodd">
        <path d="M-4 0h130v130H-4z"/>
        <path fill="#56FFFB" d="M116.39 17.476l-5.555-4.892 5.555-4.89a2.723 2.723 0 0 0 .754-3.026 2.722 2.722 0 0 0-2.566-1.775H91.59v-.988a1.905 1.905 0 1 0-3.81 0v25.696L72.13 36.098a6.028 6.028 0 0 0-.619-2.001l-2.204-4.305a6.028 6.028 0 0 0-8.104-2.614l-1.705.873a5.982 5.982 0 0 0-2.986 3.51 5.977 5.977 0 0 0 .372 4.594l2.205 4.305a5.984 5.984 0 0 0 2.17 2.358c-1.17 1.576-1.726 3.514-2.297 5.527l-.41 1.454a1.905 1.905 0 1 0 3.666 1.037l.41-1.451c.836-2.945 1.349-4.522 2.981-5.409l2.927-1.59.36-.184c.12-.061.233-.13.347-.2l20.86-11.327a8.063 8.063 0 0 1-3.846 6.475l-13.565 8.242-.047.027-4.222 2.565a1.904 1.904 0 1 0 1.821 3.342l-3.204 9.685-2.341.96-6.368 2.61 1.835-6.487a1.907 1.907 0 0 0-3.668-1.037L53.6 67.309a1.83 1.83 0 0 0-.068.415l-.76 13.937c-.022.531.091 1.536-.155 2.055l-8.426 17.727h-6.124a6.512 6.512 0 0 0-6.505 6.505v5.5a6.454 6.454 0 0 0-2.694-.587h-15.55a6.511 6.511 0 0 0-6.505 6.505v6.823H2.239a1.905 1.905 0 1 0 0 3.811h112.337a1.905 1.905 0 1 0 0-3.81h-4.955V77.08a6.512 6.512 0 0 0-6.504-6.505H91.59V37.336c2.112-2.863 2.895-6.616 1.914-10.183a1.902 1.902 0 0 0-1.914-1.398v-3.479h22.987a2.72 2.72 0 0 0 2.566-1.773 2.723 2.723 0 0 0-.753-3.027zM60.14 32.732c.182-.562.57-1.02 1.096-1.29l1.705-.872a2.213 2.213 0 0 1 2.974.96l2.206 4.305a2.214 2.214 0 0 1-.734 2.84l-.62.336-1.31.672a2.213 2.213 0 0 1-2.975-.96l-2.206-4.305a2.196 2.196 0 0 1-.136-1.686zm-3.828 69.298a6.467 6.467 0 0 0-2.092-.558l2.092-2.778v3.336zm9.046-15.353c.917-1.098 1.17-2.38 1.374-3.414.051-.246.992-5.381.992-5.381s.89.554.983.594c.064.029.11.092.117.167l1.036 10.536h-6.385l1.883-2.502zm11.267-10.516L75.016 89.17h-1.328l-1.072-10.9a4.014 4.014 0 0 0-2.244-3.222l-1.916-1.215 1.276-7.075s5.378 6.389 5.503 6.551c1.113 1.448 1.493 2.027 1.39 2.852zm-20.58 9.22a10.33 10.33 0 0 0 .534-3.536l.692-12.711 8.812-3.611-1.602 8.873a.924.924 0 0 0-.013.072l-1.325 7.336c-.172.76-.323 1.913-.797 2.538l-12.875 17.101H48.41l7.635-16.061zm-45.422 33.984a2.696 2.696 0 0 1 2.694-2.693h15.551a2.697 2.697 0 0 1 2.695 2.693v6.824h-20.94v-6.824zm24.75 0v-11.417a2.697 2.697 0 0 1 2.694-2.694h15.55a2.696 2.696 0 0 1 2.695 2.694v18.241H35.373v-6.824zm70.438-42.286v49.11H84.872v-11.423a1.905 1.905 0 1 0-3.811 0v11.423H60.122V95.682a2.696 2.696 0 0 1 2.694-2.693h15.55a2.696 2.696 0 0 1 2.695 2.693v9.551a1.905 1.905 0 1 0 3.81 0V77.08a2.697 2.697 0 0 1 2.695-2.693h15.55a2.698 2.698 0 0 1 2.695 2.693zm-18.245-6.504a6.512 6.512 0 0 0-6.504 6.504v12.686a6.45 6.45 0 0 0-2.21-.567l1.555-12.568c.306-2.45-.944-4.073-2.152-5.644-.128-.167-7.534-8.96-7.534-8.96l4.543-13.737 12.515-7.603v29.889h-.213zm4.024-52.11V6.705h20.157l-4.342 3.822a2.743 2.743 0 0 0 0 4.116l4.342 3.823H91.59v-.001z"/>
        <path fill="#E01AC7" d="M121.59 17.476l-5.555-4.892 5.555-4.89a2.723 2.723 0 0 0 .754-3.026 2.722 2.722 0 0 0-2.566-1.775H96.79v-.988a1.905 1.905 0 1 0-3.81 0v25.696L77.33 36.098a6.028 6.028 0 0 0-.619-2.001l-2.204-4.305a6.028 6.028 0 0 0-8.104-2.614l-1.705.873a5.982 5.982 0 0 0-2.986 3.51 5.977 5.977 0 0 0 .372 4.594l2.205 4.305a5.984 5.984 0 0 0 2.17 2.358c-1.17 1.576-1.726 3.514-2.297 5.527l-.41 1.454a1.905 1.905 0 1 0 3.666 1.037l.41-1.451c.836-2.945 1.349-4.522 2.981-5.409l2.927-1.59.36-.184c.12-.061.233-.13.347-.2l20.86-11.327a8.063 8.063 0 0 1-3.846 6.475l-13.565 8.242-.047.027-4.222 2.565a1.904 1.904 0 1 0 1.821 3.342l-3.204 9.685-2.341.96-6.368 2.61 1.835-6.487a1.907 1.907 0 0 0-3.668-1.037L58.8 67.309a1.83 1.83 0 0 0-.068.415l-.76 13.937c-.022.531.091 1.536-.155 2.055l-8.426 17.727h-6.124a6.512 6.512 0 0 0-6.505 6.505v5.5a6.454 6.454 0 0 0-2.694-.587h-15.55a6.511 6.511 0 0 0-6.505 6.505v6.823H7.439a1.905 1.905 0 1 0 0 3.811h112.337a1.905 1.905 0 1 0 0-3.81h-4.955V77.08a6.512 6.512 0 0 0-6.504-6.505H96.79V37.336c2.112-2.863 2.895-6.616 1.914-10.183a1.902 1.902 0 0 0-1.914-1.398v-3.479h22.987a2.72 2.72 0 0 0 2.566-1.773 2.723 2.723 0 0 0-.753-3.027zM65.34 32.732c.182-.562.57-1.02 1.096-1.29l1.705-.872a2.213 2.213 0 0 1 2.974.96l2.206 4.305a2.214 2.214 0 0 1-.734 2.84l-.62.336-1.31.672a2.213 2.213 0 0 1-2.975-.96l-2.206-4.305a2.196 2.196 0 0 1-.136-1.686zm-3.828 69.298a6.467 6.467 0 0 0-2.092-.558l2.092-2.778v3.336zm9.046-15.353c.917-1.098 1.17-2.38 1.374-3.414.051-.246.992-5.381.992-5.381s.89.554.983.594c.064.029.11.092.117.167l1.036 10.536h-6.385l1.883-2.502zm11.267-10.516L80.216 89.17h-1.328l-1.072-10.9a4.014 4.014 0 0 0-2.244-3.222l-1.916-1.215 1.276-7.075s5.378 6.389 5.503 6.551c1.113 1.448 1.493 2.027 1.39 2.852zm-20.58 9.22a10.33 10.33 0 0 0 .534-3.536l.692-12.711 8.812-3.611-1.602 8.873a.924.924 0 0 0-.013.072l-1.325 7.336c-.172.76-.323 1.913-.797 2.538l-12.875 17.101H53.61l7.635-16.061zm-45.422 33.984a2.696 2.696 0 0 1 2.694-2.693h15.551a2.697 2.697 0 0 1 2.695 2.693v6.824h-20.94v-6.824zm24.75 0v-11.417a2.697 2.697 0 0 1 2.694-2.694h15.55a2.696 2.696 0 0 1 2.695 2.694v18.241H40.573v-6.824zm70.438-42.286v49.11H90.072v-11.423a1.905 1.905 0 1 0-3.811 0v11.423H65.322V95.682a2.696 2.696 0 0 1 2.694-2.693h15.55a2.696 2.696 0 0 1 2.695 2.693v9.551a1.905 1.905 0 1 0 3.81 0V77.08a2.697 2.697 0 0 1 2.695-2.693h15.55a2.698 2.698 0 0 1 2.695 2.693zm-18.245-6.504a6.512 6.512 0 0 0-6.504 6.504v12.686a6.45 6.45 0 0 0-2.21-.567l1.555-12.568c.306-2.45-.944-4.073-2.152-5.644-.128-.167-7.534-8.96-7.534-8.96l4.543-13.737 12.515-7.603v29.889h-.213zm4.024-52.11V6.705h20.157l-4.342 3.822a2.743 2.743 0 0 0 0 4.116l4.342 3.823H96.79v-.001z"/>
        <path fill="#1B1F3B" d="M118.99 17.476l-5.555-4.892 5.555-4.89a2.723 2.723 0 0 0 .754-3.026 2.722 2.722 0 0 0-2.566-1.775H94.19v-.988a1.905 1.905 0 1 0-3.81 0v25.696L74.73 36.098a6.028 6.028 0 0 0-.619-2.001l-2.204-4.305a6.028 6.028 0 0 0-8.104-2.614l-1.705.873a5.982 5.982 0 0 0-2.986 3.51 5.977 5.977 0 0 0 .372 4.594l2.205 4.305a5.984 5.984 0 0 0 2.17 2.358c-1.17 1.576-1.726 3.514-2.297 5.527l-.41 1.454a1.905 1.905 0 1 0 3.666 1.037l.41-1.451c.836-2.945 1.349-4.522 2.981-5.409l2.927-1.59.36-.184c.12-.061.233-.13.347-.2l20.86-11.327a8.063 8.063 0 0 1-3.846 6.475l-13.565 8.242-.047.027-4.222 2.565a1.904 1.904 0 1 0 1.821 3.342l-3.204 9.685-2.341.96-6.368 2.61 1.835-6.487a1.907 1.907 0 0 0-3.668-1.037L56.2 67.309a1.83 1.83 0 0 0-.068.415l-.76 13.937c-.022.531.091 1.536-.155 2.055l-8.426 17.727h-6.124a6.512 6.512 0 0 0-6.505 6.505v5.5a6.454 6.454 0 0 0-2.694-.587h-15.55a6.511 6.511 0 0 0-6.505 6.505v6.823H4.839a1.905 1.905 0 1 0 0 3.811h112.337a1.905 1.905 0 1 0 0-3.81h-4.955V77.08a6.512 6.512 0 0 0-6.504-6.505H94.19V37.336c2.112-2.863 2.895-6.616 1.914-10.183a1.902 1.902 0 0 0-1.914-1.398v-3.479h22.987a2.72 2.72 0 0 0 2.566-1.773 2.723 2.723 0 0 0-.753-3.027zM62.74 32.732c.182-.562.57-1.02 1.096-1.29l1.705-.872a2.213 2.213 0 0 1 2.974.96l2.206 4.305a2.214 2.214 0 0 1-.734 2.84l-.62.336-1.31.672a2.213 2.213 0 0 1-2.975-.96l-2.206-4.305a2.196 2.196 0 0 1-.136-1.686zm-3.828 69.298a6.467 6.467 0 0 0-2.092-.558l2.092-2.778v3.336zm9.046-15.353c.917-1.098 1.17-2.38 1.374-3.414.051-.246.992-5.381.992-5.381s.89.554.983.594c.064.029.11.092.117.167l1.036 10.536h-6.385l1.883-2.502zm11.267-10.516L77.616 89.17h-1.328l-1.072-10.9a4.014 4.014 0 0 0-2.244-3.222l-1.916-1.215 1.276-7.075s5.378 6.389 5.503 6.551c1.113 1.448 1.493 2.027 1.39 2.852zm-20.58 9.22a10.33 10.33 0 0 0 .534-3.536l.692-12.711 8.812-3.611-1.602 8.873a.924.924 0 0 0-.013.072l-1.325 7.336c-.172.76-.323 1.913-.797 2.538l-12.875 17.101H51.01l7.635-16.061zm-45.422 33.984a2.696 2.696 0 0 1 2.694-2.693h15.551a2.697 2.697 0 0 1 2.695 2.693v6.824h-20.94v-6.824zm24.75 0v-11.417a2.697 2.697 0 0 1 2.694-2.694h15.55a2.696 2.696 0 0 1 2.695 2.694v18.241H37.973v-6.824zm70.438-42.286v49.11H87.472v-11.423a1.905 1.905 0 1 0-3.811 0v11.423H62.722V95.682a2.696 2.696 0 0 1 2.694-2.693h15.55a2.696 2.696 0 0 1 2.695 2.693v9.551a1.905 1.905 0 1 0 3.81 0V77.08a2.697 2.697 0 0 1 2.695-2.693h15.55a2.698 2.698 0 0 1 2.695 2.693zm-18.245-6.504a6.512 6.512 0 0 0-6.504 6.504v12.686a6.45 6.45 0 0 0-2.21-.567l1.555-12.568c.306-2.45-.944-4.073-2.152-5.644-.128-.167-7.534-8.96-7.534-8.96l4.543-13.737 12.515-7.603v29.889h-.213zm4.024-52.11V6.705h20.157l-4.342 3.822a2.743 2.743 0 0 0 0 4.116l4.342 3.823H94.19v-.001z"/>
    </g>
</svg>
