<svg id="discordia" xmlns="http://www.w3.org/2000/svg" width="27.72" height="30.24" viewBox="0 0 27.72 30.24">
  <path id="Trazado_167" data-name="Trazado 167" d="M4.251,26.707H22.217l-.858-2.778,2.053,1.761,1.881,1.686L28.72,30.24V3.119A3.344,3.344,0,0,0,25.384,0L4.257,0A3.217,3.217,0,0,0,1,3.125V23.587a3.153,3.153,0,0,0,3.251,3.12ZM17.541,7.161l-.042.015.015-.015ZM7.926,8.76a7.773,7.773,0,0,1,4.45-1.6l.173.17A9.171,9.171,0,0,0,8.442,9.266s.343-.168.941-.423a14.388,14.388,0,0,1,11.811.507,10.363,10.363,0,0,0-3.936-1.937l.234-.231A7.78,7.78,0,0,1,21.876,8.77,19.45,19.45,0,0,1,24.2,17.615a6.715,6.715,0,0,1-4.953,2.175s-.595-.673-1.018-1.26a5.089,5.089,0,0,0,2.822-1.769,18.543,18.543,0,0,1-1.788.929,11.964,11.964,0,0,1-2.3.674,12.258,12.258,0,0,1-7.6-1.179L8.7,16.849a5.058,5.058,0,0,0,2.739,1.769c-.518.591-1.031,1.263-1.031,1.263A5.6,5.6,0,0,1,5.617,17.6,19.5,19.5,0,0,1,7.926,8.76Z" transform="translate(-1 0)" fill="#fff"/>
  <path id="Trazado_168" data-name="Trazado 168" d="M14.643,13.467a1.686,1.686,0,0,0,0-3.371v0a1.684,1.684,0,0,0,0,3.367Z" transform="translate(2.125 2.625)" fill="#fff"/>
  <path id="Trazado_169" data-name="Trazado 169" d="M10.025,13.467A1.686,1.686,0,0,0,10.03,10.1l-.005,0a1.684,1.684,0,0,0,0,3.367Z" transform="translate(0.924 2.625)" fill="#fff"/>
</svg>
