<svg xmlns="http://www.w3.org/2000/svg" width="30" height="30" viewBox="0 0 30 30">
  <g id="facebook-white" transform="translate(-0.225 0.536)">
    <path id="Combined_Shape" data-name="Combined Shape" d="M15,30A15,15,0,0,1,4.393,4.393,15,15,0,1,1,25.606,25.606,14.9,14.9,0,0,1,15,30ZM14.28,15.5V20h1.9V15.5h1.457l.218-2H16.182v-1c0-.523.05-.84.744-.84h.886V10.069A11.73,11.73,0,0,0,16.542,10h-.031a2.126,2.126,0,0,0-2.23,2.349V13.5H12.859v2Z" transform="translate(0.225 -0.536)" fill="#fff"/>
  </g>
</svg>
