<svg xmlns="http://www.w3.org/2000/svg" width="24" height="24" viewBox="0 0 24 24">
    <path fill="#FFF" fill-rule="evenodd" d="M12 0c6.627 0 12 5.373 12 12s-5.373 12-12 12S0 18.627 0 12 5.373 0 12 0zM9.854 8.999c-1.927 0-3.49 1.535-3.49 3.428 0 1.894 1.563 3.429 3.49 3.429 1.927 0 3.49-1.535 3.49-3.429 0-.235-.026-.464-.072-.685l-.02-.077H9.855v1.143h2.326c-.185 1.081-1.173 1.905-2.326 1.905-1.285 0-2.327-1.023-2.327-2.286 0-1.263 1.042-2.285 2.327-2.285a2.34 2.34 0 0 1 1.52.558l.834-.802a3.508 3.508 0 0 0-2.354-.9zm6.204 1.524h-.776v1.142H14.12v.762h1.163v1.143h.776v-1.143h1.163v-.762h-1.163v-1.142z"/>
</svg>
