<svg id="instagram" xmlns="http://www.w3.org/2000/svg" width="31.014" height="31.014" viewBox="0 0 31.014 31.014">
  <path id="Trazado_170" data-name="Trazado 170" d="M212.936,209.968A2.968,2.968,0,1,1,209.968,207,2.968,2.968,0,0,1,212.936,209.968Zm0,0" transform="translate(-194.461 -194.461)" fill="#fff"/>
  <path id="Trazado_171" data-name="Trazado 171" d="M149.726,137.537a2.949,2.949,0,0,0-1.69-1.69,4.926,4.926,0,0,0-1.653-.306c-.939-.043-1.221-.052-3.6-.052s-2.659.009-3.6.052a4.93,4.93,0,0,0-1.653.307,2.95,2.95,0,0,0-1.69,1.69,4.928,4.928,0,0,0-.306,1.654c-.043.939-.052,1.22-.052,3.6s.009,2.659.052,3.6a4.926,4.926,0,0,0,.306,1.653,2.949,2.949,0,0,0,1.69,1.69,4.921,4.921,0,0,0,1.654.307c.939.043,1.22.052,3.6.052s2.66-.009,3.6-.052a4.921,4.921,0,0,0,1.653-.307,2.949,2.949,0,0,0,1.69-1.69,4.93,4.93,0,0,0,.307-1.653c.043-.939.052-1.221.052-3.6s-.009-2.659-.052-3.6A4.92,4.92,0,0,0,149.726,137.537Zm-6.941,9.824a4.572,4.572,0,1,1,4.572-4.572A4.572,4.572,0,0,1,142.785,147.361Zm4.753-8.257a1.069,1.069,0,1,1,1.069-1.069A1.069,1.069,0,0,1,147.538,139.1Zm0,0" transform="translate(-127.278 -127.281)" fill="#fff"/>
  <path id="Trazado_172" data-name="Trazado 172" d="M15.507,0A15.507,15.507,0,1,0,31.014,15.507,15.509,15.509,0,0,0,15.507,0Zm8.851,19.178a6.533,6.533,0,0,1-.414,2.162,4.553,4.553,0,0,1-2.6,2.6,6.538,6.538,0,0,1-2.161.414c-.95.043-1.253.054-3.671.054s-2.722-.01-3.671-.054a6.538,6.538,0,0,1-2.161-.414,4.553,4.553,0,0,1-2.6-2.6,6.531,6.531,0,0,1-.414-2.161c-.044-.95-.054-1.253-.054-3.671s.01-2.722.054-3.671A6.534,6.534,0,0,1,7.07,9.674a4.556,4.556,0,0,1,2.6-2.6,6.539,6.539,0,0,1,2.162-.414c.95-.043,1.253-.054,3.671-.054s2.722.01,3.671.054a6.54,6.54,0,0,1,2.162.413,4.554,4.554,0,0,1,2.6,2.6,6.532,6.532,0,0,1,.414,2.162c.043.95.053,1.253.053,3.671S24.4,18.229,24.358,19.178Zm0,0" transform="translate(0 0)" fill="#fff"/>
</svg>
