<svg xmlns="http://www.w3.org/2000/svg" width="24" height="24" viewBox="0 0 24 24">
    <path fill="#FFF" fill-rule="evenodd" d="M12 0c6.627 0 12 5.373 12 12s-5.373 12-12 12S0 18.627 0 12 5.373 0 12 0zm-1.807 10.443H8.827c-.075 0-.137.066-.137.147v4.24c0 .08.062.146.137.146h1.366c.076 0 .137-.066.137-.146v-4.24c0-.08-.061-.147-.137-.147zm2.05 0h-1.366c-.076 0-.137.066-.137.147v4.24c0 .08.061.146.137.146h1.23c.075 0 .136-.066.136-.146v-2.267c0-.346.249-.628.566-.655l.024-.002h.025c.016 0 .033 0 .05.002.316.027.565.309.565.655v2.267c0 .08.061.146.136.146h1.23c.075 0 .137-.066.137-.146v-2.486c0-.946-.474-1.9-1.532-1.9a1.77 1.77 0 0 0-1.064.363v-.217c0-.08-.062-.147-.137-.147zM9.51 8.69c-.474 0-.818.304-.818.722 0 .42.352.738.818.738.474 0 .819-.31.819-.746-.022-.42-.36-.714-.819-.714z"/>
</svg>
