<svg id="reddit" xmlns="http://www.w3.org/2000/svg" width="30.951" height="30.951" viewBox="0 0 30.951 30.951">
  <path id="Trazado_163" data-name="Trazado 163" d="M197.871,341.435a6.041,6.041,0,0,1-6.475,0,.418.418,0,1,0-.591.591c1.1,1.1,3.21,1.185,3.828,1.185s2.727-.087,3.829-1.185a.422.422,0,0,0,0-.591A.417.417,0,0,0,197.871,341.435Zm0,0" transform="translate(-179.155 -320.679)" fill="#fff"/>
  <path id="Trazado_164" data-name="Trazado 164" d="M173.874,257.613a1.613,1.613,0,1,0-1.613,1.613A1.615,1.615,0,0,0,173.874,257.613Zm0,0" transform="translate(-160.333 -240.525)" fill="#fff"/>
  <path id="Trazado_165" data-name="Trazado 165" d="M15.475,0A15.475,15.475,0,1,0,30.951,15.475,15.477,15.477,0,0,0,15.475,0Zm8.979,17.54a4.49,4.49,0,0,1,.053.678c0,3.473-4.042,6.286-9.028,6.286S6.45,21.69,6.45,18.217a4.54,4.54,0,0,1,.053-.684,2.255,2.255,0,1,1,2.482-3.686,11.066,11.066,0,0,1,6.144-1.913c0-.031,1.127-5.4,1.127-5.4a.4.4,0,0,1,.173-.254.4.4,0,0,1,.3-.056l3.751.8a1.612,1.612,0,1,1-.164.789L16.961,7.1l-1.027,4.838a11.04,11.04,0,0,1,6.035,1.916,2.254,2.254,0,0,1,3.822,1.622,2.266,2.266,0,0,1-1.337,2.064Zm0,0" transform="translate(0 0)" fill="#fff"/>
  <path id="Trazado_166" data-name="Trazado 166" d="M289.613,256a1.613,1.613,0,1,0,1.613,1.613A1.615,1.615,0,0,0,289.613,256Zm0,0" transform="translate(-270.59 -240.525)" fill="#fff"/>
</svg>
