<svg xmlns="http://www.w3.org/2000/svg" width="30" height="30" viewBox="0 0 30 30">
    <g fill="none" fill-rule="evenodd">
        <ellipse cx="14.938" cy="15" fill="#454ADE" rx="14.938" ry="15"/>
        <path fill="#FFF" fill-rule="nonzero" d="M19.738 12.917c-.314.144-.651.24-1.006.285.361-.224.64-.577.77-.999a3.446 3.446 0 0 1-1.112.438 1.725 1.725 0 0 0-1.279-.57c-.967 0-1.751.809-1.751 1.804 0 .141.016.28.046.41-1.456-.074-2.746-.793-3.61-1.884a1.838 1.838 0 0 0-.237.908c0 .625.309 1.177.78 1.5a1.698 1.698 0 0 1-.794-.225v.023c0 .873.603 1.602 1.404 1.768a1.689 1.689 0 0 1-.79.031c.222.715.869 1.239 1.635 1.252a3.441 3.441 0 0 1-2.592.748c.774.51 1.695.809 2.684.809 3.221 0 4.983-2.749 4.983-5.13 0-.08-.001-.157-.005-.235.343-.252.64-.57.874-.933"/>
    </g>
</svg>
