<svg xmlns="http://www.w3.org/2000/svg" width="80" height="77" viewBox="0 0 80 77">
    <g fill="none" fill-rule="evenodd">
        <path d="M0-2h80v80H0z"/>
        <path fill="#E01AC7" d="M78.5 56.101c0 1.067-.083 2.131-.248 3.185C76.477 70.7 65.74 78.518 54.27 76.751l.462-2.951c.916.141 1.842.212 2.769.212 9.937-.01 17.99-8.023 18-17.91zm-72 0c0 .918.072 1.834.213 2.74 1.525 9.78 10.728 16.476 20.556 14.959l.462 2.95a21.11 21.11 0 0 1-3.201.247C12.924 77.005 3.508 67.65 3.5 56.101zm26.307 15.896l1.387 2.648a20.885 20.885 0 0 1-3.232 1.343l-.924-2.836c.954-.307 1.88-.693 2.769-1.155zM10.939 50.13h.145l14.016.779 4.27.232 8.714.482c.795.045 1.417.7 1.416 1.493v2.985h3v-2.985a1.496 1.496 0 0 1 1.419-1.496l10.864-.597 8.3-.46 7.833-.432c.412-.02.814.127 1.115.407.3.282.47.675.47 1.085v4.478a14.81 14.81 0 0 1-.102 1.778c-.958 8.16-8.38 14-16.58 13.048H55.8l-.058-.012a14.86 14.86 0 0 1-2.194-.432 14.859 14.859 0 0 1-3.53-1.464c-.129-.073-.255-.152-.383-.231-.463-.284-.91-.593-1.339-.925-.062-.047-.129-.083-.189-.13-.012-.01-.018-.023-.029-.032a14.914 14.914 0 0 1-5.278-8.615h-3.6c-1.564 7.847-9.11 13.038-17.04 11.723h-.051a14.965 14.965 0 0 1-3.927-1.194l-.166-.08a14.987 14.987 0 0 1-3.347-2.189c-.027-.022-.069-.05-.085-.064-.017-.014-.026-.034-.041-.05A14.846 14.846 0 0 1 9.5 56.103v-4.479c0-.028 0-.057.002-.086a1.497 1.497 0 0 1 1.582-1.406zm19.326 4.055l-5.732 13.857c6.612-.025 11.96-5.362 11.967-11.94v-1.574l-6.235-.343zm39.23-.99l-5.308.299-6 14.513c6.344-.362 11.305-5.582 11.313-11.906l-.004-2.906zm-8.625.48l-4.98.277-5.005 12.099c.092.06.189.113.284.171.228.139.445.28.678.403.058.032.121.057.181.087.95.489 1.961.848 3.008 1.067l5.834-14.103zm-38.53.078l-4.95 11.953.064.048c.261.19.53.365.803.532l.141.085c.285.17.575.32.875.47l.109.051c.315.148.636.284.963.403l.06.014c.34.125.693.234 1.05.328l5.643-13.621-4.758-.263zm30.23.384l-7.07.391v1.573c0 2.9 1.067 5.702 3 7.873l4.07-9.837zM12.5 53.2v2.9c0 2.672.906 5.266 2.571 7.361l4.094-9.892L12.5 53.2zM56.987.967a1.502 1.502 0 0 1 1.923.892l11.64 31.854h7.95c.828 0 1.5.668 1.5 1.492v8.956c0 .824-.672 1.492-1.5 1.492h-75c-.828 0-1.5-.668-1.5-1.492v-8.956c0-.824.672-1.492 1.5-1.492h7.95L23.09 1.859a1.503 1.503 0 0 1 2.031-.848L41 8.19l15.879-7.18c.036-.015.072-.03.108-.043zM77 36.697H5v5.971h72v-5.97zm-11.823-8.954H16.823l-2.181 5.97h52.716l-2.181-5.97zM7.681 25.74l2.82 1.02-1.092 2.985-2.82-1.02 1.092-2.985zM56.645 4.394L41.621 11.19a1.507 1.507 0 0 1-1.242 0L25.355 4.394l-7.44 20.363h46.17l-7.44-20.363zM17.089 0l2.819 1.02-8.317 22.762-2.82-1.02L17.09 0z"/>
        <path fill="#56FFFB" d="M76.5 56.101c0 1.067-.083 2.131-.248 3.185C74.477 70.7 63.74 78.518 52.27 76.751l.462-2.951c.916.141 1.842.212 2.769.212 9.937-.01 17.99-8.023 18-17.91zm-72 0c0 .918.072 1.834.213 2.74 1.525 9.78 10.728 16.476 20.556 14.959l.462 2.95a21.11 21.11 0 0 1-3.201.247C10.924 77.005 1.508 67.65 1.5 56.101zm26.307 15.896l1.387 2.648a20.885 20.885 0 0 1-3.232 1.343l-.924-2.836c.954-.307 1.88-.693 2.769-1.155zM8.939 50.13h.145l14.016.779 4.27.232 8.714.482c.795.045 1.417.7 1.416 1.493v2.985h3v-2.985a1.496 1.496 0 0 1 1.419-1.496l10.864-.597 8.3-.46 7.833-.432c.412-.02.814.127 1.115.407.3.282.47.675.47 1.085v4.478a14.81 14.81 0 0 1-.102 1.778c-.958 8.16-8.38 14-16.58 13.048H53.8l-.058-.012a14.86 14.86 0 0 1-2.194-.432 14.859 14.859 0 0 1-3.53-1.464c-.129-.073-.255-.152-.383-.231-.463-.284-.91-.593-1.339-.925-.062-.047-.129-.083-.189-.13-.012-.01-.018-.023-.029-.032a14.914 14.914 0 0 1-5.278-8.615h-3.6c-1.564 7.847-9.11 13.038-17.04 11.723h-.051a14.965 14.965 0 0 1-3.927-1.194l-.166-.08a14.987 14.987 0 0 1-3.347-2.189c-.027-.022-.069-.05-.085-.064-.017-.014-.026-.034-.041-.05A14.846 14.846 0 0 1 7.5 56.103v-4.479c0-.028 0-.057.002-.086a1.497 1.497 0 0 1 1.582-1.406zm19.326 4.055l-5.732 13.857c6.612-.025 11.96-5.362 11.967-11.94v-1.574l-6.235-.343zm39.23-.99l-5.308.299-6 14.513c6.344-.362 11.305-5.582 11.313-11.906l-.004-2.906zm-8.625.48l-4.98.277-5.005 12.099c.092.06.189.113.284.171.228.139.445.28.678.403.058.032.121.057.181.087.95.489 1.961.848 3.008 1.067l5.834-14.103zm-38.53.078l-4.95 11.953.064.048c.261.19.53.365.803.532l.141.085c.285.17.575.32.875.47l.109.051c.315.148.636.284.963.403l.06.014c.34.125.693.234 1.05.328l5.643-13.621-4.758-.263zm30.23.384l-7.07.391v1.573c0 2.9 1.067 5.702 3 7.873l4.07-9.837zM10.5 53.2v2.9c0 2.672.906 5.266 2.571 7.361l4.094-9.892L10.5 53.2zM54.987.967a1.502 1.502 0 0 1 1.923.892l11.64 31.854h7.95c.828 0 1.5.668 1.5 1.492v8.956c0 .824-.672 1.492-1.5 1.492h-75c-.828 0-1.5-.668-1.5-1.492v-8.956c0-.824.672-1.492 1.5-1.492h7.95L21.09 1.859a1.503 1.503 0 0 1 2.031-.848L39 8.19l15.879-7.18c.036-.015.072-.03.108-.043zM75 36.697H3v5.971h72v-5.97zm-11.823-8.954H14.823l-2.181 5.97h52.716l-2.181-5.97zM5.681 25.74l2.82 1.02-1.092 2.985-2.82-1.02 1.092-2.985zM54.645 4.394L39.621 11.19a1.507 1.507 0 0 1-1.242 0L23.355 4.394l-7.44 20.363h46.17l-7.44-20.363zM15.089 0l2.819 1.02L9.59 23.782l-2.82-1.02L15.09 0z"/>
        <path fill="#1B1F3B" d="M77.5 56.101c0 1.067-.083 2.131-.248 3.185C75.477 70.7 64.74 78.518 53.27 76.751l.462-2.951c.916.141 1.842.212 2.769.212 9.937-.01 17.99-8.023 18-17.91zm-72 0c0 .918.072 1.834.213 2.74 1.525 9.78 10.728 16.476 20.556 14.959l.462 2.95a21.11 21.11 0 0 1-3.201.247C11.924 77.005 2.508 67.65 2.5 56.101zm26.307 15.896l1.387 2.648a20.885 20.885 0 0 1-3.232 1.343l-.924-2.836c.954-.307 1.88-.693 2.769-1.155zM9.939 50.13h.145l14.016.779 4.27.232 8.714.482c.795.045 1.417.7 1.416 1.493v2.985h3v-2.985a1.496 1.496 0 0 1 1.419-1.496l10.864-.597 8.3-.46 7.833-.432c.412-.02.814.127 1.115.407.3.282.47.675.47 1.085v4.478a14.81 14.81 0 0 1-.102 1.778c-.958 8.16-8.38 14-16.58 13.048H54.8l-.058-.012a14.86 14.86 0 0 1-2.194-.432 14.859 14.859 0 0 1-3.53-1.464c-.129-.073-.255-.152-.383-.231-.463-.284-.91-.593-1.339-.925-.062-.047-.129-.083-.189-.13-.012-.01-.018-.023-.029-.032a14.914 14.914 0 0 1-5.278-8.615h-3.6c-1.564 7.847-9.11 13.038-17.04 11.723h-.051a14.965 14.965 0 0 1-3.927-1.194l-.166-.08a14.987 14.987 0 0 1-3.347-2.189c-.027-.022-.069-.05-.085-.064-.017-.014-.026-.034-.041-.05A14.846 14.846 0 0 1 8.5 56.103v-4.479c0-.028 0-.057.002-.086a1.497 1.497 0 0 1 1.582-1.406zm19.326 4.055l-5.732 13.857c6.612-.025 11.96-5.362 11.967-11.94v-1.574l-6.235-.343zm39.23-.99l-5.308.299-6 14.513c6.344-.362 11.305-5.582 11.313-11.906l-.004-2.906zm-8.625.48l-4.98.277-5.005 12.099c.092.06.189.113.284.171.228.139.445.28.678.403.058.032.121.057.181.087.95.489 1.961.848 3.008 1.067l5.834-14.103zm-38.53.078l-4.95 11.953.064.048c.261.19.53.365.803.532l.141.085c.285.17.575.32.875.47l.109.051c.315.148.636.284.963.403l.06.014c.34.125.693.234 1.05.328l5.643-13.621-4.758-.263zm30.23.384l-7.07.391v1.573c0 2.9 1.067 5.702 3 7.873l4.07-9.837zM11.5 53.2v2.9c0 2.672.906 5.266 2.571 7.361l4.094-9.892L11.5 53.2zM55.987.967a1.502 1.502 0 0 1 1.923.892l11.64 31.854h7.95c.828 0 1.5.668 1.5 1.492v8.956c0 .824-.672 1.492-1.5 1.492h-75c-.828 0-1.5-.668-1.5-1.492v-8.956c0-.824.672-1.492 1.5-1.492h7.95L22.09 1.859a1.503 1.503 0 0 1 2.031-.848L40 8.19l15.879-7.18c.036-.015.072-.03.108-.043zM76 36.697H4v5.971h72v-5.97zm-11.823-8.954H15.823l-2.181 5.97h52.716l-2.181-5.97zM6.681 25.74l2.82 1.02-1.092 2.985-2.82-1.02 1.092-2.985zM55.645 4.394L40.621 11.19a1.507 1.507 0 0 1-1.242 0L24.355 4.394l-7.44 20.363h46.17l-7.44-20.363zM16.089 0l2.819 1.02-8.317 22.762-2.82-1.02L16.09 0z"/>
    </g>
</svg>
