<svg xmlns="http://www.w3.org/2000/svg" width="82" height="78" viewBox="0 0 82 78">
    <g fill="none" fill-rule="evenodd">
        <path d="M1-1h80v80H1z"/>
        <path fill="#56FFFB" d="M57.333 32C69.846 32.014 79.986 42.154 80 54.667c0 12.518-10.148 22.666-22.667 22.666-12.518 0-22.666-10.148-22.666-22.666C34.667 42.148 44.815 32 57.333 32zm0 2.667c-11.045 0-20 8.954-20 20 0 11.045 8.955 20 20 20 11.04-.013 19.988-8.96 20-20 0-11.046-8.954-20-20-20zm1.334 34.666V72H56v-2.667h2.667zM46.667 0a4 4 0 0 1 4 4v1.333H60A6.675 6.675 0 0 1 66.667 12v18.667H64v-12H2.667v38.666a4 4 0 0 0 4 4h26.666V64H6.667A6.675 6.675 0 0 1 0 57.333V12a6.675 6.675 0 0 1 6.667-6.667H16V4a4 4 0 0 1 8 0v1.333h18.667V4a4 4 0 0 1 4-4zm12 42.667v8.245A3.99 3.99 0 1 1 53.579 56H48v-2.667h5.579A3.996 3.996 0 0 1 56 50.913v-8.246h2.667zm-1.334 10.666a1.333 1.333 0 1 0 0 2.667 1.333 1.333 0 0 0 0-2.667zm-14.666 0V56H40v-2.667h2.667zm32 0V56H72v-2.667h2.667zM16 42.667a2.667 2.667 0 0 1 2.667 2.666v5.334A2.667 2.667 0 0 1 16 53.333h-5.333A2.667 2.667 0 0 1 8 50.667v-5.334a2.667 2.667 0 0 1 2.667-2.666zm13.333 0A2.667 2.667 0 0 1 32 45.333v5.334a2.667 2.667 0 0 1-2.667 2.666H24a2.667 2.667 0 0 1-2.667-2.666v-5.334A2.667 2.667 0 0 1 24 42.667zM16 45.333h-5.333v5.334H16v-5.334zm13.333 0H24v5.334h5.333v-5.334zm29.334-8V40H56v-2.667h2.667zM16 26.667a2.667 2.667 0 0 1 2.667 2.666v5.334A2.667 2.667 0 0 1 16 37.333h-5.333A2.667 2.667 0 0 1 8 34.667v-5.334a2.667 2.667 0 0 1 2.667-2.666zm13.333 0A2.667 2.667 0 0 1 32 29.333v5.334a2.667 2.667 0 0 1-2.667 2.666H24a2.667 2.667 0 0 1-2.667-2.666v-5.334A2.667 2.667 0 0 1 24 26.667zm13.334 0a2.667 2.667 0 0 1 2.666 2.666v4h-2.666v-4h-5.334v5.334H40v2.666h-2.667a2.667 2.667 0 0 1-2.666-2.666v-5.334a2.667 2.667 0 0 1 2.666-2.666zM16 29.333h-5.333v5.334H16v-5.334zm13.333 0H24v5.334h5.333v-5.334zM56 26.667a2.667 2.667 0 0 1 2.667 2.666v1.334H56v-1.334h-5.333v1.334H48v-1.334a2.667 2.667 0 0 1 2.667-2.666zM16 8H6.667a4 4 0 0 0-4 4v4H64v-4a4 4 0 0 0-4-4h-9.333v1.333a4 4 0 0 1-8 0V8H24v1.333a4 4 0 0 1-8 0V8zm30.667-5.333c-.737 0-1.334.597-1.334 1.333v5.333a1.333 1.333 0 0 0 2.667 0V4c0-.736-.597-1.333-1.333-1.333zM20 2.667c-.736 0-1.333.597-1.333 1.333v5.333a1.333 1.333 0 0 0 2.666 0V4c0-.736-.597-1.333-1.333-1.333z"/>
        <path fill="#E01AC7" d="M59.333 32C71.846 32.014 81.986 42.154 82 54.667c0 12.518-10.148 22.666-22.667 22.666-12.518 0-22.666-10.148-22.666-22.666C36.667 42.148 46.815 32 59.333 32zm0 2.667c-11.045 0-20 8.954-20 20 0 11.045 8.955 20 20 20 11.04-.013 19.988-8.96 20-20 0-11.046-8.954-20-20-20zm1.334 34.666V72H58v-2.667h2.667zM48.667 0a4 4 0 0 1 4 4v1.333H62A6.675 6.675 0 0 1 68.667 12v18.667H66v-12H4.667v38.666a4 4 0 0 0 4 4h26.666V64H8.667A6.675 6.675 0 0 1 2 57.333V12a6.675 6.675 0 0 1 6.667-6.667H18V4a4 4 0 0 1 8 0v1.333h18.667V4a4 4 0 0 1 4-4zm12 42.667v8.245A3.99 3.99 0 1 1 55.579 56H50v-2.667h5.579A3.996 3.996 0 0 1 58 50.913v-8.246h2.667zm-1.334 10.666a1.333 1.333 0 1 0 0 2.667 1.333 1.333 0 0 0 0-2.667zm-14.666 0V56H42v-2.667h2.667zm32 0V56H74v-2.667h2.667zM18 42.667a2.667 2.667 0 0 1 2.667 2.666v5.334A2.667 2.667 0 0 1 18 53.333h-5.333A2.667 2.667 0 0 1 10 50.667v-5.334a2.667 2.667 0 0 1 2.667-2.666zm13.333 0A2.667 2.667 0 0 1 34 45.333v5.334a2.667 2.667 0 0 1-2.667 2.666H26a2.667 2.667 0 0 1-2.667-2.666v-5.334A2.667 2.667 0 0 1 26 42.667zM18 45.333h-5.333v5.334H18v-5.334zm13.333 0H26v5.334h5.333v-5.334zm29.334-8V40H58v-2.667h2.667zM18 26.667a2.667 2.667 0 0 1 2.667 2.666v5.334A2.667 2.667 0 0 1 18 37.333h-5.333A2.667 2.667 0 0 1 10 34.667v-5.334a2.667 2.667 0 0 1 2.667-2.666zm13.333 0A2.667 2.667 0 0 1 34 29.333v5.334a2.667 2.667 0 0 1-2.667 2.666H26a2.667 2.667 0 0 1-2.667-2.666v-5.334A2.667 2.667 0 0 1 26 26.667zm13.334 0a2.667 2.667 0 0 1 2.666 2.666v4h-2.666v-4h-5.334v5.334H42v2.666h-2.667a2.667 2.667 0 0 1-2.666-2.666v-5.334a2.667 2.667 0 0 1 2.666-2.666zM18 29.333h-5.333v5.334H18v-5.334zm13.333 0H26v5.334h5.333v-5.334zM58 26.667a2.667 2.667 0 0 1 2.667 2.666v1.334H58v-1.334h-5.333v1.334H50v-1.334a2.667 2.667 0 0 1 2.667-2.666zM18 8H8.667a4 4 0 0 0-4 4v4H66v-4a4 4 0 0 0-4-4h-9.333v1.333a4 4 0 0 1-8 0V8H26v1.333a4 4 0 0 1-8 0V8zm30.667-5.333c-.737 0-1.334.597-1.334 1.333v5.333a1.333 1.333 0 0 0 2.667 0V4c0-.736-.597-1.333-1.333-1.333zM22 2.667c-.736 0-1.333.597-1.333 1.333v5.333a1.333 1.333 0 0 0 2.666 0V4c0-.736-.597-1.333-1.333-1.333z"/>
        <path fill="#1B1F3B" d="M58.333 32C70.846 32.014 80.986 42.154 81 54.667c0 12.518-10.148 22.666-22.667 22.666-12.518 0-22.666-10.148-22.666-22.666C35.667 42.148 45.815 32 58.333 32zm0 2.667c-11.045 0-20 8.954-20 20 0 11.045 8.955 20 20 20 11.04-.013 19.988-8.96 20-20 0-11.046-8.954-20-20-20zm1.334 34.666V72H57v-2.667h2.667zM47.667 0a4 4 0 0 1 4 4v1.333H61A6.675 6.675 0 0 1 67.667 12v18.667H65v-12H3.667v38.666a4 4 0 0 0 4 4h26.666V64H7.667A6.675 6.675 0 0 1 1 57.333V12a6.675 6.675 0 0 1 6.667-6.667H17V4a4 4 0 0 1 8 0v1.333h18.667V4a4 4 0 0 1 4-4zm12 42.667v8.245A3.99 3.99 0 1 1 54.579 56H49v-2.667h5.579A3.996 3.996 0 0 1 57 50.913v-8.246h2.667zm-1.334 10.666a1.333 1.333 0 1 0 0 2.667 1.333 1.333 0 0 0 0-2.667zm-14.666 0V56H41v-2.667h2.667zm32 0V56H73v-2.667h2.667zM17 42.667a2.667 2.667 0 0 1 2.667 2.666v5.334A2.667 2.667 0 0 1 17 53.333h-5.333A2.667 2.667 0 0 1 9 50.667v-5.334a2.667 2.667 0 0 1 2.667-2.666zm13.333 0A2.667 2.667 0 0 1 33 45.333v5.334a2.667 2.667 0 0 1-2.667 2.666H25a2.667 2.667 0 0 1-2.667-2.666v-5.334A2.667 2.667 0 0 1 25 42.667zM17 45.333h-5.333v5.334H17v-5.334zm13.333 0H25v5.334h5.333v-5.334zm29.334-8V40H57v-2.667h2.667zM17 26.667a2.667 2.667 0 0 1 2.667 2.666v5.334A2.667 2.667 0 0 1 17 37.333h-5.333A2.667 2.667 0 0 1 9 34.667v-5.334a2.667 2.667 0 0 1 2.667-2.666zm13.333 0A2.667 2.667 0 0 1 33 29.333v5.334a2.667 2.667 0 0 1-2.667 2.666H25a2.667 2.667 0 0 1-2.667-2.666v-5.334A2.667 2.667 0 0 1 25 26.667zm13.334 0a2.667 2.667 0 0 1 2.666 2.666v4h-2.666v-4h-5.334v5.334H41v2.666h-2.667a2.667 2.667 0 0 1-2.666-2.666v-5.334a2.667 2.667 0 0 1 2.666-2.666zM17 29.333h-5.333v5.334H17v-5.334zm13.333 0H25v5.334h5.333v-5.334zM57 26.667a2.667 2.667 0 0 1 2.667 2.666v1.334H57v-1.334h-5.333v1.334H49v-1.334a2.667 2.667 0 0 1 2.667-2.666zM17 8H7.667a4 4 0 0 0-4 4v4H65v-4a4 4 0 0 0-4-4h-9.333v1.333a4 4 0 0 1-8 0V8H25v1.333a4 4 0 0 1-8 0V8zm30.667-5.333c-.737 0-1.334.597-1.334 1.333v5.333a1.333 1.333 0 0 0 2.667 0V4c0-.736-.597-1.333-1.333-1.333zM21 2.667c-.736 0-1.333.597-1.333 1.333v5.333a1.333 1.333 0 0 0 2.666 0V4c0-.736-.597-1.333-1.333-1.333z"/>
    </g>
</svg>
